<svg width="24" height="24" viewBox="0 0 24 24" fill="none" xmlns="http://www.w3.org/2000/svg">
<path d="M17 16C17.5523 16 18 15.5523 18 15C18 14.4477 17.5523 14 17 14C15.1655 14 13.882 14.8503 13 15.9428L13 2C13 1.44771 12.5523 1 12 0.999999C11.4477 0.999999 11 1.44771 11 2L11 15.9428C10.118 14.8503 8.83454 14 7 14C6.44772 14 6 14.4477 6 15C6 15.5523 6.44772 16 7 16C8.61443 16 9.59949 17.0684 10.231 18.5408C10.8645 20.018 11 21.6268 11 22C11 22.5523 11.4477 23 12 23C12.5523 23 13 22.5523 13 22C13 21.6268 13.1355 20.018 13.769 18.5408C14.4005 17.0684 15.3856 16 17 16Z" fill="#2C3034"/>
</svg>
