<svg width="24" height="24" viewBox="0 0 24 24" fill="none" xmlns="http://www.w3.org/2000/svg">
<path fill="none" d="M6.5003 13.8537L6.89848 13.6797L6.94561 13.2477L7.42503 8.85302C7.67972 6.51836 9.65149 4.75 12 4.75C14.3485 4.75 16.3203 6.51836 16.575 8.85303L17.0544 13.2477L17.1015 13.6797L17.4997 13.8537C17.9428 14.0472 18.25 14.4886 18.25 15C18.25 15.6904 17.6904 16.25 17 16.25H7C6.30964 16.25 5.75 15.6904 5.75 15C5.75 14.4886 6.05724 14.0472 6.5003 13.8537Z" stroke="#2C3034" stroke-width="1.5"/>
<path fill-rule="evenodd" clip-rule="evenodd" d="M16.0272 5.82812C16.7289 6.62889 17.1974 7.64406 17.3205 8.77311L17.7999 13.1678C17.9734 13.2436 18.1339 13.3432 18.2776 13.4626L17.8205 9.27311C17.67 7.89368 17.0041 6.68425 16.0272 5.82812ZM18.642 13.8593C18.8677 14.1831 19 14.5768 19 15.0014C19 16.106 18.1045 17.0014 17 17.0014H6.99998C6.5754 17.0014 6.18171 16.8691 5.85791 16.6435C6.21926 17.1621 6.81999 17.5014 7.49998 17.5014H17.5C18.6045 17.5014 19.5 16.606 19.5 15.5014C19.5 14.8214 19.1606 14.2207 18.642 13.8593Z" fill="#2C3034"/>
<path d="M10 19.5H14" stroke="#2C3034" stroke-width="1.5" stroke-linecap="round"/>
</svg>
