<svg width="24" height="24" viewBox="0 0 24 24" fill="none" xmlns="http://www.w3.org/2000/svg">
    <path fill-rule="evenodd" clip-rule="evenodd" d="M12 6.50001L10.6905 5.84525C8.26351 4.63176 5.58735 4 2.87391 4C2.39126 4 2 4.39126 2 4.87391V16.2911C2 16.8909 2.30899 17.4185 2.77649 17.7234C3.08143 18.191 3.60906 18.5 4.20887 18.5C6.38296 18.5 8.53707 18.9148 10.5557 19.7223L12.1286 20.3514C12.367 20.4468 12.6329 20.4468 12.8714 20.3514L14.4443 19.7223C16.4629 18.9148 18.617 18.5 20.791 18.5C21.7348 18.5 22.5 17.7349 22.5 16.791V5.3739C22.5 5.00243 22.2682 4.6851 21.9414 4.55861C21.8149 4.23178 21.4976 4 21.1261 4C18.4127 4 15.7365 4.63176 13.3095 5.84525L12 6.50001ZM11.25 18.0844L10.6128 17.8296C8.41702 16.9512 6.07383 16.5 3.70891 16.5C3.59353 16.5 3.5 16.4065 3.5 16.2911V5.51227C5.76507 5.60108 7.98789 6.171 10.0197 7.18689L11.25 7.80206V18.0844ZM12.75 18.0845L13.3872 17.8296C15.583 16.9513 17.9262 16.5 20.2911 16.5C20.4065 16.5 20.5 16.4064 20.5 16.2911V5.51227C18.2349 5.60108 16.0121 6.171 13.9803 7.18689L12.75 7.80206V18.0845Z" fill="#2C3034" />
    <path fill-rule="evenodd" clip-rule="evenodd" d="M19.75 9C19.75 9.41421 19.4142 9.75 19 9.75H17.75C17.0197 9.75 16.296 9.88936 15.6179 10.1606L14.2785 10.6964C13.894 10.8502 13.4575 10.6631 13.3036 10.2785C13.1498 9.89396 13.3369 9.45748 13.7215 9.30364L15.0609 8.76788C15.9161 8.42577 16.8288 8.25 17.75 8.25H19C19.4142 8.25 19.75 8.58579 19.75 9Z" fill="#2C3034" />
    <path fill-rule="evenodd" clip-rule="evenodd" d="M19.75 12C19.75 12.4142 19.4142 12.75 19 12.75H17.75C17.0197 12.75 16.296 12.8894 15.6179 13.1606L14.2785 13.6964C13.894 13.8502 13.4575 13.6631 13.3036 13.2785C13.1498 12.894 13.3369 12.4575 13.7215 12.3036L15.0609 11.7679C15.9161 11.4258 16.8288 11.25 17.75 11.25H19C19.4142 11.25 19.75 11.5858 19.75 12Z" fill="#2C3034" />
</svg>
