<svg width="24" height="24" viewBox="0 0 24 24" fill="none" xmlns="http://www.w3.org/2000/svg">
<path fill-rule="evenodd" clip-rule="evenodd" d="M3.86047 6.35484H19.6744C19.9313 6.35484 20.1396 6.55704 20.1396 6.80646V8.61291H3.39535V6.80646C3.39535 6.55704 3.60359 6.35484 3.86047 6.35484ZM3.39535 10.4194H20.1396V16.742C20.1396 16.9914 19.9313 17.1936 19.6744 17.1936H3.86047C3.60359 17.1936 3.39535 16.9914 3.39535 16.742V10.4194ZM2 6.80646C2 5.80878 2.83296 5 3.86047 5H19.6744C20.307 5 20.8658 5.3065 21.2019 5.77489C21.6843 6.10127 22 6.64386 22 7.25803V17.1935C22 18.1912 21.167 19 20.1395 19H4.32555C3.69302 19 3.13421 18.6935 2.79807 18.2251C2.31567 17.8987 2 17.3561 2 16.742V6.80646ZM5.72094 14.0323C5.20718 14.0323 4.7907 14.4367 4.7907 14.9355C4.7907 15.4343 5.20718 15.8387 5.72094 15.8387H11.3023C11.8161 15.8387 12.2326 15.4343 12.2326 14.9355C12.2326 14.4367 11.8161 14.0323 11.3023 14.0323H5.72094Z" fill="#2C3034"/>
</svg>
