<svg width="24" height="24" viewBox="0 0 24 24" fill="none" xmlns="http://www.w3.org/2000/svg">
<circle cx="12" cy="12" r="9.25" stroke="#DB8520" stroke-width="1.5"/>
<path fill-rule="evenodd" clip-rule="evenodd" d="M11.75 6C12.1642 6 12.5 6.33579 12.5 6.75V12.5607L9.28033 15.7803C8.98744 16.0732 8.51256 16.0732 8.21967 15.7803C7.92678 15.4874 7.92678 15.0126 8.21967 14.7197L11 11.9393V6.75C11 6.33579 11.3358 6 11.75 6Z" fill="#DB8520"/>
<path fill-rule="evenodd" clip-rule="evenodd" d="M12 22C17.5229 22 22 17.5229 22 12C22 9.36578 20.9815 6.96944 19.3167 5.18335C21.2753 7.00887 22.5 9.61142 22.5 12.5C22.5 18.0229 18.0229 22.5 12.5 22.5C9.61142 22.5 7.00887 21.2753 5.18335 19.3167C6.96944 20.9815 9.36578 22 12 22Z" fill="#DB8520"/>
</svg>
