<svg width="24" height="24" viewBox="0 0 24 24" color="#2C3034" xmlns="http://www.w3.org/2000/svg">
    <path fill-rule="evenodd" clip-rule="evenodd"
        d="M16.8029 5.37699L12 10.188L7.19689 5.37673C6.9557 5.13552 6.62858 5 6.28747 5C5.94637 5 5.61924 5.13552 5.37806 5.37673C5.13688 5.61794 5.00139 5.94507 5.00139 6.28617C5.00139 6.62727 5.13714 6.95466 5.37832 7.19587L10.1889 11.9993L5.37942 16.8016L5.3787 16.8024C5.25881 16.9215 5.16364 17.0631 5.09865 17.2191C5.03353 17.3754 5 17.5431 5 17.7124C5 17.8818 5.03353 18.0494 5.09865 18.2058C5.16352 18.3615 5.25847 18.5029 5.37806 18.6219C5.49702 18.7415 5.63841 18.8364 5.79414 18.9013C5.95046 18.9665 6.11813 19 6.28747 19C6.45682 19 6.62448 18.9665 6.7808 18.9013C6.93683 18.8363 7.07847 18.7411 7.19757 18.6212L12 13.8106L16.8023 18.6211C16.9215 18.7411 17.0631 18.8363 17.2192 18.9013C17.3755 18.9665 17.5432 19 17.7125 19C17.8819 19 18.0495 18.9665 18.2059 18.9013C18.3616 18.8365 18.5029 18.7415 18.6219 18.6219C18.7415 18.5029 18.8365 18.3615 18.9014 18.2058C18.9665 18.0494 19 17.8818 19 17.7124C19 17.5431 18.9665 17.3754 18.9014 17.2191C18.8364 17.0631 18.7412 16.9215 18.6214 16.8025L18.6206 16.8016L13.8111 11.9993L18.6219 7.19561C18.8631 6.9544 18.9986 6.62727 18.9986 6.28617C18.9986 5.94507 18.8631 5.61793 18.6219 5.37673C18.3808 5.13552 18.0536 5 17.7125 5C17.3714 5 17.044 5.13578 16.8029 5.37699Z"
        fill="currentColor" />
</svg>