<svg width="32" height="32" viewBox="0 0 32 32" fill="white" xmlns="http://www.w3.org/2000/svg">
<path fill-rule="evenodd" clip-rule="evenodd" d="M15.658 27.2684C22.0696 27.2684 27.2672 22.0708 27.2672 15.6592C27.2672 9.24753 22.0696 4.04989 15.658 4.04989C9.24634 4.04989 4.04869 9.24753 4.04869 15.6592C4.04869 22.0708 9.24634 27.2684 15.658 27.2684ZM2 15.6592C2 19.6045 3.6729 23.1592 6.34807 25.6525C8.84134 28.3273 12.3958 30 16.3409 30C23.884 30 29.8149 23.8829 29.9988 16.342C30.192 8.42416 23.5758 1.80807 15.658 2.00119C8.11712 2.18513 2 8.11607 2 15.6592ZM20.7231 20.7243C20.1925 21.255 19.3317 21.255 18.8005 20.7243L17.2292 19.1531L15.658 17.5818L12.5154 20.7243C11.9847 21.255 11.124 21.255 10.5928 20.7243C10.0621 20.1937 10.0621 19.3329 10.5928 18.8017L13.7353 15.6592L10.5928 12.5166C10.0621 11.9859 10.0621 11.1252 10.5928 10.594C11.1235 10.0633 11.9842 10.0633 12.5154 10.594L15.658 13.7365L18.8005 10.594C19.3312 10.0633 20.1919 10.0633 20.7231 10.594C21.2538 11.1246 21.2538 11.9854 20.7231 12.5166L17.5806 15.6592L20.7231 18.8017C21.2538 19.3324 21.2538 20.1931 20.7231 20.7243Z" />
</svg>
