<svg width="24" height="24" viewBox="0 0 24 24" fill="none" xmlns="http://www.w3.org/2000/svg">
<circle cx="12" cy="12" r="9.25" stroke="#2C3034" stroke-width="1.5"/>
<path fill-rule="evenodd" clip-rule="evenodd" d="M9.87106 17.2479V15.8524L9.77583 15.7975C8.3723 15.0002 7.5 13.5453 7.5 12.0008C7.5 10.4564 8.37235 9.00184 9.77583 8.20389L9.87141 8.14967V6.75422C9.87141 6.33933 10.2258 6.0021 10.6617 6.0021C11.0977 6.0021 11.4521 6.33968 11.4521 6.75422V7.62213L11.6679 7.59834C11.8704 7.5784 12.0796 7.56861 12.2832 7.5805L12.5589 7.5938V6.75212C12.5589 6.33723 12.9133 6 13.3492 6C13.7852 6 14.1396 6.33758 14.1396 6.75212V8.00446L14.2473 8.05658C14.6097 8.23219 14.9428 8.44734 15.2358 8.69536C15.3931 8.829 15.4868 9.01335 15.4986 9.21381C15.5111 9.41426 15.4401 9.60771 15.2997 9.75778C15.1593 9.90751 14.9656 9.99672 14.7549 10.0079C14.5403 10.0219 14.341 9.95229 14.1833 9.81865C13.6212 9.34219 12.8975 9.08017 12.1446 9.08017C10.4533 9.08017 9.07738 10.3896 9.07738 11.9991C9.07738 13.6087 10.4533 14.9181 12.1446 14.9181C12.8975 14.9181 13.622 14.6554 14.1833 14.1796C14.3414 14.046 14.545 13.9785 14.7549 13.9904C14.9659 14.0022 15.1593 14.0911 15.2997 14.2412C15.5894 14.5518 15.5607 15.0286 15.235 15.3039C14.9443 15.5513 14.612 15.766 14.2473 15.9427L14.1403 15.9948V17.2472C14.1403 17.6621 13.786 17.9993 13.35 17.9993C12.914 17.9993 12.5597 17.6621 12.5597 17.2472V16.4059L12.2796 16.4188C12.073 16.43 11.8682 16.4198 11.6675 16.401L11.4517 16.3803V17.2479C11.4517 17.6628 11.0974 18 10.6614 18C10.2254 18 9.87106 17.6628 9.87106 17.2479Z" fill="#2C3034"/>
<path fill-rule="evenodd" clip-rule="evenodd" d="M12 21.9964C17.5229 21.9964 22 17.5192 22 11.9964C22 9.36212 20.9815 6.96578 19.3167 5.17969C21.2753 7.00521 22.5 9.60775 22.5 12.4964C22.5 18.0192 18.0229 22.4964 12.5 22.4964C9.61142 22.4964 7.00887 21.2716 5.18335 19.313C6.96944 20.9778 9.36578 21.9964 12 21.9964Z" fill="#2C3034"/>
</svg>
