<svg width="40" height="40" viewBox="0 0 40 40" fill="none" xmlns="http://www.w3.org/2000/svg">
    <mask id="mask0_10033_74099" style="mask-type:alpha" maskUnits="userSpaceOnUse" x="3" y="9" width="33" height="23">
        <path fill="none"
            d="M4.7729 20.9719L12.3652 30.4623C12.4601 30.5809 12.6037 30.6499 12.7556 30.6499H31.5153C33.1722 30.6499 34.5153 29.3068 34.5153 27.6499V13.6499C34.5153 11.9931 33.1722 10.6499 31.5153 10.6499H13.2465C13.0998 10.6499 12.9606 10.7144 12.8656 10.8261L4.78236 20.3358C4.62729 20.5182 4.62332 20.785 4.7729 20.9719Z"
            stroke="#2C3034" stroke-width="2.5" />
    </mask>
    <g mask="url(#mask0_10033_74099)">
        <path d="M9.5 31L22.6825 22.6825L35.5876 9.77745L46.1239 20.3137L20.3137 46.1239L9.5 31Z" fill="#2C3034" />
    </g>
    <path fill="none"
        d="M4.25759 20.322L11.8499 29.8123C11.9448 29.931 12.0884 30 12.2403 30H31C32.6569 30 34 28.6569 34 27V13C34 11.3431 32.6569 10 31 10H12.7312C12.5845 10 12.4453 10.0644 12.3503 10.1762L4.26706 19.6858C4.11198 19.8683 4.10802 20.135 4.25759 20.322Z"
        stroke="#2C3034" stroke-width="2.5" />
    <path fill-rule="evenodd" clip-rule="evenodd"
        d="M19.8839 15.6161C19.3957 15.128 18.6043 15.128 18.1161 15.6161C17.628 16.1043 17.628 16.8957 18.1161 17.3839L20.7678 20.0355L18.1161 22.6872C17.628 23.1753 17.628 23.9668 18.1161 24.455C18.6043 24.9431 19.3957 24.9431 19.8839 24.455L22.5355 21.8033L25.1872 24.455C25.6753 24.9431 26.4668 24.9431 26.955 24.455C27.4431 23.9668 27.4431 23.1753 26.955 22.6872L24.3033 20.0355L26.955 17.3839C27.4431 16.8957 27.4431 16.1043 26.955 15.6161C26.4668 15.128 25.6753 15.128 25.1872 15.6161L22.5355 18.2678L19.8839 15.6161Z"
        fill="#2C3034" />
</svg>