<svg width="25" height="24" viewBox="0 0 25 24" fill="none" xmlns="http://www.w3.org/2000/svg">
<path stroke-width="1.5" fill-rule="evenodd" clip-rule="evenodd" d="M8.98391 5.0061C8.77527 5.03423 8.58467 5.14066 8.44655 5.3062C8.34196 5.43156 8.27414 5.59019 8.25403 5.75655C8.25125 5.77948 8.24995 6.83162 8.25 9.00184C8.25007 11.7425 8.25091 12.2194 8.25572 12.2552C8.30773 12.643 8.6066 12.9421 8.99391 12.9942C9.04332 13.0008 9.14988 13.0017 9.19801 12.9959C9.38679 12.973 9.55734 12.8924 9.6934 12.7616C9.75152 12.7058 9.78171 12.6666 9.88308 12.5155C9.93256 12.4417 10.317 11.8706 10.7374 11.2462C11.1578 10.6219 11.5072 10.1003 11.5139 10.087C11.5205 10.0738 11.528 10.0514 11.5304 10.0373C11.5432 9.96461 11.4994 9.88592 11.4261 9.84956C11.3971 9.8352 11.3951 9.83479 11.3516 9.83479C11.3072 9.83479 11.3067 9.83491 11.2763 9.85081C11.2503 9.86436 11.118 9.97736 10.4165 10.5851C9.96046 10.9801 9.58207 11.3061 9.57562 11.3095C9.54985 11.323 9.51479 11.314 9.49721 11.2893L9.4879 11.2763V9.01926V6.76227L9.49627 6.75096C9.51694 6.72306 9.55689 6.71369 9.5823 6.73077C9.58978 6.7358 10.2337 7.50383 11.0132 8.4375C13.082 10.9154 13.5419 11.4664 14.0899 12.1231C14.3609 12.4479 14.5991 12.7305 14.6192 12.7511C14.7292 12.8635 14.861 12.9384 15.0158 12.9763C15.099 12.9967 15.1388 13 15.3041 13C15.4638 13 15.5048 12.9972 15.5778 12.9816C15.8319 12.9271 16.0483 12.7572 16.1636 12.5215C16.2063 12.4343 16.2353 12.3356 16.2455 12.2424C16.2515 12.1876 16.2515 5.81232 16.2455 5.7575C16.2097 5.43118 15.981 5.14752 15.67 5.04372C15.577 5.0127 15.4976 5.00005 15.3958 5.00005C15.2031 5.00005 15.0258 5.05846 14.8751 5.17156C14.8291 5.20615 14.7609 5.27221 14.7242 5.3179C14.6835 5.3687 12.9814 7.89994 12.9702 7.92641C12.9347 8.01076 12.9794 8.11069 13.0719 8.15385C13.0909 8.16267 13.103 8.16528 13.1305 8.16642C13.1715 8.16814 13.1981 8.16156 13.2285 8.14223C13.2399 8.13499 13.6203 7.80563 14.0738 7.41033C14.5273 7.01503 14.9063 6.68734 14.9159 6.68212C14.9477 6.66498 14.9828 6.67743 14.9982 6.71131C15.0054 6.72715 15.0056 6.79601 15.0057 8.97607L15.0058 11.2245L14.9968 11.2424C14.9812 11.2732 14.9398 11.2872 14.911 11.2712C14.904 11.2674 14.8832 11.2462 14.8649 11.2242L14.2014 10.4294L11.7382 7.4784C10.7299 6.27048 9.88851 5.26538 9.86842 5.24484C9.73897 5.11253 9.5718 5.02997 9.38469 5.00595C9.32228 4.99794 9.04371 4.99804 8.98391 5.0061Z" fill="#2C3034"/>
<path stroke-width="1.5" fill="none" d="M19.75 9C19.75 13.1421 16.3921 16.5 12.25 16.5C8.10786 16.5 4.75 13.1421 4.75 9C4.75 4.85786 8.10786 1.5 12.25 1.5C16.3921 1.5 19.75 4.85786 19.75 9Z" stroke="#2C3034"/>
<path stroke-width="1.5" fill-rule="evenodd" clip-rule="evenodd" d="M8.5 22C8.08579 22 7.75 21.6642 7.75 21.25L7.75 18.75C7.75 18.3358 8.08579 18 8.5 18C8.91421 18 9.25 18.3358 9.25 18.75L9.25 21.25C9.25 21.6642 8.91421 22 8.5 22Z" fill="#2C3034"/>
<path stroke-width="1.5" fill-rule="evenodd" clip-rule="evenodd" d="M12.5 24C12.0858 24 11.75 23.6642 11.75 23.25L11.75 19.75C11.75 19.3358 12.0858 19 12.5 19C12.9142 19 13.25 19.3358 13.25 19.75L13.25 23.25C13.25 23.6642 12.9142 24 12.5 24Z" fill="#2C3034"/>
<path stroke-width="1.5" fill-rule="evenodd" clip-rule="evenodd" d="M16.5 22C16.0858 22 15.75 21.6642 15.75 21.25L15.75 18.75C15.75 18.3358 16.0858 18 16.5 18C16.9142 18 17.25 18.3358 17.25 18.75L17.25 21.25C17.25 21.6642 16.9142 22 16.5 22Z" fill="#2C3034"/>
</svg>
