<svg width="52" height="51" viewBox="0 0 52 51" fill="none" xmlns="http://www.w3.org/2000/svg">
<path d="M17.1376 37.5192L17.1375 37.5193L17.1422 37.5229C19.6752 39.4953 22.7891 40.5747 25.9991 40.5938L26.0009 40.5938C29.211 40.5747 32.3247 39.4953 34.8577 37.5229L34.8578 37.523L34.8623 37.5192C35.1956 37.2379 35.42 36.8489 35.4974 36.4195C35.5748 35.9921 35.501 35.5511 35.2896 35.172C35.1117 34.7988 34.7759 34.5251 34.374 34.4269C33.9708 34.3282 33.5446 34.4167 33.2138 34.668L33.2118 34.6696C31.1564 36.2886 28.6162 37.1691 26 37.1691C23.3837 37.1691 20.8435 36.2887 18.7882 34.6696L18.7861 34.668C18.4553 34.4167 18.0291 34.3282 17.6259 34.4269C17.224 34.5251 16.8882 34.7988 16.7103 35.172C16.4989 35.5511 16.4251 35.992 16.5025 36.4195C16.5799 36.8489 16.8043 37.2379 17.1376 37.5192ZM27.0771 30.5833L27.0771 30.5833C27.9841 29.6759 28.4938 28.4457 28.4938 27.1625V18.5688C28.4938 17.9568 28.1673 17.3915 27.6375 17.0857C27.1077 16.7799 26.4549 16.7799 25.925 17.0857C25.3952 17.3915 25.0688 17.9568 25.0688 18.5688V27.1625C25.0688 27.5371 24.9199 27.8966 24.6551 28.1614C24.3903 28.4262 24.0309 28.575 23.6563 28.575C23.0443 28.575 22.479 28.9015 22.1732 29.4313C21.8674 29.9611 21.8674 30.614 22.1732 31.1438C22.479 31.6736 23.0443 32 23.6563 32C24.9395 32 26.1697 31.4904 27.0771 30.5833ZM14.6328 23.686C14.9539 24.0071 15.3897 24.1875 15.8438 24.1875C16.2979 24.1875 16.7337 24.0071 17.0548 23.686C17.3759 23.3649 17.5563 22.9291 17.5563 22.475V18.5688C17.5563 17.9568 17.2298 17.3915 16.7 17.0857C16.1702 16.7799 15.5174 16.7799 14.9876 17.0857C14.4577 17.3915 14.1313 17.9568 14.1313 18.5688V22.475C14.1313 22.9291 14.3117 23.3649 14.6328 23.686ZM34.9453 23.686C35.2664 24.0071 35.7022 24.1875 36.1563 24.1875C36.6104 24.1875 37.0461 24.0071 37.3672 23.686C37.6884 23.3649 37.8688 22.9291 37.8688 22.475V18.5688C37.8688 17.9568 37.5423 17.3915 37.0125 17.0857C36.4827 16.7799 35.8298 16.7799 35.3 17.0857C34.7702 17.3915 34.4438 17.9568 34.4438 18.5688V22.475C34.4438 22.9291 34.6242 23.3649 34.9453 23.686ZM0.850063 33.4125C0.850063 39.2924 2.22186 43.6355 5.09321 46.5069C7.96456 49.3782 12.3077 50.75 18.1875 50.75C18.7995 50.75 19.3648 50.4236 19.6707 49.8937C19.9765 49.3639 19.9765 48.7111 19.6707 48.1813C19.3648 47.6514 18.7995 47.325 18.1875 47.325C13.1228 47.325 9.65738 46.3499 7.45378 44.1463C5.25018 41.9427 4.27506 38.4773 4.27506 33.4125C4.27506 32.8006 3.94862 32.2352 3.4188 31.9294C2.889 31.6236 2.23613 31.6236 1.70633 31.9294C1.1765 32.2352 0.850063 32.8006 0.850063 33.4125ZM48.2265 18.9985C48.5476 19.3196 48.9834 19.5 49.4375 19.5C49.8916 19.5 50.3274 19.3196 50.6485 18.9985C50.9696 18.6774 51.15 18.2416 51.15 17.7875C51.15 11.9077 49.7782 7.56457 46.9069 4.69321C44.0355 1.82186 39.6924 0.450067 33.8125 0.450067C33.2006 0.450067 32.6352 0.77651 32.3294 1.30633C32.0236 1.83613 32.0236 2.489 32.3294 3.0188C32.6352 3.54863 33.2006 3.87506 33.8125 3.87506C38.8773 3.87506 42.3427 4.85018 44.5463 7.05378C46.7499 9.25738 47.725 12.7228 47.725 17.7875C47.725 18.2416 47.9054 18.6774 48.2265 18.9985ZM1.35152 18.9985C1.67263 19.3196 2.10839 19.5001 2.5625 19.5001C3.0166 19.5001 3.45237 19.3196 3.77347 18.9985C4.09458 18.6774 4.275 18.2417 4.275 17.7876C4.275 12.7228 5.25011 9.2574 7.45371 7.0538C9.65731 4.8502 13.1227 3.87508 18.1875 3.87508C18.7994 3.87508 19.3648 3.54864 19.6706 3.01882C19.9764 2.48902 19.9764 1.83615 19.6706 1.30635C19.3648 0.776517 18.7994 0.450084 18.1875 0.450084C12.3076 0.450084 7.9645 1.82188 5.09315 4.69323C2.2218 7.56458 0.85 11.9077 0.85 17.7876C0.85 18.2417 1.03042 18.6774 1.35152 18.9985ZM32.3294 49.8937C32.6352 50.4236 33.2006 50.75 33.8125 50.75C39.6924 50.75 44.0355 49.3782 46.9069 46.5069C49.7782 43.6355 51.15 39.2924 51.15 33.4125C51.15 32.8006 50.8236 32.2352 50.2937 31.9294C49.7639 31.6236 49.1111 31.6236 48.5813 31.9294C48.0514 32.2352 47.725 32.8006 47.725 33.4125C47.725 38.4773 46.7499 41.9427 44.5463 44.1463C42.3427 46.3499 38.8773 47.325 33.8125 47.325C33.2006 47.325 32.6352 47.6514 32.3294 48.1813C32.0236 48.7111 32.0236 49.3639 32.3294 49.8937Z" fill="#2C3034" stroke="#2C3034" stroke-width="1"/>
</svg>
