<svg width="24" height="24" viewBox="0 0 24 24" fill="none" xmlns="http://www.w3.org/2000/svg">
<path d="M12.4572 18.9677C12.558 18.9517 13.0066 19.0223 13.1003 19.0683L17.8617 21.5898C18.495 21.8244 18.8496 21.38 18.8821 20.8979C18.9146 20.4158 18.0107 15.1953 18.0107 15.1953C17.9887 15.0418 18.039 14.8868 18.1471 14.7756L22.3368 10.4647C22.6467 10.1151 22.4805 9.60938 21.9309 9.50409L16.1023 8.50556C15.9495 8.47913 15.2736 8.50809 15.2013 8.37097L12.4483 2.8797C12.2704 2.54253 11.6719 2.97053 11.4641 3.27281L11.5954 4.36001L12.9244 7.04227L12.9037 7.16775L14.0142 9.27258C14.3759 9.9582 15.0353 10.4372 15.7991 10.5694L18.9211 11.1096L16.7129 13.3817C16.1726 13.9376 15.9208 14.7127 16.0311 15.4799L16.4642 18.4914L16.5454 18.615L16.4809 18.6075L16.4821 18.6161L16.4595 18.605L12.7719 18.1756L12.4572 18.9677Z" fill="#2C3034"/>
<path d="M11.5577 2.83817C11.7453 2.4826 12.2546 2.4826 12.4422 2.83817L15.2474 8.15498C15.3197 8.2921 15.4516 8.38791 15.6043 8.41434L21.5278 9.43924C21.9239 9.50778 22.0813 9.9921 21.8011 10.2804L17.6113 14.5913C17.5033 14.7025 17.4529 14.8575 17.475 15.0109L18.3307 20.9612C18.3879 21.3591 17.9759 21.6584 17.6152 21.481L12.2206 18.8285C12.0814 18.7601 11.9185 18.7601 11.7793 18.8285L6.38474 21.481C6.02397 21.6584 5.61198 21.3591 5.66921 20.9612L6.52491 15.0109C6.54698 14.8575 6.49661 14.7025 6.38856 14.5913L2.19882 10.2804C1.91862 9.9921 2.07599 9.50778 2.47213 9.43924L8.39557 8.41434C8.54833 8.38791 8.6802 8.2921 8.75254 8.15498L11.5577 2.83817Z" fill="#2C3034"/>
</svg>
