<svg width="24" height="24" viewBox="0 0 24 24" fill="none" xmlns="http://www.w3.org/2000/svg">
<path d="M9.99999 17.55L8.23 19.27C7.76587 19.7341 7.13637 19.9948 6.48 19.9948C5.82362 19.9948 5.19412 19.7341 4.73 19.27C4.26587 18.8058 4.00512 18.1763 4.00512 17.52C4.00512 16.8636 4.26587 16.2341 4.73 15.77L9.27 11.22C9.71561 10.7729 10.316 10.5143 10.947 10.4975C11.578 10.4807 12.1913 10.7072 12.66 11.13L12.78 11.23C12.9696 11.4156 13.2252 11.5183 13.4906 11.5155C13.756 11.5127 14.0093 11.4046 14.195 11.215C14.3806 11.0253 14.4834 10.7697 14.4806 10.5044C14.4777 10.239 14.3696 9.98562 14.18 9.79997C14.1236 9.727 14.0635 9.65691 14 9.58997C13.1463 8.84729 12.0423 8.45682 10.9116 8.49767C9.7808 8.53852 8.70783 9.00763 7.91 9.80997L3.31 14.36C2.52835 15.2108 2.07139 16.7808 2.09584 17.9358C2.1203 19.0909 2.59005 20.1919 3.407 21.0089C4.22395 21.8258 5.32493 22.2956 6.48002 22.32C7.6351 22.3445 8.62865 21.7905 9.47944 21.0089L11.37 19C11.5408 18.8136 11.6347 18.5695 11.6328 18.3167C11.6309 18.0639 11.5333 17.8212 11.3597 17.6375C11.1861 17.4537 10.9493 17.3426 10.6971 17.3263C10.4448 17.3101 10.1957 17.39 9.99999 17.55ZM20.69 3.30997C19.8488 2.47398 18.711 2.00476 17.525 2.00476C16.339 2.00476 15.2012 2.47398 14.36 3.30997L12.63 4.99997C12.4592 5.18632 12.3653 5.43045 12.3672 5.68324C12.3691 5.93603 12.4667 6.17871 12.6403 6.36246C12.8139 6.54621 13.0507 6.65739 13.3029 6.67362C13.5552 6.68986 13.8043 6.60995 14 6.44997L15.73 4.72997C16.1941 4.26584 16.8236 4.0051 17.48 4.0051C18.1364 4.0051 18.7659 4.26584 19.23 4.72997C19.6941 5.1941 19.9549 5.8236 19.9549 6.47997C19.9549 7.13635 19.6941 7.76584 19.23 8.22997L14.69 12.78C14.2444 13.227 13.644 13.4857 13.013 13.5024C12.382 13.5192 11.7687 13.2928 11.3 12.87L11.18 12.77C10.9904 12.5843 10.7348 12.4816 10.4694 12.4844C10.204 12.4872 9.95065 12.5953 9.765 12.785C9.57935 12.9746 9.47663 13.2302 9.47944 13.4956C9.48225 13.7609 9.59037 14.0143 9.78 14.2C9.85263 14.2743 9.92942 14.3444 10.01 14.41C10.8647 15.1504 12.1729 15.8108 13.3029 15.77C14.433 15.7291 15.5056 15.2615 16.3046 14.4613L20.8546 9.91135C21.696 9.07542 22.1724 7.94058 22.1799 6.7546C22.1874 5.56861 21.5207 4.15646 20.69 3.30997Z" fill="#2C3034"/>
</svg>
