<svg width="24" height="24" viewBox="0 0 24 24" fill="none" xmlns="http://www.w3.org/2000/svg">
<path d="M4.69689 5.3705C4.4908 5.56743 4.4908 5.89654 4.69689 6.09347L18.618 19.3965C18.8113 19.5811 19.1156 19.5811 19.3089 19.3965L20.1705 18.5732C20.3766 18.3762 20.3766 18.0471 20.1705 17.8502L6.24933 4.54718C6.05607 4.3625 5.75172 4.3625 5.55846 4.54718L4.69689 5.3705Z" fill="#F3EBEA"/>
<path fill-rule="evenodd" clip-rule="evenodd" d="M8.45086 7.95548C6.14043 8.52202 4.06193 9.64139 2.3789 11.1573C2.16831 11.347 2.17025 11.6745 2.37515 11.8703L3.29066 12.7451C3.48532 12.9311 3.79158 12.9287 3.99213 12.7491C5.7238 11.1978 7.95414 10.1489 10.4286 9.8454L8.45086 7.95548ZM13.6296 9.87446L11.2037 7.55633C11.4406 7.54486 11.6791 7.53906 11.919 7.53906C15.6986 7.53906 19.1261 8.9794 21.6333 11.317C21.8382 11.508 21.8336 11.8309 21.6311 12.0244L20.7158 12.899C20.5184 13.0877 20.2068 13.0821 20.0068 12.8961C18.304 11.3113 16.093 10.2226 13.6296 9.87446ZM12.6766 11.9936C12.4262 11.9782 12.1735 11.9703 11.919 11.9703C9.48403 11.9703 7.22442 12.6877 5.35895 13.9133C5.09896 14.0841 5.07541 14.4506 5.30031 14.6655L6.23334 15.5571C6.40419 15.7204 6.66527 15.7405 6.86593 15.6157C8.31963 14.7114 10.0551 14.186 11.919 14.186C13.3189 14.186 14.6463 14.4824 15.8364 15.0131L12.6766 11.9936ZM14.543 18.7977L15.4767 17.9055C15.7208 17.6722 15.6679 17.2692 15.3598 17.1312C14.3152 16.6631 13.149 16.4016 11.919 16.4016C10.7822 16.4016 9.7001 16.625 8.71798 17.0282C8.40002 17.1588 8.3397 17.57 8.5882 17.8074L9.62452 18.7977C10.9827 20.0956 13.1848 20.0956 14.543 18.7977Z" fill="#F3EBEA"/>
</svg>
