<svg width="24" height="24" viewBox="0 0 24 24" fill="none" xmlns="http://www.w3.org/2000/svg">
    <path
        d="M17.2993 5.16912V5.33275H17.4629H21.3463V8.10251C21.3463 9.41371 20.8115 10.5988 19.9452 11.4649C19.2017 12.208 18.2146 12.7155 17.1132 12.8646L17.0134 12.8781L16.9805 12.9733C16.6926 13.8064 16.2178 14.5623 15.5939 15.1858C15.4742 15.3055 15.3489 15.4204 15.2184 15.5299C14.4082 16.2101 13.4266 16.6619 12.3772 16.8371L12.2406 16.86V16.9985V18.0868C12.2406 18.6605 12.4715 19.2103 12.8819 19.6153C13.2923 20.0202 13.8483 20.2473 14.4277 20.2473H15.2758V21.9169H7.50912V20.2473H8.35723C8.9366 20.2473 9.49267 20.0202 9.90299 19.6153C10.3134 19.2103 10.5444 18.6605 10.5444 18.0868V16.9985V16.86L10.4077 16.8371C9.35837 16.6619 8.37676 16.2101 7.56653 15.5299C6.75631 14.8497 6.1476 13.9663 5.80447 12.9733L5.77157 12.8781L5.67175 12.8646C3.28526 12.5416 1.43866 10.5376 1.43866 8.10251V5.33275H5.322H5.48564V5.16912V3.27399H17.2993V5.16912ZM3.13488 8.10251L3.13488 8.10269C3.13559 8.75618 3.34126 9.39323 3.72335 9.92639C4.10541 10.4595 4.64505 10.8625 5.26795 11.0805L5.48564 11.1567V10.9261V7.16598V7.00234H5.322H3.29851H3.13488V7.16598L3.13488 8.10251ZM19.6501 8.10271V8.10251V7.16598V7.00234H19.4864H17.4629H17.2993V7.16598V10.9271V11.1578L17.517 11.0815C17.975 10.921 18.3878 10.6606 18.7262 10.3221C18.8481 10.2001 18.9603 10.0679 19.0615 9.9267C19.4436 9.39341 19.6492 8.75629 19.6501 8.10271Z"
        fill="#2C3034" stroke="#2C3034" stroke-width="0.327273" />
    <path d="M21.6735 5.23694L22.6023 4.30814V6.7787L21.6735 7.7075V5.23694Z" fill="#2C3034" stroke="#2C3034"
        stroke-width="0.327273" stroke-linejoin="round" />
    <path d="M17.8579 5.00552L18.7867 4.07672H22.3709L21.4421 5.00552H17.8579Z" fill="#2C3034" stroke="#2C3034"
        stroke-width="0.327273" stroke-linejoin="round" />
    <path d="M17.6265 3.17834L18.5553 2.24955V3.84548L17.6265 4.77428V3.17834Z" fill="#2C3034" stroke="#2C3034"
        stroke-width="0.327273" stroke-linejoin="round" />
    <path d="M20.5789 6.77891L19.6501 7.7077V7.23401L20.5789 6.30521V6.77891Z" fill="#2C3034" stroke="#2C3034"
        stroke-width="0.327273" stroke-linejoin="round" />
    <path d="M17.8579 7.00259L18.7867 6.07379H20.3474L19.4186 7.00259H17.8579Z" fill="#2C3034" stroke="#2C3034"
        stroke-width="0.327273" stroke-linejoin="round" />
    <path
        d="M22.5846 7.25955C22.4862 8.3939 21.9862 9.41356 21.2253 10.1849C21.5044 9.56878 21.6636 8.88814 21.6731 8.17098L22.5846 7.25955Z"
        fill="#2C3034" stroke="#2C3034" stroke-width="0.327273" stroke-linejoin="round" />
    <path
        d="M19.5125 9.01617C19.5962 8.74338 19.6425 8.45927 19.6492 8.17136L20.5452 7.27532C20.4784 7.70292 20.3129 8.11181 20.0592 8.4695L19.5125 9.01617Z"
        fill="#2C3034" stroke="#2C3034" stroke-width="0.327273" stroke-linejoin="round" />
    <mask id="path-9-inside-1_118_9558" fill="white">
        <path
            d="M19.8665 8.95067C19.9822 8.83495 20.0887 8.70963 20.1846 8.57568L18.9285 9.83176C18.8326 9.9657 18.7261 10.091 18.6105 10.2067L19.8665 8.95067Z" />
    </mask>
    <path
        d="M19.8665 8.95067C19.9822 8.83495 20.0887 8.70963 20.1846 8.57568L18.9285 9.83176C18.8326 9.9657 18.7261 10.091 18.6105 10.2067L19.8665 8.95067Z"
        fill="#2C3034" />
    <path
        d="M20.1846 8.57568L20.4507 8.76628C20.5499 8.62778 20.5262 8.43633 20.3963 8.32612C20.2664 8.2159 20.0737 8.2238 19.9532 8.34427L20.1846 8.57568ZM19.8665 8.95067L20.098 9.18208L20.098 9.18202L19.8665 8.95067ZM18.6105 10.2067L18.379 9.97538C18.2512 10.1032 18.2513 10.3104 18.3791 10.4382C18.5069 10.566 18.7141 10.566 18.8419 10.4382L18.6105 10.2067ZM18.9285 9.83176L18.6971 9.60034C18.6845 9.61298 18.6729 9.62663 18.6625 9.64116L18.9285 9.83176ZM19.9186 8.38509C19.8331 8.50444 19.7382 8.61614 19.6351 8.71931L20.098 9.18202C20.2262 9.05376 20.3442 8.91482 20.4507 8.76628L19.9186 8.38509ZM19.6351 8.71925L18.3791 9.97532L18.8419 10.4382L20.098 9.18208L19.6351 8.71925ZM18.842 10.4381C18.9701 10.3098 19.0882 10.1709 19.1946 10.0223L18.6625 9.64116C18.577 9.76051 18.4821 9.87221 18.379 9.97538L18.842 10.4381ZM19.16 10.0632L20.416 8.8071L19.9532 8.34427L18.6971 9.60034L19.16 10.0632Z"
        fill="#2C3034" mask="url(#path-9-inside-1_118_9558)" />
    <path d="M17.6265 7.23401L18.5553 6.30521V9.60347L17.6265 10.5323V7.23401Z" fill="#2C3034" stroke="#2C3034"
        stroke-width="0.327273" stroke-linejoin="round" />
    <path d="M5.71707 2.94693L6.64587 2.01813H18.324L17.3952 2.94693H5.71707Z" fill="#2C3034" stroke="#2C3034"
        stroke-width="0.327273" stroke-linejoin="round" />
    <mask id="path-13-inside-2_118_9558" fill="white">
        <path
            d="M18.719 9.67137C19.1532 9.51919 19.5445 9.27242 19.8653 8.95184L18.6104 10.2068C18.2894 10.5279 17.8976 10.7751 17.4629 10.9274L18.719 9.67137Z" />
    </mask>
    <path
        d="M18.719 9.67137C19.1532 9.51919 19.5445 9.27242 19.8653 8.95184L18.6104 10.2068C18.2894 10.5279 17.8976 10.7751 17.4629 10.9274L18.719 9.67137Z"
        fill="#2C3034" />
    <path
        d="M19.7507 8.83502C19.7504 8.83537 19.75 8.83573 19.7496 8.8361L19.981 9.06757C19.9814 9.06718 19.9818 9.06677 19.9822 9.06635L19.7507 8.83502ZM19.8653 8.95184L20.0967 9.18325C20.2245 9.05546 20.2245 8.84827 20.0968 8.72045C19.969 8.59264 19.7618 8.5926 19.634 8.72036L19.8653 8.95184ZM18.719 9.67137L18.6107 9.36251C18.5644 9.37876 18.5223 9.40522 18.4875 9.43995L18.719 9.67137ZM17.4629 10.9274L17.2315 10.696C17.1235 10.804 17.1045 10.9723 17.1858 11.1016C17.2671 11.2309 17.427 11.2868 17.5711 11.2363L17.4629 10.9274ZM18.6104 10.2068L18.379 9.97534L18.3789 9.9754L18.6104 10.2068ZM19.634 8.72036C19.3479 9.00622 18.9986 9.22656 18.6107 9.36251L18.8272 9.98022C19.3077 9.81182 19.7412 9.53862 20.0967 9.18332L19.634 8.72036ZM18.4875 9.43995L17.2315 10.696L17.6943 11.1589L18.9504 9.90278L18.4875 9.43995ZM17.5711 11.2363C18.0522 11.0677 18.4861 10.794 18.8419 10.4381L18.3789 9.9754C18.0927 10.2618 17.743 10.4825 17.3546 10.6186L17.5711 11.2363ZM18.8418 10.4382L20.0967 9.18325L19.6339 8.72042L18.379 9.97534L18.8418 10.4382Z"
        fill="#2C3034" mask="url(#path-13-inside-2_118_9558)" />
    <path
        d="M19.9116 11.4983C19.2906 12.1072 18.5042 12.5536 17.6256 12.7679L18.4682 11.9253C18.9764 11.8511 19.4613 11.7052 19.9116 11.4983Z"
        fill="#2C3034" stroke="#2C3034" stroke-width="0.327273" stroke-linejoin="round" />
    <path
        d="M17.9063 12.4873C17.665 12.9535 17.3609 13.3858 17.0021 13.7722C17.1063 13.5596 17.1982 13.3407 17.2773 13.1163L17.9063 12.4873Z"
        fill="#2C3034" stroke="#2C3034" stroke-width="0.327273" stroke-linejoin="round" />
    <path d="M5.48566 4.77428V3.17834L6.41446 2.24955V3.84548L5.48566 4.77428Z" fill="#2C3034" stroke="#2C3034"
        stroke-width="0.327273" stroke-linejoin="round" />
    <mask id="path-18-inside-3_118_9558" fill="white">
        <path
            d="M16.9657 14.0459C16.8426 14.1689 16.7138 14.287 16.5797 14.3996L15.3236 15.6556C15.4577 15.543 15.5865 15.425 15.7096 15.302L16.9657 14.0459Z" />
    </mask>
    <path
        d="M16.9657 14.0459C16.8426 14.1689 16.7138 14.287 16.5797 14.3996L15.3236 15.6556C15.4577 15.543 15.5865 15.425 15.7096 15.302L16.9657 14.0459Z"
        fill="#2C3034" />
    <path
        d="M16.5797 14.3996L16.3692 14.1489C16.362 14.155 16.355 14.1614 16.3483 14.1681L16.5797 14.3996ZM16.9657 14.0459L17.1971 14.2773C17.3249 14.1495 17.3249 13.9423 17.1971 13.8145C17.0693 13.6867 16.8621 13.6867 16.7343 13.8144L16.9657 14.0459ZM15.7096 15.302L15.9409 15.5335L15.941 15.5334L15.7096 15.302ZM15.3236 15.6556L15.0922 15.4242C14.9683 15.5481 14.964 15.7476 15.0823 15.8768C15.2007 16.0059 15.3998 16.0189 15.534 15.9063L15.3236 15.6556ZM16.7901 14.6502C16.9315 14.5315 17.0672 14.4071 17.197 14.2774L16.7343 13.8144C16.6179 13.9308 16.4961 14.0424 16.3692 14.1489L16.7901 14.6502ZM16.7342 13.8145L15.4782 15.0706L15.941 15.5334L17.1971 14.2773L16.7342 13.8145ZM15.4782 15.0705C15.3618 15.1868 15.24 15.2985 15.1132 15.405L15.534 15.9063C15.6754 15.7876 15.8111 15.6632 15.9409 15.5335L15.4782 15.0705ZM15.555 15.887L16.8111 14.631L16.3483 14.1681L15.0922 15.4242L15.555 15.887Z"
        fill="#2C3034" mask="url(#path-18-inside-3_118_9558)" />
    <path d="M1.67008 5.00552L2.59888 4.07672H6.18302L5.25422 5.00552H1.67008Z" fill="#2C3034" stroke="#2C3034"
        stroke-width="0.327273" stroke-linejoin="round" />
    <path
        d="M12.9116 16.7228L13.7392 15.8952C14.3108 15.7948 14.8629 15.6165 15.3804 15.3672L15.2129 15.5347C14.5431 16.0957 13.7565 16.5007 12.9116 16.7228Z"
        fill="#2C3034" stroke="#2C3034" stroke-width="0.327273" stroke-linejoin="round" />
    <path d="M3.69351 7.00259L4.62231 6.07379H6.18297L5.25417 7.00259H3.69351Z" fill="#2C3034" stroke="#2C3034"
        stroke-width="0.327273" stroke-linejoin="round" />
    <path d="M5.48566 10.5313V7.23401L6.41446 6.30521V9.60247L5.48566 10.5313Z" fill="#2C3034" stroke="#2C3034"
        stroke-width="0.327273" stroke-linejoin="round" />
    <path d="M3.4621 7.23401L4.3909 6.30521V6.77891L3.4621 7.7077V7.23401Z" fill="#2C3034" stroke="#2C3034"
        stroke-width="0.327273" stroke-linejoin="round" />
    <path d="M12.5678 17.0665L13.4966 16.1377V16.7632L12.5678 17.692V17.0665Z" fill="#2C3034" stroke="#2C3034"
        stroke-width="0.327273" stroke-linejoin="round" />
    <path d="M14.8228 19.9201L15.7516 18.9913H16.3005L15.3717 19.9201H14.8228Z" fill="#2C3034" stroke="#2C3034"
        stroke-width="0.327273" stroke-linejoin="round" />
    <path d="M1.43866 7.7075V5.23694L2.36746 4.30814V6.7787L1.43866 7.7075Z" fill="#2C3034" stroke="#2C3034"
        stroke-width="0.327273" stroke-linejoin="round" />
    <path
        d="M3.46298 8.16965L4.41356 7.21907C4.47112 7.69432 4.63732 8.15151 4.90069 8.55551L3.88173 9.57447C3.62016 9.15097 3.47544 8.66659 3.46298 8.16965Z"
        fill="#2C3034" stroke="#2C3034" stroke-width="0.327273" stroke-linejoin="round" />
    <path d="M15.6031 20.1515L16.5319 19.2227V20.7567L15.6031 21.6855V20.1515Z" fill="#2C3034" stroke="#2C3034"
        stroke-width="0.327273" stroke-linejoin="round" />
    <path
        d="M4.07262 9.84639L5.0959 8.82311C5.41435 9.21495 5.82252 9.52592 6.28614 9.73068L5.28037 10.7364C4.80431 10.5508 4.38748 10.2434 4.07262 9.84639Z"
        fill="#2C3034" stroke="#2C3034" stroke-width="0.327273" stroke-linejoin="round" />
    <path
        d="M13.2343 19.4928L14.2581 18.469C14.5608 18.7262 14.9281 18.8956 15.319 18.9609L14.3612 19.9188C13.9469 19.9042 13.5505 19.7536 13.2343 19.4928Z"
        fill="#2C3034" stroke="#2C3034" stroke-width="0.327273" stroke-linejoin="round" />
    <path
        d="M12.569 18.1537L13.5278 17.1949C13.5944 17.58 13.7659 17.9415 14.0251 18.2394L13.0011 19.2634C12.7365 18.9516 12.584 18.5612 12.569 18.1537Z"
        fill="#2C3034" stroke="#2C3034" stroke-width="0.327273" stroke-linejoin="round" />
    <path
        d="M2.38162 7.22758C2.55503 9.55132 4.30239 11.4323 6.56533 11.8801L5.592 12.8534C3.26615 12.5003 1.47241 10.5476 1.43913 8.17006L2.38162 7.22758Z"
        fill="#2C3034" stroke="#2C3034" stroke-width="0.327273" stroke-linejoin="round" />
    <path d="M11.4732 16.7632L10.5444 17.692V17.0665L11.4732 16.1377V16.7632Z" fill="#2C3034" stroke="#2C3034"
        stroke-width="0.327273" stroke-linejoin="round" />
    <path
        d="M8.72832 14.6199C9.47946 15.2202 10.3611 15.6393 11.3031 15.845L10.3251 16.823C9.36585 16.6489 8.46586 16.2432 7.70518 15.643L8.72832 14.6199Z"
        fill="#2C3034" stroke="#2C3034" stroke-width="0.327273" stroke-linejoin="round" />
    <path
        d="M5.83859 13.0697L6.84093 12.0673C7.19357 12.9628 7.75392 13.7646 8.47723 14.4082L7.45299 15.4324C6.72494 14.7889 6.17016 13.977 5.83859 13.0697Z"
        fill="#2C3034" stroke="#2C3034" stroke-width="0.327273" stroke-linejoin="round" />
    <path
        d="M11.4156 17.2837C11.3339 17.5998 11.1673 17.8917 10.9292 18.1266L10.9292 18.1266L10.9284 18.1273L10.4901 18.5657C10.5208 18.432 10.5388 18.2949 10.5433 18.156L11.4156 17.2837Z"
        fill="#2C3034" stroke="#2C3034" stroke-width="0.327273" stroke-linejoin="round" />
    <path d="M7.74051 21.9171L8.66931 20.9883H16.3004L15.3716 21.9171H7.74051Z" fill="#2C3034" stroke="#2C3034"
        stroke-width="0.327273" stroke-linejoin="round" />
    <path
        d="M10.1238 18.9315L9.67306 19.3823C9.67294 19.3824 9.67281 19.3825 9.67269 19.3826C9.43196 19.6201 9.13184 19.7858 8.80654 19.8657L9.6821 18.9901C9.83196 18.9855 9.97992 18.9656 10.1238 18.9315Z"
        fill="#2C3034" stroke="#2C3034" stroke-width="0.327273" stroke-linejoin="round" />
    <path d="M7.74051 19.9201L8.66931 18.9913H9.21822L8.28942 19.9201H7.74051Z" fill="#2C3034" stroke="#2C3034"
        stroke-width="0.327273" stroke-linejoin="round" />
    <path d="M7.5091 21.6855V20.1515L8.43789 19.2227V20.7567L7.5091 21.6855Z" fill="#2C3034" stroke="#2C3034"
        stroke-width="0.327273" stroke-linejoin="round" />
    <path
        d="M18.5009 3.91326V4.13144H18.719H22.5478V6.84665C22.5478 9.25313 20.7228 11.2351 18.362 11.5547L18.2289 11.5727L18.185 11.6997C17.8451 12.6833 17.2421 13.5584 16.4394 14.2323C15.6367 14.9062 14.6641 15.3538 13.6244 15.5275L13.4421 15.5579V15.7427V16.831C13.4421 17.4194 13.679 17.9831 14.0997 18.3983C14.5203 18.8133 15.0902 19.046 15.6838 19.046H16.4774V20.6065H8.81977V19.046H9.61334C10.2069 19.046 10.7768 18.8133 11.1974 18.3983C11.6181 17.9831 11.855 17.4194 11.855 16.831V15.7427V15.5579L11.6728 15.5275C10.633 15.3538 9.66043 14.9062 8.8577 14.2323C8.055 13.5584 7.45202 12.6833 7.11213 11.6997L7.06826 11.5727L6.93518 11.5547C4.57438 11.2351 2.74931 9.25313 2.74931 6.84665V4.13144H6.5781H6.79629V3.91326V2.07267H18.5009V3.91326ZM4.33643 6.84665L4.33643 6.84689C4.33716 7.51182 4.54643 8.15995 4.93511 8.70231C5.32376 9.24463 5.87263 9.65449 6.50604 9.87615L6.79629 9.97772V9.67021V5.91012V5.69194H6.5781H4.55462H4.33643V5.91012L4.33643 6.84665ZM20.9607 6.84692V6.84665V5.91012V5.69194H20.7425H18.719H18.5009V5.91012V9.67121V9.97887L18.7912 9.87712C19.4246 9.65514 19.9734 9.24506 20.362 8.70261C20.7506 8.16012 20.9599 7.51192 20.9607 6.84692Z"
        fill="#FDBF1C" stroke="#25282B" stroke-width="0.436364" />
</svg>