<svg width="22" height="22" viewBox="0 0 16 16" fill="#fff" xmlns="http://www.w3.org/2000/svg">
    <path fill-rule="evenodd" clip-rule="evenodd" d="M1.46781 0.0122102C1.05053 0.0684512 0.66935 0.281323 0.393107 0.612403C0.183912 0.863113 0.0482824 1.18039 0.00805128 1.51311C0.00250739 1.55896 -0.000108551 3.66323 3.44688e-06 8.00369C0.000131444 13.485 0.00181141 14.4387 0.0114352 14.5105C0.115465 15.2859 0.713197 15.8843 1.48781 15.9884C1.58663 16.0017 1.79975 16.0035 1.89601 15.9918C2.27357 15.946 2.61468 15.7847 2.88681 15.5233C3.00304 15.4116 3.06342 15.3332 3.26615 15.031C3.36513 14.8835 4.13405 13.7411 4.97486 12.4924C5.81568 11.2438 6.51447 10.2005 6.52774 10.1741C6.541 10.1477 6.55593 10.1029 6.5609 10.0745C6.58639 9.92921 6.49888 9.77183 6.35215 9.69911C6.29423 9.6704 6.29011 9.66958 6.20321 9.66958C6.11448 9.66958 6.11339 9.66982 6.05255 9.70162C6.0007 9.72872 5.73605 9.95472 4.33298 11.1701C3.42092 11.9602 2.66414 12.6121 2.65124 12.6189C2.59969 12.646 2.52958 12.628 2.49442 12.5787L2.47579 12.5525V8.03851V3.52453L2.49254 3.50192C2.53389 3.44612 2.61378 3.42738 2.6646 3.46155C2.67956 3.4716 3.96738 5.00766 5.52642 6.87501C9.66405 11.8308 10.5839 12.9327 11.6798 14.2462C12.2218 14.8959 12.6982 15.4611 12.7384 15.5022C12.9585 15.7271 13.2221 15.8768 13.5316 15.9526C13.6981 15.9935 13.7777 16 14.1083 16C14.4276 16 14.5096 15.9945 14.6555 15.9632C15.1639 15.8542 15.5965 15.5144 15.8272 15.043C15.9126 14.8686 15.9705 14.6711 15.991 14.4848C16.003 14.3751 16.003 1.62464 15.991 1.51501C15.9193 0.86236 15.4619 0.295033 14.8399 0.0874384C14.6541 0.0253995 14.4952 9.3885e-05 14.2915 9.3885e-05C13.9062 9.3885e-05 13.5515 0.116916 13.2502 0.343122C13.1581 0.412304 13.0219 0.54443 12.9485 0.63581C12.8669 0.737401 9.46277 5.79988 9.44044 5.85283C9.36931 6.02152 9.4587 6.22138 9.6439 6.3077C9.68175 6.32534 9.70601 6.33055 9.76095 6.33285C9.84291 6.33628 9.89622 6.32312 9.95709 6.28446C9.97989 6.26998 10.7406 5.61127 11.6476 4.82067C12.5546 4.03007 13.3125 3.37467 13.3319 3.36425C13.3955 3.32996 13.4656 3.35485 13.4964 3.42262C13.5108 3.45429 13.5112 3.59201 13.5114 7.95215L13.5116 12.449L13.4936 12.4847C13.4625 12.5465 13.3796 12.5743 13.3219 12.5425C13.3079 12.5348 13.2665 12.4924 13.2297 12.4484C13.193 12.4044 12.5959 11.689 11.9029 10.8588C11.2098 10.0285 8.99286 7.37265 6.97632 4.95681C4.9598 2.54096 3.27702 0.530752 3.23684 0.489678C2.97793 0.225058 2.6436 0.0599466 2.26939 0.0119059C2.14457 -0.00412639 1.58743 -0.00391017 1.46781 0.0122102Z"  />
</svg>
