<svg width="24" height="24" viewBox="0 0 24 24" fill="#2C3034" xmlns="http://www.w3.org/2000/svg">
    <path fill-rule="evenodd" clip-rule="evenodd" d="M4 4.88889C4 4.39797 4.39797 4 4.88889 4H11.1111V11.1111H4V4.88889ZM5.77778 5.77604V9.3316H9.33333V5.77604H5.77778Z"  />
    <path fill-rule="evenodd" clip-rule="evenodd" d="M19.1111 4H12.8889V11.1111H20V4.88889C20 4.39797 19.602 4 19.1111 4ZM14.6667 5.77604V9.3316H18.2222V5.77604H14.6667Z"  />
    <path fill-rule="evenodd" clip-rule="evenodd" d="M11.1111 12.8889H4V19.1111C4 19.602 4.39797 20 4.88889 20H11.1111V12.8889ZM5.77778 14.6667V18.2222H9.33333V14.6667H5.77778Z"  />
    <path fill-rule="evenodd" clip-rule="evenodd" d="M16.4444 12.8889H12.8889V14.6667H16.4444V16.4444H12.8889V20H14.6667V18.2222H16.4444V20H19.1111C19.602 20 20 19.602 20 19.1111V16.4444H18.2222V14.6667H20V12.8889H18.2222V14.6667H16.4444V12.8889ZM18.2222 18.2222H16.4444V16.4444H18.2222V18.2222Z"  />
</svg>
