<svg width="24" height="24" viewBox="0 0 24 24" fill="none" xmlns="http://www.w3.org/2000/svg">
<circle cx="12" cy="12" r="9.25" stroke="#6B6661" stroke-width="1.5"/>
<path d="M10.9264 16.9859C10.9264 17.5754 11.4106 18.0595 12 18.0595C12.6105 18.0595 13.0737 17.5752 13.0737 16.9859C13.0737 16.3964 12.5895 15.9122 12 15.9122C11.4106 15.9122 10.9264 16.3964 10.9264 16.9859Z" fill="#6B6661"/>
<path d="M12.8632 12.8595C12.8632 12.7122 12.9474 12.5859 13.0527 12.5438C14.6737 12.0175 15.6211 10.4174 15.3265 8.71206C15.0949 7.36469 13.9792 6.22794 12.6108 5.99635C11.6002 5.80691 10.5897 6.08067 9.83179 6.73327C9.07389 7.36488 8.63171 8.31221 8.63171 9.3227C8.63171 9.78586 9.01059 10.1647 9.47374 10.1647C9.9369 10.1647 10.3158 9.78586 10.3158 9.3227C10.3158 8.83853 10.5264 8.35435 10.9474 8.01733C11.3264 7.7016 11.8316 7.5753 12.3369 7.65945C13.0105 7.78576 13.558 8.33306 13.6843 9.00682C13.8527 9.97531 13.2422 10.6911 12.5475 10.9226C11.7265 11.1964 11.1792 11.9753 11.1792 12.8595V13.9331C11.1792 14.3963 11.558 14.7752 12.0212 14.7752C12.4843 14.7752 12.8632 14.3963 12.8632 13.9331V12.8595Z" fill="#6B6661"/>
<path fill-rule="evenodd" clip-rule="evenodd" d="M12 21.9964C17.5229 21.9964 22 17.5192 22 11.9964C22 9.36212 20.9815 6.96578 19.3167 5.17969C21.2753 7.00521 22.5 9.60775 22.5 12.4964C22.5 18.0192 18.0229 22.4964 12.5 22.4964C9.61142 22.4964 7.00887 21.2716 5.18335 19.313C6.96944 20.9778 9.36578 21.9964 12 21.9964Z" fill="#6B6661"/>
</svg>
