<svg width="24" height="24" viewBox="0 0 24 24" fill="#2C3034" xmlns="http://www.w3.org/2000/svg">
<path fill-rule="evenodd" clip-rule="evenodd" d="M18.3997 12.4422L18.3997 12.4443C18.4137 12.8724 18.783 13.1987 19.2248 13.1729C19.6643 13.1472 20.014 12.7698 19.9996 12.3456L19.9992 12.3332L19.9974 12.288C19.9958 12.2492 19.9933 12.1938 19.9897 12.1252C19.9825 11.9882 19.9708 11.7973 19.9527 11.5805C19.9175 11.1584 19.8548 10.596 19.742 10.1446C19.4942 9.15311 19.2146 8.41588 18.6629 7.6246C18.1217 6.84833 17.4205 6.18 16.601 5.65569C15.7816 5.1314 14.8586 4.76039 13.8844 4.56268C12.9103 4.36497 11.9019 4.34399 10.9161 4.50191C9.93035 4.65984 8.98472 4.99394 8.13391 5.4877L8.08101 5.51868L8.08132 5.51228C8.13535 4.38368 7.62956 3.57328 7.40487 3.30286C7.127 2.96844 6.6119 2.9006 6.25438 3.15135C5.89686 3.40209 5.83228 3.87646 6.11014 4.21088L6.11015 4.2109L6.116 4.21843C6.11995 4.22365 6.12529 4.23096 6.13183 4.24038C6.14496 4.2593 6.16181 4.28512 6.1809 4.31752C6.21917 4.38249 6.26431 4.47027 6.30634 4.57776C6.39033 4.79252 6.45942 5.07926 6.44314 5.41933C6.41201 6.0696 6.05929 7.0625 4.51547 8.20461C4.44859 8.25311 4.39222 8.30976 4.34681 8.372C4.21866 8.54744 4.17875 8.76599 4.23325 8.97116C4.26147 9.07742 4.31501 9.18009 4.39472 9.27133C4.67181 9.5885 5.1637 9.65146 5.51282 9.42141C6.99426 8.46567 8.14333 8.39348 8.89773 8.52602C9.28807 8.59461 9.59949 8.7226 9.82101 8.8445C10.0059 8.94623 10.1034 9.02943 10.13 9.05216L10.13 9.05217C10.138 9.059 10.1396 9.06037 10.1352 9.05511C10.4131 9.38954 10.9282 9.45737 11.2857 9.20662C11.6432 8.95588 11.7078 8.4815 11.4299 8.14708C11.2756 7.96133 10.9924 7.74034 10.6425 7.54784C10.2737 7.34489 9.78036 7.14516 9.17731 7.03921C9.01265 7.01028 8.84158 6.98864 8.66445 6.97564C8.74995 6.92008 8.83719 6.86647 8.92609 6.81487C9.59487 6.42675 10.3443 6.16067 11.1323 6.03442C11.9204 5.90817 12.7298 5.92455 13.5136 6.08363C14.2974 6.2427 15.0381 6.54091 15.6932 6.96007C16.3483 7.37919 16.9034 7.91004 17.3288 8.52024C17.7438 9.11542 17.9647 9.6679 18.1856 10.5516C18.2677 10.8803 18.323 11.3426 18.357 11.7502C18.3736 11.9483 18.3843 12.1235 18.3909 12.2489C18.3942 12.3115 18.3964 12.3613 18.3978 12.3951L18.3993 12.4331L18.3997 12.4422ZM5.60718 11.7511C5.6039 11.6885 5.60166 11.6387 5.60026 11.6049C5.58331 11.1661 5.23888 10.7999 4.77326 10.8271C4.30332 10.8545 3.98322 11.2676 4.00068 11.712C4.00229 11.7508 4.00478 11.8062 4.00838 11.8748C4.01558 12.0118 4.02729 12.2027 4.04538 12.4195C4.08061 12.8416 4.14331 13.404 4.25611 13.8554C4.50392 14.8469 4.78354 15.5841 5.33518 16.3754C5.87635 17.1517 6.57759 17.82 7.39705 18.3443C8.21646 18.8686 9.13951 19.2396 10.1137 19.4373C11.0878 19.635 12.0962 19.656 13.082 19.4981C14.0882 19.3369 15.0533 18.9917 15.9171 18.4813L15.9168 18.4877C15.8627 19.6163 16.3685 20.4267 16.5932 20.6971C16.8711 21.0316 17.3862 21.0994 17.7437 20.8486C18.1012 20.5979 18.1658 20.1235 17.8879 19.7891C17.6385 19.4489 17.5351 18.9964 17.555 18.5807C17.5861 17.9304 17.9388 16.9375 19.4826 15.7954C19.5495 15.7469 19.6059 15.6902 19.6513 15.628C19.8458 15.3617 19.837 14.9961 19.6034 14.7287C19.3263 14.4115 18.8344 14.3485 18.4853 14.5786C17.0038 15.5343 15.8548 15.6065 15.1004 15.474C14.71 15.4054 14.3986 15.2774 14.1771 15.1555C14.0707 15.097 13.9682 15.0254 13.8665 14.9544C13.5153 14.7093 13.1729 14.4704 12.7124 14.7934C12.6963 14.8046 12.6797 14.8162 12.6627 14.8281C12.2999 15.0814 11.7346 15.476 12 15.7954C12.1543 15.9811 12.77 16.3466 13.3133 16.5722C13.8347 16.7887 14.1699 16.8471 14.7013 16.9399C14.7401 16.9467 14.7798 16.9536 14.8208 16.9608C14.9854 16.9897 15.1565 17.0114 15.3337 17.0244C14.6049 17.4979 13.7585 17.8225 12.8658 17.9656C12.0777 18.0918 11.2683 18.0754 10.4845 17.9164C9.70067 17.7573 8.95999 17.4591 8.30489 17.0399C7.64983 16.6208 7.09467 16.09 6.66928 15.4798C6.25435 14.8846 6.03339 14.3321 5.81251 13.4484C5.73038 13.1197 5.67508 12.6574 5.64105 12.2498C5.62452 12.0517 5.61377 11.8765 5.60718 11.7511Z" />
</svg>
