<svg width="24" height="24" viewBox="0 0 24 24" fill="none" xmlns="http://www.w3.org/2000/svg">
<path fill-rule="evenodd" clip-rule="evenodd" d="M12 20.5001C16.6944 20.5001 20.5 16.6945 20.5 12.0001C20.5 7.30567 16.6944 3.50009 12 3.50009C7.30558 3.50009 3.5 7.30567 3.5 12.0001C3.5 16.6945 7.30558 20.5001 12 20.5001ZM2 12.0001C2 14.8888 3.22486 17.4914 5.18354 19.317C7.00905 21.2754 9.61152 22.5001 12.5 22.5001C18.0229 22.5001 22.3654 18.0213 22.5 12.5001C22.6414 6.70281 17.7973 1.85869 12 2.00009C6.47879 2.13476 2 6.47724 2 12.0001Z" fill="#2C3034"/>
<path d="M10.4706 8.44923L9.61448 8.33345L9.62014 9.19737L9.63325 11.2002L9.63762 11.8677L8.01598 13.0032L7.40161 13.4334L7.83179 14.0478L7.8318 14.0478L8.98585 15.6959L8.98585 15.6959L9.41603 16.3103L10.0304 15.8801L11.652 14.7446L12.2778 14.977L14.1554 15.6744L14.9653 15.9751L15.1493 15.131L16.2571 10.0492L16.4303 9.25517L15.6249 9.14625L10.4706 8.44923Z" fill="#FDBF1E" stroke="#2C3034" stroke-width="1.5"/>
</svg>
