<svg width="24" height="24" viewBox="0 0 24 24" fill="none" xmlns="http://www.w3.org/2000/svg">
<path fill-rule="evenodd" clip-rule="evenodd" d="M6.36891 14.1311C5.51679 13.1624 5 11.8916 5 10.5C5 7.46243 7.46243 5 10.5 5C11.8916 5 13.1624 5.51679 14.1311 6.36891C13.1231 5.22307 11.646 4.5 10 4.5C6.96243 4.5 4.5 6.96243 4.5 10C4.5 11.646 5.22307 13.1231 6.36891 14.1311ZM17 10C17 13.866 13.866 17 10 17C8.19421 17 6.54812 16.3162 5.30653 15.1935C6.58747 16.61 8.4398 17.5 10.5 17.5C14.366 17.5 17.5 14.366 17.5 10.5C17.5 8.4398 16.61 6.58747 15.1935 5.30653C16.3162 6.54812 17 8.19421 17 10Z" fill="#2C3034"/>
<circle cx="10" cy="10" r="6.25" stroke="#2C3034" stroke-width="1.5"/>
<line x1="14.4142" y1="15" x2="19" y2="19.5858" stroke="#2C3034" stroke-width="2" stroke-linecap="round"/>
</svg>
