<svg viewBox="0 0 24 24" fill="#2C3034" xmlns="http://www.w3.org/2000/svg">
    <path
        d="M22.8076 17.7167C22.7791 18.4385 22.4664 19.1199 21.9376 19.6124C21.4088 20.1048 20.7067 20.3684 19.9843 20.3457H14.1026C14.0465 20.3469 13.9912 20.3321 13.9433 20.303C13.8954 20.2739 13.8567 20.2317 13.832 20.1814C13.8073 20.131 13.7975 20.0747 13.8037 20.019C13.81 19.9633 13.8321 19.9105 13.8673 19.8669C14.1018 19.5593 14.2913 19.2199 14.4303 18.859C14.451 18.8022 14.4888 18.7532 14.5384 18.7186C14.588 18.684 14.6471 18.6656 14.7076 18.6658H19.9675C20.2445 18.6892 20.5196 18.6028 20.7334 18.4253C20.9472 18.2477 21.0826 17.9931 21.1103 17.7167C21.1291 17.3206 21.0639 16.9251 20.9191 16.5559C20.7743 16.1868 20.5531 15.8525 20.27 15.5748C18.976 14.2813 16.4553 14.3569 16.4553 14.3569C15.7612 14.3756 15.0735 14.4944 14.4135 14.7096C14.3452 14.7332 14.2706 14.7308 14.204 14.7029C14.1373 14.675 14.0833 14.6236 14.0522 14.5585C13.9025 14.2395 13.7224 13.9357 13.5144 13.6513C13.4865 13.6144 13.4674 13.5716 13.4587 13.5262C13.4499 13.4808 13.4517 13.434 13.4638 13.3894C13.476 13.3448 13.4983 13.3035 13.5289 13.2689C13.5595 13.2342 13.5977 13.207 13.6404 13.1893C14.5425 12.8589 15.4946 12.6857 16.4553 12.677C16.5477 12.677 19.6398 12.5846 21.4968 14.3569C21.9389 14.7936 22.2841 15.3184 22.51 15.8973C22.7358 16.4761 22.8372 17.096 22.8076 17.7167Z" />
    <path
        d="M10.7669 20.3448H3.85158C3.47428 20.3437 3.10093 20.268 2.75309 20.1219C2.40524 19.9757 2.0898 19.7622 1.82496 19.4935C1.56013 19.2249 1.35114 18.9065 1.21008 18.5567C1.06903 18.2068 0.998682 17.8325 1.00312 17.4554C0.978941 16.7689 1.09542 16.0847 1.3454 15.4448C1.59537 14.805 1.97357 14.2229 2.45676 13.7345C3.76156 12.5962 5.43044 11.9616 7.16217 11.9454H7.305C9.05095 11.9155 10.7499 12.5114 12.0944 13.6253C12.5935 14.1136 12.9857 14.7002 13.246 15.348C13.5064 15.9957 13.6292 16.6905 13.6069 17.3882C13.6169 17.7694 13.5512 18.1487 13.4135 18.5043C13.2758 18.8598 13.0689 19.1845 12.8047 19.4596C12.5405 19.7346 12.2243 19.9544 11.8745 20.1064C11.5247 20.2583 11.1482 20.3394 10.7669 20.3448ZM7.305 13.6253H7.21258C6.38602 13.6471 5.57091 13.8238 4.80948 14.146C4.1452 14.4085 3.58182 14.8756 3.20109 15.4798C2.82035 16.0839 2.64204 16.7935 2.69203 17.5058C2.69638 17.8119 2.81994 18.1042 3.03646 18.3206C3.25299 18.5371 3.54541 18.6606 3.85158 18.6649H10.7584C11.0682 18.6649 11.3653 18.5419 11.5843 18.323C11.8033 18.104 11.9264 17.8071 11.9264 17.4974C11.9548 17.0149 11.882 16.5318 11.7127 16.0791C11.5434 15.6263 11.2813 15.214 10.9433 14.8684C9.91028 14.0469 8.6249 13.6077 7.305 13.6253Z" />
    <path
        d="M7.35551 10.8451C6.57942 10.8451 5.82076 10.6151 5.17547 10.184C4.53017 9.75302 4.02721 9.14036 3.73021 8.42361C3.43321 7.70686 3.35551 6.91819 3.50692 6.15729C3.65832 5.39639 4.03204 4.69746 4.58082 4.14889C5.1296 3.60031 5.8288 3.22672 6.58998 3.07537C7.35115 2.92402 8.14012 3.0017 8.85713 3.29859C9.57414 3.59547 10.187 4.09826 10.6181 4.74332C11.0493 5.38838 11.2795 6.14673 11.2795 6.92254C11.2772 7.96218 10.8631 8.95859 10.1277 9.69373C9.3923 10.4289 8.39553 10.8428 7.35551 10.8451ZM7.35551 4.6799C6.91179 4.6799 6.47802 4.81141 6.10908 5.05783C5.74015 5.30426 5.45261 5.6545 5.28281 6.06429C5.113 6.47408 5.06857 6.92501 5.15513 7.36004C5.2417 7.79507 5.45536 8.19471 5.76911 8.50835C6.08287 8.82199 6.48263 9.03558 6.91782 9.12211C7.35301 9.20865 7.8041 9.1642 8.21404 8.99446C8.62398 8.82472 8.97435 8.53731 9.22086 8.16851C9.46738 7.79971 9.59896 7.36609 9.59896 6.92254C9.59896 6.32775 9.36261 5.7573 8.94188 5.33672C8.52114 4.91614 7.95051 4.6799 7.35551 4.6799Z" />
    <path
        d="M17.0098 11.5758C16.2563 11.5775 15.5192 11.3555 14.892 10.9381C14.2648 10.5206 13.7756 9.92648 13.4865 9.23087C13.1973 8.53527 13.1213 7.7695 13.2679 7.03063C13.4145 6.29176 13.7771 5.613 14.31 5.08037C14.8428 4.54773 15.5218 4.18519 16.2609 4.03864C17.0001 3.89209 17.7661 3.96816 18.462 4.25719C19.1578 4.54621 19.7522 5.03523 20.1698 5.66224C20.5874 6.28924 20.8094 7.02601 20.8078 7.77927C20.8056 8.7855 20.4047 9.7499 19.6929 10.4614C18.9812 11.1729 18.0164 11.5736 17.0098 11.5758ZM17.0098 5.65424C16.589 5.65258 16.1772 5.77579 15.8265 6.00828C15.4758 6.24077 15.202 6.57209 15.0398 6.96024C14.8777 7.3484 14.8344 7.77591 14.9154 8.18868C14.9965 8.60146 15.1983 8.98093 15.4953 9.27896C15.7922 9.577 16.171 9.7802 16.5836 9.86288C16.9962 9.94556 17.4241 9.90397 17.813 9.74338C18.202 9.58279 18.5344 9.3104 18.7684 8.96075C19.0024 8.61111 19.1273 8.19993 19.1273 7.77927C19.1273 7.21712 18.9045 6.67787 18.5076 6.27958C18.1107 5.8813 17.5722 5.65646 17.0098 5.65424Z" />
</svg>