<svg width="24" height="24" viewBox="0 0 24 24" fill="none" xmlns="http://www.w3.org/2000/svg">
    <path
        d="M10.7669 20.3448H3.85158C3.47428 20.3437 3.10093 20.268 2.75309 20.1219C2.40524 19.9757 2.0898 19.7622 1.82496 19.4935C1.56013 19.2249 1.35114 18.9065 1.21008 18.5567C1.06903 18.2068 0.998682 17.8325 1.00312 17.4554C0.978941 16.7689 1.09542 16.0847 1.3454 15.4448C1.59537 14.805 1.97357 14.2229 2.45676 13.7345C3.76156 12.5962 5.43044 11.9616 7.16217 11.9454H7.305C9.05095 11.9155 10.7499 12.5114 12.0944 13.6253C12.5935 14.1136 12.9857 14.7002 13.246 15.348C13.5064 15.9957 13.6292 16.6905 13.6069 17.3882C13.6169 17.7694 13.5512 18.1487 13.4135 18.5043C13.2758 18.8598 13.0689 19.1845 12.8047 19.4595C12.5405 19.7346 12.2243 19.9544 11.8745 20.1064C11.5247 20.2583 11.1482 20.3394 10.7669 20.3448ZM7.305 13.6253H7.21258C6.38602 13.6471 5.5709 13.8238 4.80948 14.146C4.1452 14.4085 3.58182 14.8756 3.20109 15.4798C2.82035 16.0839 2.64204 16.7935 2.69203 17.5058C2.69638 17.8119 2.81994 18.1042 3.03646 18.3206C3.25298 18.5371 3.5454 18.6606 3.85158 18.6649H10.7584C11.0682 18.6649 11.3653 18.5419 11.5843 18.323C11.8033 18.104 11.9264 17.8071 11.9264 17.4974C11.9548 17.0149 11.882 16.5318 11.7127 16.0791C11.5434 15.6263 11.2813 15.214 10.9433 14.8684C9.91028 14.0469 8.6249 13.6077 7.305 13.6253Z"
        fill="#2C3034" />
    <path
        d="M7.35551 10.8451C6.57942 10.8451 5.82076 10.6151 5.17547 10.184C4.53017 9.75302 4.02721 9.14036 3.73021 8.42361C3.43321 7.70686 3.35551 6.91819 3.50692 6.15729C3.65832 5.39639 4.03204 4.69746 4.58082 4.14889C5.1296 3.60031 5.8288 3.22672 6.58998 3.07537C7.35115 2.92402 8.14011 3.0017 8.85713 3.29859C9.57414 3.59547 10.187 4.09826 10.6181 4.74332C11.0493 5.38837 11.2795 6.14673 11.2795 6.92254C11.2772 7.96218 10.8631 8.95859 10.1277 9.69373C9.3923 10.4289 8.39553 10.8428 7.35551 10.8451ZM7.35551 4.6799C6.91179 4.6799 6.47802 4.81141 6.10908 5.05783C5.74014 5.30426 5.45261 5.6545 5.28281 6.06429C5.113 6.47408 5.06857 6.92501 5.15513 7.36004C5.2417 7.79507 5.45536 8.19471 5.76911 8.50835C6.08287 8.82199 6.48263 9.03558 6.91782 9.12211C7.35301 9.20864 7.8041 9.1642 8.21404 8.99446C8.62398 8.82472 8.97435 8.53731 9.22086 8.16851C9.46738 7.79971 9.59896 7.36609 9.59896 6.92254C9.59896 6.32775 9.36261 5.7573 8.94187 5.33672C8.52114 4.91614 7.95051 4.6799 7.35551 4.6799Z"
        fill="#2C3034" />
    <mask id="mask0_260_13800" style="mask-type:alpha" maskUnits="userSpaceOnUse" x="1" y="3" width="14" height="18">
        <path
            d="M11.2669 20.8419H4.35158C3.97428 20.8408 3.60093 20.765 3.25309 20.6189C2.90524 20.4728 2.5898 20.2593 2.32496 19.9906C2.06013 19.722 1.85114 19.4035 1.71008 19.0537C1.56903 18.7039 1.49868 18.3296 1.50312 17.9525C1.47894 17.266 1.59542 16.5818 1.8454 15.9419C2.09537 15.302 2.47357 14.72 2.95676 14.2315C4.26156 13.0932 5.93044 12.4587 7.66217 12.4424H7.805C9.55095 12.4126 11.2499 13.0085 12.5944 14.1223C13.0935 14.6106 13.4857 15.1973 13.746 15.845C14.0064 16.4928 14.1292 17.1876 14.1069 17.8853C14.1169 18.2665 14.0512 18.6458 13.9135 19.0013C13.7758 19.3569 13.5689 19.6816 13.3047 19.9566C13.0405 20.2316 12.7243 20.4515 12.3745 20.6034C12.0247 20.7554 11.6482 20.8365 11.2669 20.8419ZM7.805 14.1223H7.71258C6.88602 14.1442 6.0709 14.3208 5.30948 14.6431C4.6452 14.9055 4.08182 15.3727 3.70109 15.9768C3.32035 16.581 3.14204 17.2906 3.19203 18.0029C3.19638 18.3089 3.31994 18.6012 3.53646 18.8177C3.75298 19.0341 4.0454 19.1577 4.35158 19.162H11.2584C11.5682 19.162 11.8653 19.039 12.0843 18.82C12.3033 18.6011 12.4264 18.3042 12.4264 17.9945C12.4548 17.512 12.382 17.0289 12.2127 16.5761C12.0434 16.1234 11.7813 15.7111 11.4433 15.3655C10.4103 14.544 9.1249 14.1048 7.805 14.1223Z"
            fill="#6B6661" />
        <path
            d="M7.85551 11.3421C7.07942 11.3421 6.32076 11.1121 5.67547 10.6811C5.03017 10.2501 4.52721 9.63743 4.23021 8.92068C3.93321 8.20393 3.85551 7.41526 4.00692 6.65436C4.15832 5.89346 4.53204 5.19453 5.08082 4.64596C5.6296 4.09738 6.3288 3.7238 7.08998 3.57244C7.85115 3.42109 8.64011 3.49877 9.35713 3.79566C10.0741 4.09254 10.687 4.59533 11.1181 5.24039C11.5493 5.88545 11.7795 6.6438 11.7795 7.41961C11.7772 8.45925 11.3631 9.45566 10.6277 10.1908C9.8923 10.9259 8.89553 11.3399 7.85551 11.3421ZM7.85551 5.17697C7.41179 5.17697 6.97802 5.30848 6.60908 5.5549C6.24014 5.80133 5.95261 6.15157 5.78281 6.56136C5.613 6.97115 5.56857 7.42208 5.65513 7.85711C5.7417 8.29214 5.95536 8.69178 6.26911 9.00542C6.58287 9.31906 6.98263 9.53265 7.41782 9.61918C7.85301 9.70571 8.3041 9.66127 8.71404 9.49153C9.12398 9.32179 9.47435 9.03438 9.72086 8.66558C9.96738 8.29678 10.099 7.86316 10.099 7.41961C10.099 6.82482 9.86261 6.25437 9.44187 5.83379C9.02114 5.41321 8.45051 5.17697 7.85551 5.17697Z"
            fill="#6B6661" />
    </mask>
    <g mask="url(#mask0_260_13800)">
        <path fill-rule="evenodd" clip-rule="evenodd"
            d="M19.8251 6.08432L18.9263 10.1291L15.3909 10.6384L13.4734 7.4026L12.3947 4.55629L10.3574 2.81854L7.99047 2.03955L8.97919 4.40649L10.0877 5.30532L10.3574 7.85202L9.15895 9.58977H3.86529L11.8776 14.4333L12.7076 16.2594V18.5004L11.2966 19.5795L2.87189 19.3304L1.87587 18.1269H-0.32373L0.838343 22.0695H12.9981L14.3262 19.3304L14.0374 22.5675H24.0374L24.8259 13.8938L23.0829 7.08766L22.3773 4.40649L20.2193 3.85058L19.8251 6.08432ZM14.3262 19.3304L21.6718 16.5499L20.4268 14.4333L17.8537 12.8148L12.3947 13.4373L15.7787 16.5499L14.3262 19.3304Z"
            fill="#2C3034" />
    </g>
    <path d="M12 11.6724L22.3906 11.6724" stroke="#2C3034" stroke-width="1.4" stroke-linecap="round" />
    <path d="M22.3905 11.6724C21.7309 11.6724 17.4905 12.0924 17.4905 15.1724" stroke="#2C3034" stroke-width="1.4"
        stroke-linecap="round" />
    <path d="M22.3905 11.6724C21.7309 11.6724 17.4905 11.2524 17.4905 8.17236" stroke="#2C3034" stroke-width="1.4"
        stroke-linecap="round" />
</svg>