<svg width="24" height="24" viewBox="0 0 24 24" fill="none" xmlns="http://www.w3.org/2000/svg">
<path d="M12.4572 18.9677C12.558 18.9517 13.0066 19.0223 13.1003 19.0683L17.8617 21.5898C18.495 21.8244 18.8496 21.38 18.8821 20.8979C18.9146 20.4158 18.0107 15.1953 18.0107 15.1953C17.9887 15.0418 18.039 14.8868 18.1471 14.7756L22.3368 10.4647C22.6467 10.1151 22.4805 9.60938 21.9309 9.50409L16.1023 8.50556C15.9495 8.47913 15.2736 8.50809 15.2013 8.37097L12.4483 2.8797C12.2704 2.54253 11.6719 2.97053 11.4641 3.27281L11.5954 4.36001L12.9244 7.04227L12.9037 7.16775L14.0142 9.27258C14.3759 9.9582 15.0353 10.4372 15.7991 10.5694L18.9211 11.1096L16.7129 13.3817C16.1726 13.9376 15.9208 14.7127 16.0311 15.4799L16.4642 18.4914L16.5454 18.615L16.4809 18.6075L16.4821 18.6161L16.4595 18.605L12.7719 18.1756L12.4572 18.9677Z" fill="#2C3034"/>
<path d="M9.63699 8.62162L12 4.14298L14.3629 8.62162C14.58 9.03299 14.9755 9.3204 15.4338 9.3997L20.4235 10.263L16.8942 13.8943C16.5701 14.2278 16.419 14.6929 16.4852 15.1533L17.206 20.1655L12.6618 17.9311C12.2444 17.7259 11.7555 17.7259 11.3381 17.9311L6.79393 20.1655L7.51473 15.1533C7.58094 14.6929 7.42983 14.2279 7.10567 13.8943L3.57642 10.263L8.56606 9.3997C9.02436 9.3204 9.41995 9.03299 9.63699 8.62162ZM18.0564 20.5836L18.0556 20.5832L18.0564 20.5836Z" stroke="#2C3034" stroke-width="2"/>
</svg>
