<svg width="24px" height="24px" viewBox="0 0 24 24" fill="#FDBF1E" xmlns="http://www.w3.org/2000/svg">
<path d="M11.994 22.01C11.9819 21.9968 11.976 21.9815 11.9654 21.9709C11.7407 21.7454 11.5155 21.5205 11.2904 21.2954C9.49322 19.4982 7.69607 17.7011 5.8988 15.904C5.88587 15.8911 5.87146 15.8796 5.85065 15.8612C6.61105 15.1056 7.36772 14.3536 8.12784 13.5983C9.42157 14.892 10.7152 16.1857 12.009 17.4795C13.3037 16.1849 14.5983 14.8903 15.889 13.5995C16.6477 14.3579 17.4013 15.1113 18.1568 15.8666C18.1488 15.8751 18.1366 15.8883 18.1239 15.901C16.1029 17.9222 14.0818 19.9432 12.0608 21.9644C12.0477 21.9775 12.0358 21.9917 12.0266 22.0077C12.0193 22.01 12.0086 22.01 11.994 22.01Z" />
<path d="M12.026 2.01001C12.0381 2.02317 12.044 2.03852 12.0546 2.04915C12.2816 2.27698 12.5092 2.50424 12.7367 2.73168C14.5315 4.52648 16.3263 6.32129 18.1212 8.116C18.1341 8.12893 18.1485 8.14042 18.1567 8.1477C17.4004 8.90399 16.647 9.65737 15.895 10.4093C14.6091 9.12341 13.3145 7.82877 12.0212 6.53546C10.7202 7.83645 9.42584 9.13082 8.13214 10.4245C7.37056 9.66297 6.61636 8.90879 5.85889 8.15133C5.87202 8.13975 5.88644 8.12835 5.89935 8.11544C7.91933 6.09565 9.9392 4.07575 11.959 2.05577C11.9721 2.04263 11.9842 2.02834 11.9934 2.0123C12.0007 2.01001 12.0113 2.01001 12.026 2.01001Z" />
<path d="M22.01 12.0358C21.9957 12.0496 21.9794 12.0571 21.9674 12.069C21.2424 12.7934 20.5177 13.5181 19.7931 14.2428C19.7802 14.2557 19.7684 14.2696 19.7533 14.2861C19.7383 14.2723 19.7262 14.2618 19.7149 14.2505C18.9831 13.5188 18.2515 12.7868 17.5189 12.0559C17.4884 12.0255 17.4848 12.0089 17.5167 11.977C18.2517 11.2437 18.9856 10.5094 19.7197 9.77528C19.7289 9.76612 19.7385 9.75745 19.7499 9.74677C19.7649 9.76108 19.7782 9.77321 19.7909 9.7859C20.5156 10.5105 21.2403 11.2352 21.9651 11.9598C21.978 11.9727 21.992 11.9844 22.0077 11.9933C22.01 12.0039 22.01 12.0178 22.01 12.0358Z" />
<path d="M2.01001 11.994C2.02429 11.9807 2.04074 11.9736 2.05254 11.9618C2.77752 11.2375 3.50213 10.5129 4.22662 9.78814C4.23953 9.77523 4.25054 9.76043 4.25829 9.75137C5.01552 10.5086 5.76891 11.262 6.51873 12.0118C5.77233 12.7582 5.01895 13.5116 4.26357 14.267C4.255 14.2588 4.24174 14.2467 4.22903 14.234C3.50435 13.5094 2.77972 12.7848 2.055 12.0603C2.0421 12.0474 2.02809 12.0356 2.0123 12.0267C2.01001 12.0193 2.01001 12.0087 2.01001 11.994Z" />
<path d="M13.6975 12.6275C13.1344 13.1907 12.5737 13.7514 12.016 14.3092C11.2475 13.5407 10.4818 12.7751 9.72131 12.0146C10.4828 11.2531 11.2493 10.4867 12.0111 9.72495C12.7681 10.482 13.5347 11.2485 14.3056 12.0195C14.1092 12.2159 13.9046 12.4205 13.6975 12.6275Z" />
</svg>
