<svg width="24" height="24" viewBox="0 0 24 24" fill="none" xmlns="http://www.w3.org/2000/svg">
<path fill-rule="evenodd" clip-rule="evenodd" d="M6.23019 18.2418C6.94749 16.6525 9.25912 16 12 16C14.7409 16 17.0525 16.6525 17.7698 18.2418C19.4488 16.689 20.5 14.4673 20.5 12C20.5 7.30558 16.6944 3.5 12 3.5C7.30558 3.5 3.5 7.30558 3.5 12C3.5 14.4673 4.55121 16.689 6.23019 18.2418ZM19.3172 5.18385C17.4916 3.22498 14.8889 2 12 2C6.47715 2 2 6.47715 2 12C2 14.8886 3.22477 17.4912 5.18335 19.3167C7.00887 21.2753 9.61142 22.5 12.5 22.5C18.0229 22.5 22.5 18.0229 22.5 12.5C22.5 9.61142 21.2757 7.00936 19.3172 5.18385ZM19.3617 5.23195L19.3172 5.18385C19.3321 5.19983 19.3469 5.21587 19.3617 5.23195ZM16 11C16 13.2091 14.2091 15 12 15C9.79086 15 8 13.2091 8 11C8 8.79086 9.79086 7 12 7C14.2091 7 16 8.79086 16 11Z" fill="#6B6661"/>
</svg>
