<svg width="24" height="24" viewBox="0 0 24 24" fill="none" xmlns="http://www.w3.org/2000/svg">
<path fill-rule="evenodd" clip-rule="evenodd" d="M17.5814 5.48837H14.5581V2.69767C14.5581 2.31236 14.2458 2 13.8605 2C13.4752 2 13.1628 2.31236 13.1628 2.69767V5.48837L10.8372 5.48837V2.69767C10.8372 2.31236 10.5249 2 10.1395 2C9.75422 2 9.44186 2.31236 9.44186 2.69767V5.48837H6.4186C5.90485 5.48837 5.48837 5.90485 5.48837 6.41861V9.44186H2.69767C2.31236 9.44186 2 9.75422 2 10.1395C2 10.5248 2.31236 10.8372 2.69767 10.8372H5.48837L5.48837 13.1628H2.69767C2.31236 13.1628 2 13.4752 2 13.8605C2 14.2458 2.31236 14.5581 2.69767 14.5581H5.48837V17.5814C5.48837 17.9587 5.71295 18.2835 6.03571 18.4294C6.18166 18.7522 6.50647 18.9767 6.88372 18.9767H9.44186V21.3023C9.44186 21.6876 9.75422 22 10.1395 22C10.5248 22 10.8372 21.6876 10.8372 21.3023V18.9767H13.1628V21.3023C13.1628 21.6876 13.4752 22 13.8605 22C14.2458 22 14.5581 21.6876 14.5581 21.3023V18.9767H18.0465C18.5603 18.9767 18.9767 18.5603 18.9767 18.0465V14.5581H21.3023C21.6876 14.5581 22 14.2458 22 13.8605C22 13.4752 21.6876 13.1628 21.3023 13.1628H18.9767V10.8372H21.3023C21.6876 10.8372 22 10.5248 22 10.1395C22 9.75422 21.6876 9.44186 21.3023 9.44186H18.9767V6.88372C18.9767 6.50647 18.7522 6.18166 18.4294 6.0357C18.2835 5.71295 17.9587 5.48837 17.5814 5.48837ZM18.4385 6.05652C18.4356 6.04953 18.4325 6.0426 18.4294 6.0357L18.4385 6.05652ZM6.88372 17.1163L6.88372 6.88372L17.1163 6.88372V17.1163H6.88372Z" fill="#2C3034"/>
</svg>
