<svg width="24" height="24" viewBox="0 0 24 24" fill="#2C3034" xmlns="http://www.w3.org/2000/svg">
<path fill-rule="evenodd" clip-rule="evenodd" d="M12 20.5C16.6944 20.5 20.5 16.6944 20.5 12C20.5 7.30558 16.6944 3.5 12 3.5C7.30558 3.5 3.5 7.30558 3.5 12C3.5 16.6944 7.30558 20.5 12 20.5ZM12 2C6.47879 2.13467 2 6.47715 2 12C2 14.8887 3.22486 17.4914 5.18354 19.3169C7.00905 21.2753 9.61152 22.5 12.5 22.5C18.0229 22.5 22.3654 18.0212 22.5 12.5C22.6414 6.70272 17.7973 1.85859 12 2ZM17.0971 7.69783C17.5401 8.0276 17.6319 8.65408 17.3022 9.0971L12.4345 15.6364C11.8909 16.3668 10.8272 16.4483 10.1786 15.8093L6.79819 12.479C6.40476 12.0914 6.40004 11.4583 6.78764 11.0649C7.17524 10.6714 7.80838 10.6667 8.20181 11.0543L11.1731 13.9816L15.6978 7.9029C16.0276 7.45987 16.6541 7.36806 17.0971 7.69783Z" />
</svg>
