<svg width="52" height="56" viewBox="0 0 52 56" fill="none" xmlns="http://www.w3.org/2000/svg">
<path d="M12.6077 6.32314L12.6071 6.32343C10.966 7.144 9.77347 7.6286 8.98171 7.74065C8.5873 7.79646 8.24311 7.76749 7.99413 7.58876C7.7337 7.40182 7.6378 7.09706 7.6378 6.74884C7.6378 6.53136 7.7518 6.32069 7.9066 6.13006C8.06536 5.93456 8.29078 5.73114 8.56578 5.52398C9.11669 5.10897 9.896 4.65718 10.8234 4.20418C12.6799 3.29736 15.1596 2.37131 17.6667 1.71597C22.9768 0.288682 28.7408 0.289226 34.1613 1.65863L34.162 1.65881C36.4969 2.25676 38.7347 3.04034 40.3926 3.79782C41.2204 4.17606 41.9114 4.55125 42.3988 4.89762C42.6421 5.07045 42.8425 5.24159 42.9844 5.40831C43.1222 5.57017 43.2291 5.75623 43.2291 5.95518C43.2291 6.29846 43.1009 6.58119 42.8479 6.77041C42.6051 6.95192 42.2743 7.02711 41.902 7.02711C41.1574 7.02711 40.1432 6.7266 38.9967 6.15336L38.9967 6.15338L38.9943 6.15214C35.349 4.2734 30.6529 3.35659 25.9099 3.39183C21.1673 3.42706 16.3978 4.41403 12.6077 6.32314Z" fill="#2C3034" stroke="#2C3034" stroke-width="1.2"/>
<path d="M20.2884 7.7228L20.2884 7.72251L20.2997 7.72089C21.1158 7.60431 24.3094 7.54881 27.4252 7.66211C31.6364 7.8044 35.0365 8.38816 38.1003 9.6051C41.1651 10.8224 43.8807 12.6682 46.7297 15.3178L46.7299 15.318C48.4088 16.8831 49.6173 18.2892 50.2851 19.4361C50.6185 20.0087 50.8258 20.5312 50.8805 20.9863C50.9359 21.4474 50.8349 21.855 50.5337 22.1562L50.534 22.1564L50.5242 22.1651C50.3793 22.2939 50.2185 22.3926 50.0335 22.4243C49.8441 22.4567 49.6589 22.414 49.4769 22.3143C49.131 22.1248 48.7509 21.7028 48.2714 21.0541L48.2713 21.0541L48.2691 21.051C40.7411 10.4892 25.8376 7.04776 13.2825 12.9594L13.2818 12.9597C9.91801 14.5295 6.03497 17.8481 3.73057 21.0517L3.73059 21.0518L3.72888 21.0541C3.24937 21.7028 2.86926 22.1248 2.52331 22.3143C2.34133 22.414 2.15611 22.4567 1.96671 22.4243C1.78175 22.3926 1.62093 22.2939 1.47601 22.1651L1.47576 22.1654L1.46654 22.1562C1.16533 21.855 1.06436 21.4474 1.11977 20.9863C1.17445 20.5312 1.38179 20.0087 1.71519 19.4361C2.38291 18.2894 3.59118 16.8834 5.26983 15.3185C9.44043 11.3766 14.4677 8.86412 20.2884 7.7228ZM50.377 21.9995C51.3408 21.0357 49.9235 18.5981 46.5788 15.4801L48.4496 20.9224C49.4133 22.2262 49.8668 22.453 50.377 21.9995Z" fill="#2C3034" stroke="#2C3034" stroke-width="1.2"/>
<path d="M35.0858 19.0237L35.085 19.0234C33.3282 18.1449 32.3031 17.6899 31.067 17.4482C29.8237 17.2051 28.3584 17.176 25.7168 17.176C23.2503 17.176 21.7509 17.233 20.5244 17.4421C19.305 17.6499 18.3473 18.0094 16.9658 18.6296C7.93807 22.8922 3.79923 32.3001 6.87795 41.4848C7.30471 42.6516 7.57895 43.6153 7.69545 44.3434C7.75366 44.7072 7.77407 45.0216 7.75045 45.2775C7.72735 45.5277 7.65904 45.7566 7.50578 45.9098C7.2469 46.1687 6.95441 46.3409 6.62779 46.297C6.30877 46.2541 6.04 46.0148 5.7992 45.6666C5.3155 44.9671 4.81099 43.629 4.18923 41.5659C0.750909 30.3902 6.88788 19.0475 18.2772 15.3268C23.5478 13.5513 30.9191 14.009 35.958 16.3567L35.9594 16.3573C42.6026 19.5071 47.0111 25.2941 48.4408 32.9572L48.4409 32.958C48.9846 35.9339 48.8033 38.5043 47.9301 40.5126C47.0543 42.527 45.4886 43.9601 43.3033 44.6598C38.1096 46.4093 32.5816 42.3271 32.5816 36.7961C32.5816 32.0521 27.1653 29.0088 22.7008 31.3237L22.7 31.3241C19.6325 32.8986 18.7999 36.5153 19.851 40.5024C20.8996 44.48 23.813 48.7418 28.1027 51.4616C29.3396 52.2383 30.2413 53.1582 30.6136 53.9104C30.7962 54.2792 30.8786 54.6646 30.7265 54.9751C30.5658 55.3034 30.2004 55.4421 29.7418 55.4421C29.514 55.4421 29.2264 55.347 28.9155 55.2052C28.5969 55.0598 28.2256 54.8517 27.8206 54.5977C27.0102 54.0894 26.0498 53.3875 25.0818 52.6081C23.1515 51.0539 21.1601 49.1665 20.2621 47.863L20.2618 47.8626C17.7725 44.2287 16.6207 40.2416 16.7935 36.7991C16.9664 33.3561 18.4689 30.4367 21.3074 29.0023C27.6688 25.7067 35.234 29.8033 35.2923 36.6808V36.6827C35.2923 38.9903 36.389 40.7865 37.9551 41.7222C39.52 42.657 41.5729 42.7446 43.5176 41.5945C44.611 40.9383 45.3251 40.0994 45.7174 38.9563C46.1129 37.8039 46.1871 36.3254 45.962 34.3839L45.962 34.3838C45.1771 27.6005 41.1992 22.0524 35.0858 19.0237Z" fill="#2C3034" stroke="#2C3034" stroke-width="1.2"/>
<path d="M10.7631 43.0877L10.7631 43.0877L10.7624 43.0848C9.62043 38.517 9.6734 34.8414 11.0533 31.1616C12.7791 26.5596 16.517 23.1128 21.3933 21.5058C21.6153 21.4269 21.9423 21.3647 22.3307 21.3149C22.7248 21.2644 23.1964 21.2251 23.7134 21.1965C24.7477 21.1395 25.9725 21.1253 27.1395 21.1537L27.1438 21.1539C32.411 21.3829 36.6183 23.3896 39.2174 26.9127C40.5479 28.7062 41.4933 31.3926 41.8373 33.5429C42.0089 34.6152 42.0358 35.5826 41.8689 36.25C41.7858 36.5826 41.6468 36.8723 41.4218 37.0516C41.1831 37.2419 40.8848 37.2791 40.5597 37.1764L40.5597 37.1765L40.5564 37.1754C40.4572 37.1423 40.3783 37.069 40.3197 37.0017C40.2568 36.9295 40.1952 36.8383 40.1354 36.7354C40.0156 36.529 39.8903 36.2529 39.7675 35.9317C39.5216 35.288 39.2775 34.4397 39.1052 33.5501C38.7401 31.7529 38.2375 30.3496 37.4912 29.1681C36.7457 27.9877 35.7494 27.0165 34.3801 26.0943L34.3787 26.0933C31.8187 24.3403 28.4826 23.5831 25.2275 23.7861C21.9721 23.9891 18.8219 25.1509 16.628 27.2059C15.2599 28.4902 14.3325 29.8081 13.744 31.4421C13.1539 33.0803 12.8997 35.0496 12.8996 37.6443C12.9279 40.4075 13.2098 42.5197 13.9491 44.5423C14.689 46.5666 15.8924 48.5157 17.7849 50.9449L17.7849 50.9449L17.7869 50.9474C18.6652 52.1091 19.2177 52.9344 19.4911 53.533C19.6279 53.8325 19.704 54.0943 19.7051 54.3247C19.7063 54.5658 19.6249 54.7653 19.4675 54.9226C19.2096 55.1806 18.8749 55.2367 18.5251 55.154C18.186 55.0738 17.8187 54.8622 17.4413 54.5655C16.6834 53.9696 15.8187 52.9772 14.9632 51.7689C13.2509 49.3502 11.5367 46.01 10.7631 43.0877Z" fill="#2C3034" stroke="#2C3034" stroke-width="1.2"/>
<path d="M25.1063 34.9949L25.1062 34.9948L25.1122 34.9892C25.3373 34.7802 25.5882 34.6562 25.8551 34.6598C26.1234 34.6636 26.3623 34.7956 26.5636 35.0051C26.9567 35.4142 27.264 36.1757 27.4643 37.2051C28.1364 40.3961 29.547 42.9741 31.6979 44.9371C33.8507 46.9018 36.7585 48.2623 40.4424 48.9935L40.4428 48.9935C41.5837 49.2217 42.4668 49.4808 43.0699 49.7529C43.3705 49.8886 43.6131 50.0325 43.784 50.1859C43.9522 50.3369 44.079 50.5233 44.079 50.7415C44.079 50.9381 44.0121 51.1182 43.8601 51.2638C43.7165 51.4013 43.5119 51.4937 43.2608 51.5584C42.7602 51.6873 41.9813 51.7283 40.8473 51.6999L40.8459 51.6999C37.1539 51.5845 32.6248 49.5152 29.5302 46.4783C27.8584 44.8639 26.3693 42.4117 25.4822 40.1797C25.0384 39.0629 24.7406 37.9898 24.6492 37.0945C24.5596 36.2163 24.6616 35.4395 25.1063 34.9949ZM40.8528 51.4786L40.8528 51.4784L40.8528 51.4786Z" fill="#2C3034" stroke="#2C3034" stroke-width="1.2"/>
</svg>
