<svg viewBox="0 0 57 56" fill="none" xmlns="http://www.w3.org/2000/svg">
    <path fill-rule="evenodd" clip-rule="evenodd"
        d="M15.0369 42.5655C16.7106 38.857 22.1044 37.3346 28.4998 37.3346C34.8952 37.3346 40.289 38.857 41.9627 42.5655C45.8803 38.9423 48.3332 33.7583 48.3332 28.0013C48.3332 17.0477 39.4535 8.16797 28.4998 8.16797C17.5462 8.16797 8.6665 17.0477 8.6665 28.0013C8.6665 33.7583 11.1193 38.9423 15.0369 42.5655ZM45.5732 12.0969C41.3136 7.52626 35.2405 4.66797 28.4998 4.66797C15.6132 4.66797 5.1665 15.1147 5.1665 28.0013C5.1665 34.7414 8.02431 40.8141 12.5943 45.0736C16.8539 49.6436 22.9265 52.5014 29.6666 52.5014C42.5532 52.5014 52.9999 42.0547 52.9999 29.168C52.9999 22.4279 50.1432 16.3565 45.5732 12.0969ZM45.6771 12.2092L45.5732 12.0969C45.608 12.1342 45.6426 12.1717 45.6771 12.2092ZM37.8332 25.668C37.8332 30.8226 33.6545 35.0013 28.4998 35.0013C23.3452 35.0013 19.1665 30.8226 19.1665 25.668C19.1665 20.5133 23.3452 16.3346 28.4998 16.3346C33.6545 16.3346 37.8332 20.5133 37.8332 25.668Z"
        fill="#2C3034" />
</svg>