<svg width="24" height="24" viewBox="0 0 24 24" fill="none" xmlns="http://www.w3.org/2000/svg">
<path fill-rule="evenodd" clip-rule="evenodd" d="M12 20.503C16.6944 20.503 20.5 16.6974 20.5 12.003C20.5 7.3086 16.6944 3.50302 12 3.50302C7.30558 3.50302 3.5 7.3086 3.5 12.003C3.5 16.6974 7.30558 20.503 12 20.503ZM2 12.003C2 14.8917 3.22486 17.4944 5.18354 19.3199C7.00905 21.2783 9.61152 22.503 12.5 22.503C18.0229 22.503 22.3654 18.0242 22.5 12.503C22.6414 6.70574 17.7973 1.86162 12 2.00302C6.47879 2.13769 2 6.48017 2 12.003Z" fill="#2C3034"/>
<path d="M12 17.2453C11.4505 17.2453 11.0049 16.7997 11.0046 16.2499L11.0046 14.623V12.996L7.75066 12.996C7.20117 12.996 6.75553 12.5504 6.75526 12.0006C6.75526 11.4511 7.2009 11.0055 7.75066 11.0052L11.0046 11.0052L11.0046 7.75126C11.0046 7.20178 11.4502 6.75614 12 6.75586C12.5495 6.75587 12.9951 7.2015 12.9954 7.75126L12.9954 11.0052L16.2493 11.0052C16.7988 11.0052 17.2445 11.4508 17.2447 12.0006C17.2447 12.5501 16.7991 12.9957 16.2493 12.996L12.9954 12.996L12.9954 16.2499C12.9954 16.7994 12.5498 17.2451 12 17.2453Z" fill="#2C3034"/>
</svg>
