<svg width="24" height="25" viewBox="0 0 24 25" fill="none" xmlns="http://www.w3.org/2000/svg">
    <path fill-rule="evenodd" clip-rule="evenodd" d="M10.3636 2.5C9.05824 2.5 8 3.55824 8 4.86364V9.5H5.36364C4.05826 9.5 3 10.5582 3 11.8636V20.1364C3 20.9167 3.37809 21.6087 3.96106 22.0391C4.39152 22.622 5.08344 23 5.86365 23H14.1364C15.4418 23 16.5 21.9418 16.5 20.6364V15.5H18.6364C19.9418 15.5 21 14.4418 21 13.1364V4.86364C21 3.55824 19.9418 2.5 18.6364 2.5H10.3636ZM4.5 11.8636C4.5 11.3866 4.88664 11 5.36364 11H13.6364C14.1134 11 14.5 11.3866 14.5 11.8636V20.1364C14.5 20.6134 14.1134 21 13.6364 21H5.36364C4.88664 21 4.5 20.6134 4.5 20.1364V11.8636Z" fill="#2C3034" />
</svg>
