<svg width="24" height="25" viewBox="0 0 24 25" fill="none" xmlns="http://www.w3.org/2000/svg">
<path fill-rule="evenodd" clip-rule="evenodd" d="M17.5 19.5V5.5C17.5 5.22386 17.2761 5 17 5H9.82843C9.69582 5 9.56864 5.05268 9.47487 5.14645L8.06066 6.56066L6.64645 7.97487C6.55268 8.06864 6.5 8.19582 6.5 8.32843V19.5C6.5 19.7761 6.72386 20 7 20H17C17.2761 20 17.5 19.7761 17.5 19.5ZM8.41421 4.08579L7 5.5L5.58579 6.91421C5.21071 7.28929 5 7.79799 5 8.32843V19.5C5 20.18 5.33933 20.7807 5.85791 21.1421C6.21926 21.6607 6.81999 22 7.49998 22H17.5C18.6045 22 19.5 21.1046 19.5 20V6C19.5 5.32004 19.1607 4.71934 18.6421 4.35798C18.2807 3.83937 17.68 3.5 17 3.5H9.82843C9.29799 3.5 8.78929 3.71071 8.41421 4.08579ZM8.75 10C8.33579 10 8 10.3358 8 10.75C8 11.1642 8.33579 11.5 8.75 11.5H13.25C13.6642 11.5 14 11.1642 14 10.75C14 10.3358 13.6642 10 13.25 10H8.75ZM8 13.75C8 13.3358 8.33579 13 8.75 13H13.25C13.6642 13 14 13.3358 14 13.75C14 14.1642 13.6642 14.5 13.25 14.5H8.75C8.33579 14.5 8 14.1642 8 13.75ZM8.75 16C8.33579 16 8 16.3358 8 16.75C8 17.1642 8.33579 17.5 8.75 17.5H13.25C13.6642 17.5 14 17.1642 14 16.75C14 16.3358 13.6642 16 13.25 16H8.75Z" fill="#2C3034"/>
</svg>
