<svg width="24" height="24" viewBox="0 0 24 24" fill="none" xmlns="http://www.w3.org/2000/svg">
<path d="M17 12.2C17.5523 12.2 18 11.7651 18 11.2286C18 10.6921 17.5523 10.2571 17 10.2571C15.1655 10.2571 13.882 11.0832 13 12.1445L13 2C13 1.46349 12.5523 1.02857 12 1.02857C11.4477 1.02857 11 1.46349 11 2L11 12.1445C10.118 11.0832 8.83453 10.2571 7 10.2571C6.44772 10.2571 6 10.6921 6 11.2286C6 11.7651 6.44772 12.2 7 12.2C8.61443 12.2 9.59949 13.2379 10.231 14.6682C10.8645 16.1032 11 17.666 11 18.0286C11 18.5651 11.4477 19 12 19C12.5523 19 13 18.5651 13 18.0286C13 17.666 13.1355 16.1032 13.769 14.6682C14.4005 13.2379 15.3856 12.2 17 12.2Z" fill="#2C3034"/>
<path fill-rule="evenodd" clip-rule="evenodd" d="M3 16C3.55228 16 4 16.4477 4 17V21H20V17C20 16.4477 20.4477 16 21 16C21.5523 16 22 16.4477 22 17V21C22 22.1046 21.1046 23 20 23H4C2.89543 23 2 22.1046 2 21V17C2 16.4477 2.44772 16 3 16Z" fill="#2C3034"/>
</svg>
