<svg width="24" height="24" viewBox="0 0 24 24" fill="none" xmlns="http://www.w3.org/2000/svg">
<path fill-rule="evenodd" clip-rule="evenodd" d="M12 17C16.4183 17 20 13.4183 20 9C20 4.58172 16.4183 1 12 1C7.58172 1 4 4.58172 4 9C4 13.4183 7.58172 17 12 17ZM8.19655 5.3062C8.33467 5.14066 8.52527 5.03423 8.73391 5.0061C8.79371 4.99804 9.07228 4.99794 9.13469 5.00595C9.3218 5.02997 9.48897 5.11253 9.61842 5.24484C9.63851 5.26538 10.4799 6.27048 11.4882 7.4784L13.9514 10.4294L14.6149 11.2242C14.6332 11.2462 14.654 11.2674 14.661 11.2712C14.6898 11.2872 14.7312 11.2732 14.7468 11.2424L14.7558 11.2245L14.7557 8.97607C14.7556 6.79601 14.7554 6.72715 14.7482 6.71131C14.7328 6.67743 14.6977 6.66498 14.6659 6.68212C14.6563 6.68734 14.2773 7.01503 13.8238 7.41033C13.3703 7.80563 12.9899 8.13499 12.9785 8.14223C12.9481 8.16156 12.9215 8.16814 12.8805 8.16642C12.853 8.16528 12.8409 8.16267 12.8219 8.15385C12.7294 8.11069 12.6847 8.01076 12.7202 7.92641C12.7314 7.89994 14.4335 5.3687 14.4742 5.3179C14.5109 5.27221 14.5791 5.20615 14.6251 5.17156C14.7758 5.05846 14.9531 5.00005 15.1458 5.00005C15.2476 5.00005 15.327 5.0127 15.42 5.04372C15.731 5.14752 15.9597 5.43118 15.9955 5.7575C16.0015 5.81232 16.0015 12.1876 15.9955 12.2424C15.9853 12.3356 15.9563 12.4343 15.9136 12.5215C15.7983 12.7572 15.5819 12.9271 15.3278 12.9816C15.2548 12.9972 15.2138 13 15.0541 13C14.8888 13 14.849 12.9967 14.7658 12.9763C14.611 12.9384 14.4792 12.8635 14.3692 12.7511C14.3491 12.7305 14.1109 12.4479 13.8399 12.1231C13.2919 11.4664 12.832 10.9154 10.7632 8.4375C9.98369 7.50383 9.33978 6.7358 9.3323 6.73077C9.30689 6.71369 9.26694 6.72306 9.24627 6.75096L9.2379 6.76227V9.01926V11.2763L9.24721 11.2893C9.26479 11.314 9.29985 11.323 9.32562 11.3095C9.33207 11.3061 9.71046 10.9801 10.1665 10.5851C10.868 9.97736 11.0003 9.86436 11.0263 9.85081C11.0567 9.83491 11.0572 9.83479 11.1016 9.83479C11.1451 9.83479 11.1471 9.8352 11.1761 9.84956C11.2494 9.88592 11.2932 9.96461 11.2804 10.0373C11.278 10.0514 11.2705 10.0738 11.2639 10.087C11.2572 10.1003 10.9078 10.6219 10.4874 11.2462C10.067 11.8706 9.68256 12.4417 9.63308 12.5155C9.53171 12.6666 9.50152 12.7058 9.4434 12.7616C9.30734 12.8924 9.13679 12.973 8.94801 12.9959C8.89988 13.0017 8.79332 13.0008 8.74391 12.9942C8.3566 12.9421 8.05773 12.643 8.00572 12.2552C8.00091 12.2194 8.00007 11.7425 8 9.00184C7.99995 6.83162 8.00125 5.77948 8.00403 5.75655C8.02414 5.59019 8.09196 5.43156 8.19655 5.3062Z" fill="#2C3034"/>
<path fill-rule="evenodd" clip-rule="evenodd" d="M8.25 22C7.83579 22 7.5 21.6642 7.5 21.25L7.5 18.75C7.5 18.3358 7.83579 18 8.25 18C8.66421 18 9 18.3358 9 18.75L9 21.25C9 21.6642 8.66421 22 8.25 22Z" fill="#2C3034"/>
<path fill-rule="evenodd" clip-rule="evenodd" d="M12.25 24C11.8358 24 11.5 23.6642 11.5 23.25L11.5 19.75C11.5 19.3358 11.8358 19 12.25 19C12.6642 19 13 19.3358 13 19.75L13 23.25C13 23.6642 12.6642 24 12.25 24Z" fill="#2C3034"/>
<path fill-rule="evenodd" clip-rule="evenodd" d="M16.25 22C15.8358 22 15.5 21.6642 15.5 21.25L15.5 18.75C15.5 18.3358 15.8358 18 16.25 18C16.6642 18 17 18.3358 17 18.75L17 21.25C17 21.6642 16.6642 22 16.25 22Z" fill="#2C3034"/>
</svg>
