<svg width="16" height="16" viewBox="0 0 16 16" fill="none" xmlns="http://www.w3.org/2000/svg">
<rect x="11.4918" y="6.41577" width="0.780372" height="2.34112" rx="0.390186" transform="rotate(-115.7 11.4918 6.41577)" fill="#087164"/>
<rect x="10.5424" y="4.94922" width="0.780372" height="1.56074" rx="0.390186" transform="rotate(-141.25 10.5424 4.94922)" fill="#087164"/>
<rect x="9.05249" y="4.03809" width="0.780372" height="1.56074" rx="0.390186" transform="rotate(-167.015 9.05249 4.03809)" fill="#087164"/>
<rect x="7.30066" y="3.86658" width="0.780372" height="1.56074" rx="0.390186" transform="rotate(167.015 7.30066 3.86658)" fill="#087164"/>
<rect x="5.66528" y="4.4696" width="0.780372" height="1.56074" rx="0.390186" transform="rotate(141.25 5.66528 4.4696)" fill="#087164"/>
<rect x="4.45349" y="5.7196" width="0.780372" height="2.34112" rx="0.390186" transform="rotate(115.7 4.45349 5.7196)" fill="#087164"/>
<circle cx="6.0902" cy="9.99291" r="1.56075" transform="rotate(52.5 6.0902 9.99291)" fill="#087164"/>
<path d="M6.70931 9.51816L9.36438 7.48218" stroke="#087164" stroke-width="1.17056" stroke-linecap="round"/>
<path fill-rule="evenodd" clip-rule="evenodd" d="M7.80373 14.4396C11.4671 14.4396 14.4369 11.4698 14.4369 7.80645C14.4369 4.14305 11.4671 1.17328 7.80373 1.17328C4.14033 1.17328 1.17056 4.14305 1.17056 7.80645C1.17056 11.4698 4.14033 14.4396 7.80373 14.4396ZM0 7.80645C0 10.0607 0.955844 12.0917 2.48435 13.5163C3.90893 15.0446 5.93982 16.0004 8.19393 16.0004C12.5038 16.0004 15.8926 12.5052 15.9977 8.19663C16.108 3.6726 12.3278 -0.107625 7.80373 0.00272258C3.49513 0.107815 0 3.49657 0 7.80645Z" fill="#087164"/>
<path d="M12.6685 10.1452V8.5018H13.0697V7.8775H12.6685V7.81783C12.6685 7.70766 12.7166 7.6388 12.821 7.6388C12.9132 7.6388 13.0015 7.69388 13.0697 7.76274L13.2663 7.17058C13.166 7.1109 12.9694 7.02368 12.7367 7.02368C12.2151 7.02368 11.9623 7.38633 11.9463 7.8775H11.7056V8.5018H11.9463V10.1452H12.6685Z" fill="#087164"/>

</svg>
