<svg width="16" height="16" viewBox="0 0 16 16" fill="none" xmlns="http://www.w3.org/2000/svg">
<rect x="11.4918" y="6.41553" width="0.780372" height="2.34112" rx="0.390186" transform="rotate(-115.7 11.4918 6.41553)" fill="#2C3034"/>
<rect x="10.5424" y="4.94922" width="0.780372" height="1.56074" rx="0.390186" transform="rotate(-141.25 10.5424 4.94922)" fill="#2C3034"/>
<rect x="9.05257" y="4.03809" width="0.780372" height="1.56074" rx="0.390186" transform="rotate(-167.015 9.05257 4.03809)" fill="#2C3034"/>
<rect x="7.30066" y="3.8667" width="0.780372" height="1.56074" rx="0.390186" transform="rotate(167.015 7.30066 3.8667)" fill="#2C3034"/>
<rect x="5.66531" y="4.46973" width="0.780372" height="1.56074" rx="0.390186" transform="rotate(141.25 5.66531 4.46973)" fill="#2C3034"/>
<rect x="4.45347" y="5.71973" width="0.780372" height="2.34112" rx="0.390186" transform="rotate(115.7 4.45347 5.71973)" fill="#2C3034"/>
<circle cx="6.09025" cy="9.99254" r="1.56075" transform="rotate(52.5 6.09025 9.99254)" fill="#2C3034"/>
<path d="M6.70937 9.51792L9.36444 7.48193" stroke="#2C3034" stroke-width="1.17056" stroke-linecap="round"/>
<path fill-rule="evenodd" clip-rule="evenodd" d="M7.80372 14.4397C11.4671 14.4397 14.4369 11.47 14.4369 7.80657C14.4369 4.14317 11.4671 1.1734 7.80372 1.1734C4.14032 1.1734 1.17055 4.14317 1.17055 7.80657C1.17055 11.47 4.14032 14.4397 7.80372 14.4397ZM-7.62939e-06 7.80657C-7.62939e-06 10.0608 0.955837 12.0919 2.48434 13.5165C3.90892 15.0448 5.93981 16.0005 8.19392 16.0005C12.5038 16.0005 15.8926 12.5053 15.9976 8.19675C16.108 3.67272 12.3277 -0.107503 7.80372 0.00284465C3.49512 0.107937 -7.62939e-06 3.49669 -7.62939e-06 7.80657Z" fill="#2C3034"/>
<path d="M12.6685 10.1454V8.50204H13.0697V7.87775H12.6685V7.81807C12.6685 7.7079 12.7167 7.63904 12.821 7.63904C12.9133 7.63904 13.0015 7.69413 13.0697 7.76298L13.2663 7.17082C13.166 7.11114 12.9694 7.02393 12.7367 7.02393C12.2151 7.02393 11.9624 7.38657 11.9463 7.87775H11.7056V8.50204H11.9463V10.1454H12.6685Z" fill="#2C3034"/>
</svg>
