<svg width="24" height="24" viewBox="0 0 24 24" fill="none" xmlns="http://www.w3.org/2000/svg">
<path d="M5.50439 13.6251C6.9115 15.0139 8.96003 15.3723 10.6622 14.6892C10.7053 14.7048 10.7497 14.7174 10.7949 14.7269L11.5669 14.8877C11.9408 14.9656 12.2358 15.2567 12.3147 15.6258L12.4064 16.055C12.4853 16.424 12.7803 16.7152 13.1543 16.7931L13.5892 16.8837C13.9632 16.9616 14.2582 17.2527 14.3371 17.6218L14.3526 17.6947C14.4648 18.2193 14.9982 18.5535 15.5204 18.4263L18.7558 17.6383L17.1947 16.0599L13.2068 12.124C13.8503 10.4626 13.4756 8.48793 12.0935 7.1238C10.232 5.28654 7.24789 5.2525 5.42837 7.04779C3.60885 8.84307 3.64288 11.7878 5.50439 13.6251Z" fill="#2C3034"/>
<circle cx="7.5" cy="9.5" r="1.5" fill="#E5E5E5"/>
</svg>
