<svg width="24" height="24" viewBox="0 0 24 24" fill="none" xmlns="http://www.w3.org/2000/svg">
<path fill-rule="evenodd" clip-rule="evenodd" d="M12 20.503C16.6944 20.503 20.5 16.6974 20.5 12.003C20.5 7.3086 16.6944 3.50302 12 3.50302C7.30558 3.50302 3.5 7.3086 3.5 12.003C3.5 16.6974 7.30558 20.503 12 20.503ZM12 2.00302C6.47879 2.13769 2 6.48017 2 12.003C2 14.8917 3.22486 17.4944 5.18354 19.3199C7.00905 21.2783 9.61152 22.503 12.5 22.503C18.0229 22.503 22.3654 18.0242 22.5 12.503C22.6414 6.70574 17.7973 1.86162 12 2.00302Z" fill="#2C3034"/>
<path d="M16.8867 8.48281C17.2433 9.83316 16.7334 11.212 15.7029 12.0114C15.6972 12.0433 15.6891 12.0748 15.6788 12.1058L15.5026 12.6345C15.4172 12.8906 15.492 13.1737 15.6921 13.3522L15.9248 13.5597C16.1249 13.7382 16.1997 14.0213 16.1143 14.2774L16.015 14.5752C15.9296 14.8313 16.0044 15.1144 16.2045 15.2929L16.2441 15.3282C16.5285 15.5819 16.5447 16.0259 16.2796 16.3002L14.6366 18L14.2178 16.4886L13.2073 12.6616C11.9498 12.4686 10.8621 11.5426 10.5119 10.2162C10.0402 8.4298 11.0849 6.5936 12.8452 6.11493C14.6056 5.63627 16.4151 6.6964 16.8867 8.48281Z" fill="#2C3034"/>
<path d="M11.1315 12.992C11.1561 12.9901 11.1805 12.988 11.205 12.9856C10.388 12.4091 9.75975 11.5476 9.48203 10.4958C9.07758 8.96407 9.5157 7.40467 10.5081 6.32434C9.26957 6.47071 8.16636 7.32674 7.75227 8.60801C7.33055 9.91288 7.74212 11.2919 8.69096 12.1515L7.47393 15.9172L7 17.276L9.26381 16.8783C9.64853 16.8107 9.89164 16.4208 9.78709 16.039L9.78158 16.0189C9.71024 15.7584 9.80024 15.4799 10.0098 15.3129L10.2534 15.1187C10.4629 14.9517 10.5529 14.6732 10.4816 14.4127L10.3986 14.1098C10.3273 13.8493 10.4173 13.5708 10.6268 13.4038L11.0593 13.059C11.0851 13.0384 11.1092 13.016 11.1315 12.992Z" fill="#2C3034"/>
</svg>
