<svg width="24" height="24" viewBox="0 0 24 24" fill="none" xmlns="http://www.w3.org/2000/svg">
<path d="M9.08333 14.3636C8.76117 14.3636 8.5 14.0991 8.5 13.7727C8.5 13.4464 8.76117 13.1818 9.08333 13.1818C10.1535 13.1818 10.9021 13.6843 11.4167 14.3299L11.4167 6.09091C11.4167 5.76456 11.6778 5.5 12 5.5C12.3222 5.5 12.5833 5.76456 12.5833 6.09091L12.5833 14.3299C13.0979 13.6843 13.8465 13.1818 14.9167 13.1818C15.2388 13.1818 15.5 13.4464 15.5 13.7727C15.5 14.0991 15.2388 14.3636 14.9167 14.3636C13.9749 14.3636 13.4003 14.995 13.0319 15.865C12.6624 16.7379 12.5833 17.6886 12.5833 17.9091C12.5833 18.2354 12.3222 18.5 12 18.5C11.6778 18.5 11.4167 18.2354 11.4167 17.9091C11.4167 17.6886 11.3376 16.7379 10.9681 15.865C10.5997 14.995 10.0251 14.3636 9.08333 14.3636Z" fill="#2C3034"/>
<path fill="none" d="M12.125 1.93819L20.6513 6.86084C20.7286 6.9055 20.7763 6.98803 20.7763 7.07735V16.9226C20.7763 17.012 20.7286 17.0945 20.6513 17.1392L12.125 22.0618C12.0476 22.1065 11.9523 22.1065 11.875 22.0618L3.34872 17.1392C3.27137 17.0945 3.22372 17.012 3.22372 16.9226V7.07735C3.22372 6.98803 3.27137 6.9055 3.34872 6.86084L11.875 1.93819C11.9524 1.89354 12.0477 1.89354 12.125 1.93819Z" stroke="#2C3034" stroke-width="1.5"/>
<path d="M2.53906 17.2422C2.55859 17.6797 3.0942 18.1653 3.37089 18.3251C3.64758 18.4848 11.8972 23.2477 11.8972 23.2477C12.2066 23.4263 12.5878 23.4263 12.8972 23.2477L21.4234 18.3251C21.7329 18.1464 21.9234 17.8163 21.9234 17.459V7.61373C21.9234 7.29423 21.5504 6.65981 21.2969 6.47266L20.5703 7.04688L20.9234 7.61373V17.459L12.3972 22.3817L3.87089 17.459L3.52344 17.0352L2.53906 17.2422Z" fill="#2C3034"/>
</svg>
