<svg width="24" height="24" viewBox="0 0 24 24" fill="none" xmlns="http://www.w3.org/2000/svg">
<path d="M9.08333 9.63636C8.76117 9.63636 8.5 9.90092 8.5 10.2273C8.5 10.5536 8.76117 10.8182 9.08333 10.8182C10.1535 10.8182 10.9021 10.3157 11.4167 9.67014L11.4167 17.9091C11.4167 18.2354 11.6778 18.5 12 18.5C12.3222 18.5 12.5833 18.2354 12.5833 17.9091L12.5833 9.67014C13.0979 10.3157 13.8465 10.8182 14.9167 10.8182C15.2388 10.8182 15.5 10.5536 15.5 10.2273C15.5 9.90092 15.2388 9.63636 14.9167 9.63636C13.9749 9.63636 13.4003 9.00505 13.0319 8.13499C12.6624 7.26207 12.5833 6.31145 12.5833 6.09091C12.5833 5.76456 12.3222 5.5 12 5.5C11.6778 5.5 11.4167 5.76456 11.4167 6.09091C11.4167 6.31145 11.3376 7.26207 10.9681 8.13499C10.5997 9.00505 10.0251 9.63636 9.08333 9.63636Z" fill="#2C3034"/>
<path fill="none" d="M12.125 1.93819L20.6513 6.86084C20.7286 6.9055 20.7763 6.98803 20.7763 7.07735V16.9226C20.7763 17.012 20.7286 17.0945 20.6513 17.1392L12.125 22.0618C12.0476 22.1065 11.9523 22.1065 11.875 22.0618L3.34872 17.1392C3.27137 17.0945 3.22372 17.012 3.22372 16.9226V7.07735C3.22372 6.98803 3.27137 6.9055 3.34872 6.86084L11.875 1.93819C11.9524 1.89354 12.0477 1.89354 12.125 1.93819Z" stroke="#2C3034" stroke-width="1.5"/>
<path d="M2.53906 17.2422C2.55859 17.6797 3.0942 18.1653 3.37089 18.3251C3.64758 18.4848 11.8972 23.2477 11.8972 23.2477C12.2066 23.4263 12.5878 23.4263 12.8972 23.2477L21.4234 18.3251C21.7329 18.1464 21.9234 17.8163 21.9234 17.459V7.61373C21.9234 7.29423 21.5504 6.65981 21.2969 6.47266L20.5703 7.04688L20.9234 7.61373V17.459L12.3972 22.3817L3.87089 17.459L3.52344 17.0352L2.53906 17.2422Z" fill="#2C3034"/>
</svg>
