<svg width="157" height="158" viewBox="0 0 157 158" fill="none" xmlns="http://www.w3.org/2000/svg">
<path fill-rule="evenodd" clip-rule="evenodd" d="M109.949 40.1264C110.441 40.5251 110.153 41.303 109.52 41.303L47.4805 41.303C46.8471 41.303 46.5593 40.5251 47.0515 40.1264C55.6418 33.1683 66.5841 29 78.5001 29C90.416 29 101.358 33.1683 109.949 40.1264Z" fill="black"/>
<path fill-rule="evenodd" clip-rule="evenodd" d="M59.0501 92.6119C58.6924 92.1018 58.1163 91.7813 57.4933 91.7813L31.3348 91.7812C30.7354 91.7812 30.2986 92.35 30.4652 92.9257C36.4964 113.763 55.7189 128.998 78.4998 128.998C101.281 128.998 120.503 113.763 126.534 92.9257C126.701 92.35 126.264 91.7813 125.665 91.7813L99.5067 91.7813C98.8836 91.7813 98.3076 92.1018 97.9499 92.6119C93.6564 98.7343 86.5456 102.737 78.5 102.737C70.4544 102.737 63.3436 98.7343 59.0501 92.6119Z" fill="black"/>
<path fill-rule="evenodd" clip-rule="evenodd" d="M96.0882 63.0564C96.4498 63.4551 96.9578 63.6952 97.4961 63.6952L124.86 63.6952C125.48 63.6952 125.92 63.0917 125.715 62.5068C123.784 56.9785 120.909 51.893 117.284 47.4432C116.944 47.0255 116.431 46.7891 115.892 46.7891L41.1074 46.7891C40.5687 46.7891 40.0559 47.0255 39.7157 47.4432C36.0905 51.893 33.2158 56.9785 31.2847 62.5068C31.0803 63.0917 31.5201 63.6952 32.1397 63.6952L59.5038 63.6952C60.0421 63.6952 60.5501 63.4551 60.9118 63.0564C65.255 58.2683 71.5263 55.2614 78.5 55.2614C85.4736 55.2614 91.745 58.2683 96.0882 63.0564Z" fill="black"/>
<path fill-rule="evenodd" clip-rule="evenodd" d="M102.034 86.3065C101.569 86.3065 101.238 85.8527 101.364 85.4046C101.934 83.3655 102.239 81.2155 102.239 78.9942C102.239 75.8685 101.635 72.8839 100.538 70.1507C100.352 69.6881 100.685 69.1719 101.183 69.1719L126.973 69.1719C127.3 69.1719 127.582 69.4026 127.642 69.7239C128.205 72.7282 128.5 75.8272 128.5 78.995C128.5 81.2756 128.347 83.5204 128.052 85.72C128.006 86.0571 127.717 86.3065 127.377 86.3065L102.034 86.3065ZM55.6362 85.4046C55.7615 85.8527 55.4313 86.3065 54.966 86.3065L29.623 86.3065C29.2829 86.3065 28.9937 86.0571 28.9484 85.72C28.6527 83.5204 28.5 81.2756 28.5 78.995C28.5 75.8272 28.7946 72.7282 29.3579 69.7239C29.4181 69.4026 29.7 69.1719 30.0269 69.1719L55.8166 69.1719C56.3152 69.1719 56.6483 69.6881 56.4625 70.1507C55.3647 72.8839 54.7606 75.8685 54.7606 78.9942C54.7606 81.2155 55.0656 83.3655 55.6362 85.4046Z" fill="black"/>
</svg>
