<svg width="24" height="24" viewBox="0 0 24 24" fill="none" xmlns="http://www.w3.org/2000/svg">
<rect x="9.3103" y="18.8906" width="4.9655" height="0.88889" rx="0.444445" fill="#2C3034"/>
<path d="M9.3103 2.89062H14.2758V3.22396C14.2758 3.77624 13.8281 4.22396 13.2758 4.22396H10.3103C9.75802 4.22396 9.3103 3.77624 9.3103 3.22396V2.89062Z" fill="#2C3034"/>
<rect x="6.75" y="2.75" width="10.0862" height="18.0556" rx="1.25" stroke="#2C3034" stroke-width="1.5"/>
<path fill-rule="evenodd" clip-rule="evenodd" d="M6.75977 21.1243C7.11973 21.6527 7.72627 21.9997 8.41386 21.9997H16C17.1046 21.9997 18 21.1042 18 19.9996V4.44408C18 3.80802 17.7031 3.24131 17.2403 2.875C17.4586 3.19545 17.5862 3.58262 17.5862 3.9996V19.5552C17.5862 20.6597 16.6908 21.5552 15.5862 21.5552H8.00005C7.53154 21.5552 7.10065 21.3941 6.75977 21.1243Z" fill="#2C3034"/>
</svg>
