<svg width="24" height="24" viewBox="0 0 24 24" fill="#2C3034" xmlns="http://www.w3.org/2000/svg">
<g filter="url(#filter0_d_360_4719)">
<mask id="path-1-inside-1_360_4719" fill="white">
<path fill-rule="evenodd" clip-rule="evenodd" d="M12.4931 3.13003C12.1873 2.95666 11.8128 2.95666 11.5069 3.13003L8.00003 5.11774L4.52517 7.16095C4.22209 7.33916 4.03487 7.66344 4.03207 8.01502L4.00003 12.0459L4.03207 16.0769C4.03487 16.4284 4.22209 16.7527 4.52517 16.9309L8.00003 18.9741L11.5069 20.9619C11.8128 21.1352 12.1873 21.1352 12.4931 20.9619L16 18.9741L19.4749 16.9309C19.778 16.7527 19.9652 16.4284 19.968 16.0769L20 12.0459L19.968 8.01502C19.9652 7.66344 19.778 7.33916 19.4749 7.16095L16 5.11774L12.4931 3.13003ZM12.0237 13.639C12.8904 13.639 13.5931 12.9364 13.5931 12.0697C13.5931 11.203 12.8904 10.5004 12.0237 10.5004C11.157 10.5004 10.4544 11.203 10.4544 12.0697C10.4544 12.9364 11.157 13.639 12.0237 13.639Z"/>
</mask>
<path d="M11.5069 3.13003L10.7673 1.82507V1.82507L11.5069 3.13003ZM12.4931 3.13003L11.7535 4.43499L11.7535 4.43499L12.4931 3.13003ZM8.00003 5.11774L7.26038 3.81278L7.25001 3.81866L7.23973 3.8247L8.00003 5.11774ZM4.52517 7.16095L3.76487 5.86791L3.76487 5.86791L4.52517 7.16095ZM4.03207 8.01502L2.53212 8.0031L4.03207 8.01502ZM4.00003 12.0459L2.50008 12.034L2.49998 12.0459L2.50008 12.0579L4.00003 12.0459ZM4.03207 16.0769L5.53203 16.0649L4.03207 16.0769ZM4.52517 16.9309L3.76487 18.224L3.76487 18.224L4.52517 16.9309ZM8.00003 18.9741L7.23973 20.2672L7.25001 20.2732L7.26038 20.2791L8.00003 18.9741ZM11.5069 20.9619L12.2466 19.6569H12.2466L11.5069 20.9619ZM12.4931 20.9619L11.7535 19.6569L12.4931 20.9619ZM16 18.9741L16.7397 20.2791L16.7501 20.2732L16.7603 20.2672L16 18.9741ZM19.4749 16.9309L18.7146 15.6379L18.7146 15.6379L19.4749 16.9309ZM19.968 16.0769L18.468 16.0649V16.0649L19.968 16.0769ZM20 12.0459L21.5 12.0579L21.5001 12.0459L21.5 12.034L20 12.0459ZM19.968 8.01502L18.468 8.02694V8.02694L19.968 8.01502ZM19.4749 7.16095L20.2352 5.86791L19.4749 7.16095ZM16 5.11774L16.7603 3.8247L16.7501 3.81866L16.7397 3.81278L16 5.11774ZM12.2466 4.43499C12.0936 4.52167 11.9064 4.52167 11.7535 4.43499L13.2328 1.82507C12.4681 1.39164 11.532 1.39164 10.7673 1.82507L12.2466 4.43499ZM8.73968 6.4227L12.2466 4.43499L10.7673 1.82507L7.26038 3.81278L8.73968 6.4227ZM5.28548 8.45398L8.76033 6.41077L7.23973 3.8247L3.76487 5.86791L5.28548 8.45398ZM5.53203 8.02695C5.53063 8.20273 5.43702 8.36488 5.28548 8.45398L3.76487 5.86791C3.00717 6.31344 2.53911 7.12415 2.53212 8.0031L5.53203 8.02695ZM5.49998 12.0579L5.53203 8.02695L2.53212 8.0031L2.50008 12.034L5.49998 12.0579ZM5.53203 16.0649L5.49998 12.034L2.50008 12.0579L2.53212 16.0888L5.53203 16.0649ZM5.28548 15.6379C5.43702 15.727 5.53063 15.8891 5.53203 16.0649L2.53212 16.0888C2.53911 16.9677 3.00717 17.7784 3.76487 18.224L5.28548 15.6379ZM8.76033 17.6811L5.28548 15.6379L3.76487 18.224L7.23973 20.2672L8.76033 17.6811ZM12.2466 19.6569L8.73968 17.6692L7.26038 20.2791L10.7673 22.2668L12.2466 19.6569ZM11.7535 19.6569C11.9064 19.5702 12.0936 19.5702 12.2466 19.6569L10.7673 22.2668C11.532 22.7002 12.4681 22.7002 13.2328 22.2668L11.7535 19.6569ZM15.2604 17.6692L11.7535 19.6569L13.2328 22.2668L16.7397 20.2791L15.2604 17.6692ZM18.7146 15.6379L15.2397 17.6811L16.7603 20.2672L20.2352 18.224L18.7146 15.6379ZM18.468 16.0649C18.4694 15.8891 18.563 15.727 18.7146 15.6379L20.2352 18.224C20.9929 17.7784 21.461 16.9677 21.4679 16.0888L18.468 16.0649ZM18.5001 12.034L18.468 16.0649L21.4679 16.0888L21.5 12.0579L18.5001 12.034ZM18.468 8.02694L18.5001 12.0579L21.5 12.034L21.4679 8.0031L18.468 8.02694ZM18.7146 8.45398C18.563 8.36488 18.4694 8.20274 18.468 8.02694L21.4679 8.0031C21.461 7.12414 20.9929 6.31344 20.2352 5.86791L18.7146 8.45398ZM15.2397 6.41077L18.7146 8.45398L20.2352 5.86791L16.7603 3.8247L15.2397 6.41077ZM11.7535 4.43499L15.2604 6.4227L16.7397 3.81278L13.2328 1.82507L11.7535 4.43499ZM12.0931 12.0697C12.0931 12.108 12.062 12.139 12.0237 12.139V15.139C13.7189 15.139 15.0931 13.7648 15.0931 12.0697H12.0931ZM12.0237 12.0004C12.062 12.0004 12.0931 12.0314 12.0931 12.0697H15.0931C15.0931 10.3746 13.7189 9.00038 12.0237 9.00038V12.0004ZM11.9544 12.0697C11.9544 12.0314 11.9855 12.0004 12.0237 12.0004V9.00038C10.3286 9.00038 8.95444 10.3746 8.95444 12.0697H11.9544ZM12.0237 12.139C11.9855 12.139 11.9544 12.108 11.9544 12.0697H8.95444C8.95444 13.7648 10.3286 15.139 12.0237 15.139V12.139Z" mask="url(#path-1-inside-1_360_4719)"/>
</g>
<defs>
<filter id="filter0_d_360_4719" x="4.00003" y="3" width="16.5" height="18.5919" filterUnits="userSpaceOnUse" color-interpolation-filters="sRGB">
<feFlood flood-opacity="0" result="BackgroundImageFix"/>
<feColorMatrix in="SourceAlpha" type="matrix" values="0 0 0 0 0 0 0 0 0 0 0 0 0 0 0 0 0 0 127 0" result="hardAlpha"/>
<feOffset dx="0.5" dy="0.5"/>
<feComposite in2="hardAlpha" operator="out"/>
<feColorMatrix type="matrix" values="0 0 0 0 0.172549 0 0 0 0 0.188235 0 0 0 0 0.203922 0 0 0 1 0"/>
<feBlend mode="normal" in2="BackgroundImageFix" result="effect1_dropShadow_360_4719"/>
<feBlend mode="normal" in="SourceGraphic" in2="effect1_dropShadow_360_4719" result="shape"/>
</filter>
</defs>
</svg>
