<svg width="24" height="24" viewBox="0 0 24 24" fill="none" xmlns="http://www.w3.org/2000/svg">
<circle cx="12" cy="12" r="9" stroke="#415BB7" fill="none" stroke-width="2"/>
<path d="M10.648 14.749C10.648 14.397 10.688 14.045 10.768 13.693C10.8534 13.341 10.9787 13.021 11.144 12.733C11.2774 12.461 11.4214 12.2477 11.576 12.093C11.736 11.933 11.9174 11.7703 12.12 11.605C12.328 11.4397 12.5734 11.2077 12.856 10.909C13.0747 10.669 13.2187 10.4343 13.288 10.205C13.3627 9.97033 13.4 9.71433 13.4 9.437C13.4 9.293 13.384 9.15433 13.352 9.021C13.3254 8.88767 13.272 8.77033 13.192 8.669C13.064 8.493 12.8934 8.36767 12.68 8.293C12.472 8.213 12.248 8.173 12.008 8.173C11.8267 8.173 11.648 8.19433 11.472 8.237C11.3014 8.27967 11.1547 8.349 11.032 8.445C10.8827 8.557 10.7707 8.69833 10.696 8.869C10.6267 9.03967 10.5947 9.229 10.6 9.437H8.29602C8.36002 8.86633 8.52269 8.34367 8.78402 7.869C9.04535 7.39433 9.38402 7.021 9.80002 6.749C10.104 6.54633 10.44 6.39167 10.808 6.285C11.176 6.17833 11.544 6.125 11.912 6.125C12.52 6.125 13.0934 6.221 13.632 6.413C14.1707 6.59967 14.616 6.909 14.968 7.341C15.2027 7.613 15.384 7.93033 15.512 8.293C15.64 8.65033 15.704 9.01033 15.704 9.373C15.704 9.95433 15.5734 10.4823 15.312 10.957C15.0507 11.4317 14.728 11.8743 14.344 12.285C14.1787 12.461 14.0294 12.6157 13.896 12.749C13.768 12.877 13.6507 12.9997 13.544 13.117C13.4427 13.229 13.352 13.3463 13.272 13.469C13.1227 13.7143 13.032 13.9143 13 14.069C12.968 14.2237 12.952 14.4503 12.952 14.749H10.648ZM10.664 17.869V15.565H12.952V17.869H10.664Z" fill="#415BB7"/>
</svg>
