<svg width="24" height="24" viewBox="0 0 24 24" fill="none" xmlns="http://www.w3.org/2000/svg">
<path fill-rule="evenodd" clip-rule="evenodd" d="M13.8333 3.5H10.1667C5.86345 3.5 2.375 7.30558 2.375 12C2.375 16.6944 5.86345 20.5 10.1667 20.5H13.8333C18.1366 20.5 21.625 16.6944 21.625 12C21.625 7.30558 18.1366 3.5 13.8333 3.5ZM10.1667 2C5.10406 2 1 6.47715 1 12C1 17.5228 5.10406 22.5 10.1667 22.5H14C19.0626 22.5 23.5 18.0228 23.5 12.5C23.5 6.97715 18.8959 2 13.8333 2H10.1667Z" fill="#6B6661"/>
<path d="M17.8779 10.4325H6.12186" stroke="#6B6661" stroke-width="1.5" stroke-linecap="round"/>
<path d="M6.12207 13.5675H17.8781" stroke="#6B6661" stroke-width="1.5" stroke-linecap="round"/>
<path d="M6.12233 10.4325C6.64984 10.4325 10.041 10.0563 10.041 7.29755" stroke="#6B6661" stroke-width="1.5" stroke-linecap="round"/>
<path d="M17.8777 13.5675C17.3502 13.5675 13.959 13.9437 13.959 16.7025" stroke="#6B6661" stroke-width="1.5" stroke-linecap="round"/>
</svg>
