<svg width="32" height="32" viewBox="0 0 32 32" fill="white" xmlns="http://www.w3.org/2000/svg">
<path fill-rule="evenodd" clip-rule="evenodd" d="M17.6356 12.9758L16.5186 15.7877H19.5172H20.4098L11.0723 23.9065L13.2892 18.3109L14.4026 15.5007H11.4069H10.5473L19.8433 7.41794L17.6356 12.9758ZM23.0105 13.7389H22.7661H21.7021L20.4644 13.7389L24.5406 3.4772C24.7353 3.05407 24.337 2.67778 23.903 2.68298C24.0217 2.16141 23.2701 1.76239 22.7773 2.16395L22.6881 2.2415L22.6289 2.29304L21.9231 2.90673L21.4834 3.28901L7.43869 15.5007L7.26 15.6561L6.66398 16.1743L6.20267 16.5754C5.77423 16.9479 6.07096 17.5495 6.66398 17.5495L6.69071 17.5495C6.60668 17.8813 6.8868 18.2324 7.33984 18.2324H11.1363L10.5952 19.5983L7.74054 26.8034L7.55386 27.2746L7.25315 28.0336L7.23418 28.0815L7.05934 28.5228C6.86465 28.9459 7.26299 29.3222 7.697 29.317C7.57825 29.8386 8.3299 30.2376 8.82261 29.8361L25.3973 15.4246C25.8257 15.0521 25.5292 14.4219 24.936 14.4219H24.9147C24.9797 14.0892 24.7024 13.7389 24.2601 13.7389H23.8675H23.0105Z" />
</svg>
