<svg width="24" height="24" viewBox="0 0 24 24" fill="#2C3034" xmlns="http://www.w3.org/2000/svg">
<path fill-rule="evenodd" clip-rule="evenodd" d="M10.2222 3C9.7313 3 9.33333 3.39312 9.33333 3.87805H4.66667C4.29848 3.87805 4 4.17289 4 4.53659C4 4.90029 4.29848 5.19512 4.66667 5.19512H19.3333C19.7015 5.19512 20 4.90029 20 4.53659C20 4.17289 19.7015 3.87805 19.3333 3.87805H14.6667C14.6667 3.39312 14.2687 3 13.7778 3H10.2222ZM7.11111 6.95122H16.8889V17.9268C16.8889 18.6542 16.2919 19.2439 15.5556 19.2439H8.44444C7.70807 19.2439 7.11111 18.6542 7.11111 17.9268V6.95122ZM5.77778 5.63415H7.11111H16.8889H18.2222L18.6667 6.07317V18.3659C18.6667 19.8207 17.4728 21 16 21H8.88889C8.03926 21 7.28244 20.6075 6.79411 19.9961C6.17512 19.5137 5.77778 18.7661 5.77778 17.9268V6.95122V5.63415ZM12.6667 9.14634C12.6667 8.78264 12.3682 8.4878 12 8.4878C11.6318 8.4878 11.3333 8.78264 11.3333 9.14634V16.1707C11.3333 16.5344 11.6318 16.8293 12 16.8293C12.3682 16.8293 12.6667 16.5344 12.6667 16.1707V9.14634ZM9.33333 8.4878C9.70152 8.4878 10 8.78264 10 9.14634V16.1707C10 16.5344 9.70152 16.8293 9.33333 16.8293C8.96514 16.8293 8.66667 16.5344 8.66667 16.1707V9.14634C8.66667 8.78264 8.96514 8.4878 9.33333 8.4878ZM15.3333 9.14634C15.3333 8.78264 15.0349 8.4878 14.6667 8.4878C14.2985 8.4878 14 8.78264 14 9.14634V16.1707C14 16.5344 14.2985 16.8293 14.6667 16.8293C15.0349 16.8293 15.3333 16.5344 15.3333 16.1707V9.14634Z" />
</svg>
