<svg width="24" height="25" viewBox="0 0 24 25" fill="none" xmlns="http://www.w3.org/2000/svg">
<g clip-path="url(#clip0_9837_13125)">
<path fill-rule="evenodd" clip-rule="evenodd" d="M12 24.21C16.4183 24.21 20 20.6282 20 16.21C20 11.7917 16.4183 8.20996 12 8.20996C7.58172 8.20996 4 11.7917 4 16.21C4 20.6282 7.58172 24.21 12 24.21ZM8.19655 12.5162C8.33467 12.3506 8.52527 12.2442 8.73391 12.2161C8.79371 12.208 9.07228 12.2079 9.13469 12.2159C9.3218 12.2399 9.48897 12.3225 9.61842 12.4548C9.63851 12.4753 10.4799 13.4804 11.4882 14.6884L13.9514 17.6394L14.6149 18.4342C14.6332 18.4562 14.654 18.4774 14.661 18.4812C14.6898 18.4971 14.7312 18.4832 14.7468 18.4523L14.7558 18.4345L14.7557 16.186C14.7556 14.006 14.7554 13.9371 14.7482 13.9213C14.7328 13.8874 14.6977 13.8749 14.6659 13.8921C14.6563 13.8973 14.2773 14.225 13.8238 14.6203C13.3703 15.0156 12.9899 15.3449 12.9785 15.3522C12.9481 15.3715 12.9215 15.3781 12.8805 15.3764C12.853 15.3752 12.8409 15.3726 12.8219 15.3638C12.7294 15.3206 12.6847 15.2207 12.7202 15.1364C12.7314 15.1099 14.4335 12.5787 14.4742 12.5279C14.5109 12.4822 14.5791 12.4161 14.6251 12.3815C14.7758 12.2684 14.9531 12.21 15.1458 12.21C15.2476 12.21 15.327 12.2227 15.42 12.2537C15.731 12.3575 15.9597 12.6411 15.9955 12.9675C16.0015 13.0223 16.0015 19.3975 15.9955 19.4523C15.9853 19.5455 15.9563 19.6443 15.9136 19.7315C15.7983 19.9672 15.5819 20.1371 15.3278 20.1916C15.2548 20.2072 15.2138 20.21 15.0541 20.21C14.8888 20.21 14.849 20.2067 14.7658 20.1863C14.611 20.1484 14.4792 20.0735 14.3692 19.9611C14.3491 19.9405 14.1109 19.6579 13.8399 19.3331C13.2919 18.6763 12.832 18.1254 10.7632 15.6475C9.98369 14.7138 9.33978 13.9458 9.3323 13.9407C9.30689 13.9236 9.26694 13.933 9.24627 13.9609L9.2379 13.9722V16.2292V18.4862L9.24721 18.4993C9.26479 18.524 9.29985 18.533 9.32562 18.5194C9.33207 18.516 9.71046 18.19 10.1665 17.795C10.868 17.1873 11.0003 17.0743 11.0263 17.0608C11.0567 17.0449 11.0572 17.0448 11.1016 17.0448C11.1451 17.0448 11.1471 17.0452 11.1761 17.0595C11.2494 17.0959 11.2932 17.1746 11.2804 17.2472C11.278 17.2614 11.2705 17.2838 11.2639 17.297C11.2572 17.3102 10.9078 17.8319 10.4874 18.4562C10.067 19.0805 9.68256 19.6517 9.63308 19.7255C9.53171 19.8766 9.50152 19.9158 9.4434 19.9716C9.30734 20.1023 9.13679 20.183 8.94801 20.2059C8.89988 20.2117 8.79332 20.2108 8.74391 20.2042C8.3566 20.1521 8.05773 19.8529 8.00572 19.4652C8.00091 19.4293 8.00007 18.9525 8 16.2118C7.99995 14.0416 8.00125 12.9894 8.00403 12.9665C8.02414 12.8002 8.09196 12.6415 8.19655 12.5162Z" fill="#2C3034"/>
<path fill-rule="evenodd" clip-rule="evenodd" d="M8.25 3.20996C7.83579 3.20996 7.5 3.54575 7.5 3.95996L7.5 6.45996C7.5 6.87417 7.83579 7.20996 8.25 7.20996C8.66421 7.20996 9 6.87417 9 6.45996L9 3.95996C9 3.54575 8.66421 3.20996 8.25 3.20996Z" fill="#2C3034"/>
<path fill-rule="evenodd" clip-rule="evenodd" d="M12.25 1.20996C11.8358 1.20996 11.5 1.54575 11.5 1.95996L11.5 5.45996C11.5 5.87417 11.8358 6.20996 12.25 6.20996C12.6642 6.20996 13 5.87417 13 5.45996L13 1.95996C13 1.54575 12.6642 1.20996 12.25 1.20996Z" fill="#2C3034"/>
<path fill-rule="evenodd" clip-rule="evenodd" d="M16.25 3.20996C15.8358 3.20996 15.5 3.54575 15.5 3.95996L15.5 6.45996C15.5 6.87417 15.8358 7.20996 16.25 7.20996C16.6642 7.20996 17 6.87417 17 6.45996L17 3.95996C17 3.54575 16.6642 3.20996 16.25 3.20996Z" fill="#2C3034"/>
</g>
<defs>
<clipPath id="clip0_9837_13125">
<rect width="24" height="24" fill="white" transform="translate(0 0.209961)"/>
</clipPath>
</defs>
</svg>
