<svg width="24" height="25" viewBox="0 0 24 25" fill="none" xmlns="http://www.w3.org/2000/svg">
<path fill-rule="evenodd" clip-rule="evenodd" d="M19.7525 14.4524C19.9439 13.7533 20.0461 13.0174 20.0461 12.2576C20.0461 11.4978 19.9439 10.7619 19.7525 10.0628H16.508C16.5891 10.7683 16.632 11.5029 16.632 12.2576C16.632 13.0123 16.5891 13.747 16.508 14.4524H19.7525ZM19.1976 15.9156H16.2774C15.9482 17.5423 15.406 18.9509 14.7199 20.0031C16.6776 19.2532 18.2784 17.7824 19.1976 15.9156ZM15.0344 14.4524C15.1215 13.7564 15.1688 13.0213 15.1688 12.2576C15.1688 11.4939 15.1215 10.7588 15.0344 10.0628H8.47492C8.38779 10.7588 8.34052 11.4939 8.34052 12.2576C8.34052 13.0213 8.38779 13.7564 8.47492 14.4524H15.0344ZM8.72777 15.9156H14.7815C14.5605 16.9044 14.2555 17.7793 13.8947 18.5008C13.0899 20.1105 12.2487 20.5491 11.7547 20.5491C11.2606 20.5491 10.4194 20.1105 9.61458 18.5008C9.25383 17.7793 8.94883 16.9044 8.72777 15.9156ZM7.00128 14.4524C6.92018 13.747 6.87733 13.0123 6.87733 12.2576C6.87733 11.5029 6.92018 10.7683 7.00128 10.0628H3.7568C3.5654 10.7619 3.4632 11.4978 3.4632 12.2576C3.4632 13.0174 3.5654 13.7533 3.7568 14.4524H7.00128ZM4.31166 15.9156H7.23186C7.56109 17.5423 8.10334 18.9509 8.78943 20.0031C6.83174 19.2532 5.23088 17.7824 4.31166 15.9156ZM14.7199 4.5121C16.6776 5.26202 18.2784 6.7328 19.1976 8.59961H16.2774C15.9482 6.97294 15.406 5.56431 14.7199 4.5121ZM13.8947 6.01438C14.2555 6.73588 14.5605 7.61085 14.7815 8.59961H8.72777C8.94883 7.61085 9.25383 6.73588 9.61458 6.01438C10.4194 4.40468 11.2606 3.96615 11.7547 3.96615C12.2487 3.96615 13.0899 4.40468 13.8947 6.01438ZM8.78943 4.5121C8.10334 5.56431 7.56109 6.97294 7.23186 8.59961H4.31166C5.23088 6.7328 6.83174 5.26202 8.78943 4.5121ZM11.7547 2.50295C6.36891 2.63431 2 6.87026 2 12.2576C2 15.0755 3.1948 17.6142 5.10544 19.395C6.88616 21.3054 9.42477 22.5 12.2424 22.5C17.6297 22.5 21.8657 18.1311 21.9971 12.7453C22.135 7.09029 17.4097 2.36501 11.7547 2.50295Z" fill="#2C3034"/>
</svg>
