<svg width="40" height="40" viewBox="0 0 40 40" fill="none" xmlns="http://www.w3.org/2000/svg">
<path fill-rule="evenodd" clip-rule="evenodd" d="M9.3852 7.01984C8.70712 7.11123 8.08769 7.45715 7.6388 7.99515C7.29886 8.40256 7.07846 8.91813 7.01308 9.4588C7.00407 9.53331 6.99982 12.9527 7.00001 20.006C7.00021 28.9131 7.00294 30.4629 7.01858 30.5795C7.18763 31.8396 8.15894 32.8119 9.4177 32.9811C9.57828 33.0027 9.92459 33.0056 10.081 32.9866C10.6946 32.9123 11.2489 32.6502 11.6911 32.2253C11.8799 32.0439 11.9781 31.9165 12.3075 31.4254C12.4683 31.1856 13.7178 29.3293 15.0841 27.3002C16.4505 25.2711 17.586 23.5758 17.6076 23.5329C17.6291 23.49 17.6534 23.4172 17.6615 23.3711C17.7029 23.135 17.5607 22.8792 17.3222 22.7611C17.2281 22.7144 17.2214 22.7131 17.0802 22.7131C16.936 22.7131 16.9343 22.7135 16.8354 22.7651C16.7511 22.8092 16.3211 23.1764 14.0411 25.1514C12.559 26.4353 11.3292 27.4947 11.3083 27.5057C11.2245 27.5497 11.1106 27.5205 11.0534 27.4403L11.0232 27.3978V20.0626V12.7274L11.0504 12.6906C11.1176 12.5999 11.2474 12.5695 11.33 12.625C11.3543 12.6414 13.447 15.1374 15.9804 18.1719C22.7041 26.2251 24.1988 28.0156 25.9796 30.1501C26.8604 31.2058 27.6346 32.1242 27.6999 32.191C28.0575 32.5565 28.4859 32.7998 28.9888 32.9231C29.2594 32.9894 29.3888 33 29.926 33C30.4448 33 30.578 32.991 30.8153 32.9402C31.6413 32.7631 32.3444 32.2109 32.7193 31.4449C32.858 31.1615 32.9521 30.8406 32.9853 30.5378C33.0049 30.3596 33.0049 9.64003 32.9853 9.46188C32.8689 8.40133 32.1256 7.47943 31.1149 7.14209C30.8128 7.04127 30.5546 7.00015 30.2238 7.00015C29.5975 7.00015 29.0212 7.18999 28.5317 7.55757C28.3819 7.66999 28.1606 7.8847 28.0413 8.03319C27.9087 8.19828 22.377 16.4248 22.3407 16.5108C22.2251 16.785 22.3704 17.1097 22.6713 17.25C22.7328 17.2787 22.7723 17.2871 22.8615 17.2909C22.9947 17.2964 23.0814 17.2751 23.1803 17.2122C23.2173 17.1887 24.4535 16.1183 25.9274 14.8336C27.4012 13.5489 28.6328 12.4838 28.6643 12.4669C28.7676 12.4112 28.8817 12.4516 28.9316 12.5618C28.955 12.6132 28.9557 12.837 28.956 19.9222L28.9563 27.2296L28.927 27.2877C28.8765 27.388 28.7419 27.4333 28.6481 27.3816C28.6254 27.369 28.558 27.3002 28.4983 27.2287C28.4387 27.1571 27.4684 25.9947 26.3421 24.6455C25.2159 23.2964 21.6134 18.9806 18.3365 15.0548C15.0597 11.1291 12.3252 7.86247 12.2599 7.79573C11.8391 7.36572 11.2958 7.09741 10.6878 7.01935C10.4849 6.99329 9.57957 6.99365 9.3852 7.01984Z" fill="#2C3034"/>
</svg>
