<?xml version="1.0" standalone="no"?>
<!DOCTYPE svg PUBLIC "-//W3C//DTD SVG 20010904//EN"
 "http://www.w3.org/TR/2001/REC-SVG-20010904/DTD/svg10.dtd">
<svg version="1.0" xmlns="http://www.w3.org/2000/svg"
 width="640.000000pt" height="640.000000pt" viewBox="0 0 640.000000 640.000000"
 preserveAspectRatio="xMidYMid meet">
<metadata>
Created by potrace 1.14, written by Peter Selinger 2001-2017
</metadata>
<g transform="translate(0.000000,640.000000) scale(0.100000,-0.100000)"
fill="#000000" stroke="none">
<path d="M3288 4497 l-125 -232 41 -197 41 -196 157 -78 c86 -43 154 -82 151
-87 -3 -6 -1 -7 5 -3 14 9 123 -45 115 -57 -3 -6 -1 -7 5 -3 6 4 21 2 33 -5
21 -11 22 -10 15 22 -14 74 -300 1069 -307 1069 -4 0 -63 -105 -131 -233z"/>
<path d="M1246 3539 c-71 -126 -126 -232 -124 -234 2 -2 174 -88 383 -190
l380 -186 65 6 c70 6 656 42 858 52 67 3 125 9 127 13 2 3 -36 26 -85 50 -49
24 -86 48 -83 53 3 6 1 7 -5 3 -15 -9 -533 244 -525 257 3 6 1 7 -5 3 -6 -4
-199 86 -428 199 -229 113 -420 205 -423 205 -4 0 -65 -104 -135 -231z"/>
<path d="M1103 2666 c-68 -123 -123 -227 -123 -230 0 -3 353 -181 784 -395
l785 -389 473 29 c260 16 583 35 718 44 950 57 1425 87 1426 88 15 18 254 460
251 463 -2 3 -119 -2 -258 -11 -140 -8 -400 -24 -579 -35 -179 -11 -433 -26
-565 -35 -132 -8 -395 -24 -585 -35 -190 -12 -408 -25 -484 -30 l-139 -8 -73
36 c-61 30 -71 38 -61 51 10 12 9 13 -9 3 -18 -9 -64 11 -328 141 -179 88
-304 156 -299 161 4 5 3 6 -4 2 -17 -9 -694 324 -686 337 3 6 1 7 -5 3 -6 -4
-29 2 -51 14 -22 11 -46 20 -53 20 -7 0 -68 -101 -135 -224z"/>
</g>
</svg>
