<svg width="40" height="40" viewBox="0 0 40 40" fill="none" xmlns="http://www.w3.org/2000/svg">
<circle cx="20" cy="20" r="20" fill="#44484C"/>
<path fill-rule="evenodd" clip-rule="evenodd" d="M26.664 29.9969C26.664 29.9969 25.8008 28.9733 25.0816 28.0686C26.8193 27.6623 28.3563 26.6589 29.4208 25.2357C28.5583 25.8059 27.6335 26.2771 26.664 26.6402C25.5488 27.1129 24.3824 27.4564 23.188 27.6639C21.1349 28.0392 19.0294 28.0312 16.9793 27.6402C15.7756 27.4062 14.596 27.0636 13.4551 26.6166C12.8538 26.3869 12.2691 26.1164 11.7051 25.8072C11.6332 25.7594 11.5615 25.7357 11.4895 25.6881C11.4534 25.6703 11.4209 25.6461 11.3936 25.6167C10.9623 25.3787 10.7222 25.212 10.7222 25.212C11.7482 26.6052 13.2321 27.5988 14.9175 28.021C14.1985 28.9258 13.3115 29.9969 13.3115 29.9969C11.8875 30.035 10.4759 29.7249 9.20091 29.0939C7.92596 28.4629 6.82674 27.5304 6 26.3784C6.07784 21.5523 7.25813 16.8067 9.45185 12.4996C11.3825 10.9939 13.7362 10.1205 16.188 10L16.4276 10.2858C14.1209 10.8526 11.9683 11.9173 10.1231 13.4043C10.1231 13.4043 10.6506 13.1186 11.5374 12.7139C13.2606 11.9327 15.0972 11.4266 16.9794 11.2143C17.1136 11.1865 17.2501 11.1705 17.3871 11.1665C18.9935 10.9587 20.6191 10.9428 22.2293 11.119C24.7616 11.4062 27.2129 12.1825 29.445 13.4043C27.6934 11.9883 25.6589 10.9578 23.4762 10.3809L23.8117 10.0002C26.2635 10.1206 28.6173 10.994 30.5478 12.4998C32.7418 16.8069 33.9222 21.5524 34 26.3785C33.1665 27.5294 32.0625 28.4607 30.784 29.0913C29.5054 29.7219 28.0911 30.0328 26.664 29.9969ZM15.5169 18.8796C16.1677 18.8796 16.7918 19.1364 17.252 19.5934C17.7122 20.0504 17.9707 20.6702 17.9707 21.3165C17.9706 21.9628 17.7121 22.5826 17.2519 23.0396C16.7917 23.4966 16.1676 23.7533 15.5168 23.7533C14.866 23.7533 14.2418 23.4966 13.7816 23.0396C13.3214 22.5826 13.0629 21.9628 13.0629 21.3165C13.0629 20.6702 13.3214 20.0504 13.7815 19.5934C14.2417 19.1364 14.8661 18.8796 15.5169 18.8796ZM22.7258 19.2142C23.1938 18.9511 23.7309 18.8345 24.2668 18.8796C24.6021 18.8935 24.9313 18.9729 25.2357 19.1133C25.5401 19.2536 25.8136 19.4522 26.0407 19.6976C26.2678 19.943 26.4439 20.2304 26.5591 20.5434C26.6742 20.8565 26.7261 21.189 26.7118 21.5219C26.7118 22.056 26.5495 22.5776 26.246 23.0185C25.9426 23.4594 25.5121 23.7991 25.011 23.993C24.5099 24.1869 23.9615 24.2261 23.4377 24.1054C22.9138 23.9847 22.4388 23.7097 22.0749 23.3164C21.711 22.9232 21.4752 22.43 21.3983 21.9014C21.3213 21.3729 21.4069 20.8335 21.6438 20.3541C21.8806 19.8746 22.2578 19.4773 22.7258 19.2142Z" fill="white"/>
</svg>
