<svg width="96" height="21" viewBox="0 0 96 21" fill="none" xmlns="http://www.w3.org/2000/svg">
<g clip-path="url(#clip0_9188_63138)">
<path d="M42.3772 17.6717V12.1825H47.5623V17.6717H51.4512V3.24908H47.5623V8.73833H42.3772V3.24908H38.4883V17.6717H42.3772Z" fill="#2C3034"/>
<path d="M64.2005 17.6717V14.2275H57.0061V12.1825H63.1203V8.73833H57.0061V6.69332H64.2005V3.24908H53.1172V17.6717H64.2005Z" fill="#2C3034"/>
<path d="M69.6701 17.6717V12.5054H69.9726C71.161 12.5054 71.701 12.8714 72.284 13.8185L74.682 17.6717H79.1114L77.0371 14.4212C76.303 13.2803 75.6548 12.3547 74.1643 11.9888C76.6267 11.7735 78.5061 10.5465 78.5061 7.76963C78.5061 4.58373 76.0867 3.24908 72.7167 3.24908H65.7812V17.6717H69.6701ZM72.7597 6.69332C73.8612 6.69332 74.4013 7.14534 74.4013 8.04945C74.4013 8.932 73.8612 9.40565 72.7597 9.40565H69.6701V6.69332H72.7597Z" fill="#2C3034"/>
<path d="M91.0248 17.6717V14.2275H83.8299V12.1825H89.9439V8.73833H83.8299V6.69332H91.0248V3.24908H79.9414V17.6717H91.0248Z" fill="#2C3034"/>
<path d="M95.994 17.6717V13.9907H92.1055V17.6717H95.994Z" fill="#F3EBEA"/>
<path d="M95.994 17.6717V13.9907H92.1055V17.6717H95.994Z" fill="#FD84E3"/>
<path d="M12.4094 17.9839L12.4472 18.0026L12.4893 18L30.0859 16.9357L28.5213 19.7488L10.7648 20.8227L0.219353 15.6066L1.81243 12.7423L12.4094 17.9839ZM15.6923 5.92559L15.1235 3.23645L16.6438 0.412307L18.701 7.28084L15.6923 5.92559ZM13.1314 11.7304L6.37589 12.1949L1.18894 9.66669L2.79315 6.78463L13.1314 11.7304Z" fill="#2C3034" stroke="#FDBF1E" stroke-width="0.316981"/>
<path d="M30.3648 16.7603L12.4846 17.8422L1.66016 12.5211L13.3815 11.8144L2.72602 6.57728L7.95854 2.16189L18.8129 7.48044L16.6847 0L27.0567 5.06758L30.3648 16.7603Z" fill="#FDBF1C"/>
</g>
<defs>
<clipPath id="clip0_9188_63138">
<rect width="96" height="21" fill="white"/>
</clipPath>
</defs>
</svg>
