<svg width="362" height="48" viewBox="0 0 362 48" fill="none" xmlns="http://www.w3.org/2000/svg">
<path d="M96.8622 40.3946V27.8478H108.714V40.3946H117.603V7.42859H108.714V19.9754H96.8622V7.42859H87.9732V40.3946H96.8622Z" fill="#2C3034"/>
<path d="M146.744 40.3946V32.5221H130.3V27.8478H144.275V19.9754H130.3V15.3011H146.744V7.42859H121.411V40.3946H146.744Z" fill="#2C3034"/>
<path d="M159.25 40.3946V28.5859H159.942C162.658 28.5859 163.893 29.4224 165.225 31.5873L170.706 40.3946H180.831L176.089 32.965C174.411 30.3572 172.93 28.2414 169.523 27.4051C175.151 26.913 179.447 24.1085 179.447 17.7613C179.447 10.4792 173.917 7.42859 166.214 7.42859H150.362V40.3946H159.25ZM166.312 15.3011C168.83 15.3011 170.065 16.3343 170.065 18.4008C170.065 20.4181 168.83 21.5007 166.312 21.5007H159.25V15.3011H166.312Z" fill="#2C3034"/>
<path d="M208.052 40.3946V32.5221H191.607V27.8478H205.582V19.9754H191.607V15.3011H208.052V7.42859H182.719V40.3946H208.052Z" fill="#2C3034"/>
<path d="M219.41 40.3914V31.9777H210.522V40.3914H219.41Z" fill="#F3EBEA"/>
<path d="M219.41 40.3914V31.9777H210.522V40.3914H219.41Z" fill="#FD84E3"/>
<path d="M28.3644 41.1061L28.4507 41.1488L28.5469 41.1429L68.7678 38.7102L65.1916 45.1401L24.6054 47.5947L0.501379 35.6723L4.14269 29.1252L28.3644 41.1061ZM35.8682 13.5442L34.568 7.39759L38.0429 0.942414L42.7453 16.6419L35.8682 13.5442ZM30.0147 26.8122L14.5735 27.8741L2.71758 22.0953L6.38434 15.5077L30.0147 26.8122Z" fill="#2C3034" stroke="#FDBF1E" stroke-width="0.724528"/>
<path d="M69.4097 38.3093L28.5407 40.7822L3.79907 28.6196L30.5908 27.0044L6.23533 15.0338L18.1954 4.94146L43.0053 17.0981L38.1408 0L61.8482 11.583L69.4097 38.3093Z" fill="#FDBF1C"/>
<path d="M244.438 41.1429H231.427L224 6.85718H234.655L237.318 24.1536L238.24 35.3604L239.726 25.4329L243.158 6.85718H255.452L258.884 25.4329L260.318 35.3604L261.291 24.1536L263.955 6.85718H274.609L267.182 41.1429H254.171L250.995 25.9958L249.305 13.0491L247.665 25.9958L244.438 41.1429Z" fill="#2C3034"/>
<path d="M302.438 41.1429H276.16V6.85718H302.438V15.0448H285.381V19.9062H299.877V28.0939H285.381V32.9553H302.438V41.1429Z" fill="#2C3034"/>
<path d="M323.809 41.1429H305.624V6.85718H323.962C332.312 6.85718 334.976 10.951 334.976 15.5565C334.976 22.8742 327.855 23.7442 322.784 23.7442C332.568 23.7442 336 27.2239 336 32.3924C336 39.1472 331.031 41.1429 323.809 41.1429ZM321.76 15.0448H314.845V20.1621H321.76C323.962 20.1621 325.243 19.4457 325.243 17.6546C325.243 15.8124 323.962 15.0448 321.76 15.0448ZM322.528 27.3263H314.845V32.9553H322.528C325.397 32.9553 326.575 31.983 326.575 30.1408C326.575 28.2474 325.397 27.3263 322.528 27.3263Z" fill="#2C3034"/>
</svg>
