<svg width="48" height="36" viewBox="0 0 48 36" fill="none" xmlns="http://www.w3.org/2000/svg">
    <path
        d="M19.6272 29.6175L19.6818 29.6446L19.7427 29.6409L47.0168 27.9859L44.5745 32.3914L17.0706 34.0603L0.723803 25.9485L3.20701 21.4692L19.6272 29.6175ZM24.6882 10.9164L23.8043 6.72433L26.18 2.29672L29.3875 13.0401L24.6882 10.9164ZM20.8047 19.933L10.2757 20.6593L2.22487 16.7225L4.72527 12.2157L20.8047 19.933Z"
        fill="#2C3034" stroke="#FDBF1E" stroke-width="0.457415" />
    <path
        d="M19.7849 29.1813L3.85416 21.3245L21.1406 20.279L22.0014 20.2269L21.228 19.8456L5.04394 11.8653L12.7644 5.32934L29.4348 13.5242L29.8959 13.7509L29.7557 13.2566L26.6008 2.13128L42.1063 9.73164L47.1232 27.5217L19.7849 29.1813Z"
        fill="#FDBF1E" stroke="#FDBF1E" stroke-width="0.457415" />
</svg>