<svg width="48" height="49" viewBox="0 0 48 49" fill="none" xmlns="http://www.w3.org/2000/svg">
    <rect x="0.086823" y="0.586823" width="23.6159" height="15.1072" rx="7.5536" fill="#FDBF1E" />
    <rect x="0.086823" y="0.586823" width="23.6159" height="15.1072" rx="7.5536" stroke="#2C3034"
        stroke-width="0.173646" />
    <path
        d="M7.85638 10.1404H6.85618V8.94019L5.42256 6.41746H6.68948L7.05066 7.23984L7.37851 8.09557L7.70635 7.23984L8.07309 6.41746H9.30667L7.85638 8.9513V10.1404ZM10.4286 10.196C9.55065 10.196 9.00053 9.58476 9.00053 8.76793C9.00053 7.9511 9.55065 7.33986 10.4286 7.33986C11.351 7.33986 11.9011 7.9511 11.9011 8.76793C11.9011 9.58476 11.351 10.196 10.4286 10.196ZM10.4508 9.39583C10.7064 9.39583 10.8842 9.2458 10.8842 8.76793C10.8842 8.29005 10.7064 8.14002 10.4508 8.14002C10.1952 8.14002 10.0174 8.29005 10.0174 8.76793C10.0174 9.2458 10.1952 9.39583 10.4508 9.39583ZM13.0267 10.196C12.5155 10.196 12.2043 9.87926 12.2043 9.31804V7.39543H13.2045V8.92907C13.2045 9.26247 13.2657 9.44029 13.5657 9.44029C13.8547 9.44029 13.9269 9.33471 13.9269 8.89018V7.39543H14.9271V10.1404H13.9269V9.3236C13.8491 9.77924 13.5991 10.196 13.0267 10.196ZM16.374 10.1404H15.3738V7.39543H16.374V8.32339C16.4573 7.85108 16.7185 7.33986 17.2797 7.33986C17.7576 7.33986 17.9354 7.63992 17.9354 8.09557C17.9354 8.42897 17.8243 8.71236 17.7465 8.85128H16.8296C16.9296 8.73459 17.0408 8.52344 17.0408 8.35673C17.0408 8.20115 16.9741 8.09557 16.813 8.09557C16.5851 8.09557 16.374 8.31228 16.374 8.75682V10.1404Z"
        fill="#2C3034" />
    <rect x="1.46573" y="20.0842" width="23.6159" height="15.1072" rx="7.5536" fill="#F6E300" />
    <rect x="1.46573" y="20.0842" width="23.6159" height="15.1072" rx="7.5536" stroke="#2C3034"
        stroke-width="0.173646" />
    <path
        d="M9.23529 29.6378H8.23509V28.4375L6.80147 25.9148H8.06839L8.42957 26.7372L8.75741 27.5929L9.08526 26.7372L9.452 25.9148H10.6856L9.23529 28.4487V29.6378ZM11.8075 29.6934C10.9296 29.6934 10.3794 29.0821 10.3794 28.2653C10.3794 27.4485 10.9296 26.8372 11.8075 26.8372C12.7299 26.8372 13.28 27.4485 13.28 28.2653C13.28 29.0821 12.7299 29.6934 11.8075 29.6934ZM11.8297 28.8932C12.0853 28.8932 12.2632 28.7432 12.2632 28.2653C12.2632 27.7874 12.0853 27.6374 11.8297 27.6374C11.5741 27.6374 11.3963 27.7874 11.3963 28.2653C11.3963 28.7432 11.5741 28.8932 11.8297 28.8932ZM14.4056 29.6934C13.8944 29.6934 13.5833 29.3766 13.5833 28.8154V26.8928H14.5835V28.4264C14.5835 28.7598 14.6446 28.9376 14.9446 28.9376C15.2336 28.9376 15.3058 28.8321 15.3058 28.3875V26.8928H16.306V29.6378H15.3058V28.821C15.228 29.2766 14.978 29.6934 14.4056 29.6934ZM17.7529 29.6378H16.7527V26.8928H17.7529V27.8208C17.8362 27.3484 18.0974 26.8372 18.6586 26.8372C19.1365 26.8372 19.3143 27.1373 19.3143 27.5929C19.3143 27.9263 19.2032 28.2097 19.1254 28.3486H18.2085C18.3086 28.2319 18.4197 28.0208 18.4197 27.8541C18.4197 27.6985 18.353 27.5929 18.1919 27.5929C17.964 27.5929 17.7529 27.8096 17.7529 28.2542V29.6378Z"
        fill="#2C3034" />
    <rect x="21.9892" y="8.79623" width="23.2686" height="15.1072" rx="7.5536" fill="#F479D9" />
    <rect x="21.9892" y="8.79623" width="23.2686" height="15.1072" rx="7.5536" stroke="#2C3034"
        stroke-width="0.173646" />
    <path
        d="M28.346 18.3498H27.3458V14.6269H28.346V15.5993L28.3182 16.255L28.8072 15.5993L29.6018 14.6269H30.752L29.5518 16.0772L30.7798 18.3498H29.6629L28.8517 16.8329L28.346 17.4108V18.3498ZM32.1691 18.4054C31.2245 18.4054 30.7022 17.8108 30.7022 16.9773C30.7022 16.1438 31.2356 15.5493 32.0747 15.5493C33.0137 15.5493 33.4194 16.1772 33.4194 16.8384C33.4194 16.9718 33.4083 17.1774 33.3916 17.2441H31.6301C31.6912 17.5108 31.908 17.6052 32.1858 17.6052C32.4581 17.6052 32.6581 17.5275 32.7637 17.2885L33.3694 17.8664C33.1582 18.1387 32.797 18.4054 32.1691 18.4054ZM32.0802 16.2939C31.8079 16.2939 31.6357 16.4383 31.6135 16.7273H32.5248C32.5081 16.4495 32.3803 16.2939 32.0802 16.2939ZM34.578 19.4389C34.1557 19.4389 33.75 19.2834 33.5222 19.1167L33.8667 18.2443C34.0723 18.4332 34.3113 18.561 34.5446 18.561C34.7447 18.561 34.8503 18.5054 34.9336 18.2943L34.9836 18.1609H34.3891L33.5111 15.6048H34.6336L34.8947 16.5884L35.1059 17.7275L35.3226 16.5884L35.5893 15.6048H36.734L35.7782 18.4832C35.5504 19.1611 35.1892 19.4389 34.578 19.4389ZM38.1266 18.4054C37.4931 18.4054 36.9374 18.1998 36.6652 17.9887L37.0375 17.2663C37.3542 17.483 37.8265 17.6719 38.1544 17.6719C38.3044 17.6719 38.3766 17.6386 38.3766 17.5608C38.3766 17.4774 38.2822 17.4385 38.0043 17.3663L37.6265 17.2663C37.0652 17.1163 36.7541 16.9107 36.7541 16.4495C36.7541 15.8827 37.2264 15.5548 37.9543 15.5548C38.56 15.5548 38.999 15.7827 39.2157 15.9438L38.8767 16.6551C38.5211 16.3939 38.1321 16.2828 37.8599 16.2828C37.7209 16.2828 37.6543 16.3272 37.6543 16.3939C37.6543 16.4772 37.732 16.5161 38.0877 16.6217L38.3711 16.7051C38.9656 16.8773 39.2657 17.0996 39.2657 17.5441C39.2657 18.0609 38.8323 18.4054 38.1266 18.4054Z"
        fill="#2C3034" />
    <rect x="18.567" y="33.306" width="29.3462" height="15.1072" rx="7.5536" fill="#7CD86D" />
    <rect x="18.567" y="33.306" width="29.3462" height="15.1072" rx="7.5536" stroke="#2C3034" stroke-width="0.173646" />
    <path
        d="M25.7962 42.904C24.6071 42.904 23.8792 42.065 23.8792 40.9925C23.8792 39.9201 24.6071 39.081 25.7962 39.081C26.5908 39.081 27.1687 39.4645 27.4799 40.0423L26.6464 40.7592C26.5464 40.398 26.2574 40.0479 25.7851 40.0479C25.2683 40.0479 24.9627 40.4313 24.9627 40.9925C24.9627 41.5538 25.2683 41.9372 25.7851 41.9372C26.2574 41.9372 26.5464 41.5871 26.6464 41.2259L27.4799 41.9427C27.1687 42.5206 26.5908 42.904 25.7962 42.904ZM28.7015 42.8596H27.7013V40.1146H28.7015V41.0425C28.7849 40.5702 29.046 40.059 29.6073 40.059C30.0851 40.059 30.2629 40.3591 30.2629 40.8147C30.2629 41.1481 30.1518 41.4315 30.074 41.5704H29.1572C29.2572 41.4537 29.3683 41.2426 29.3683 41.0759C29.3683 40.9203 29.3016 40.8147 29.1405 40.8147C28.9127 40.8147 28.7015 41.0314 28.7015 41.476V42.8596ZM31.3738 43.9487C30.9514 43.9487 30.5458 43.7931 30.318 43.6264L30.6625 42.754C30.8681 42.9429 31.107 43.0707 31.3404 43.0707C31.5405 43.0707 31.646 43.0152 31.7294 42.804L31.7794 42.6707H31.1848L30.3069 40.1146H31.4293L31.6905 41.0981L31.9016 42.2372L32.1184 41.0981L32.3851 40.1146H33.5297L32.574 42.9929C32.3462 43.6709 31.985 43.9487 31.3738 43.9487ZM34.7791 43.8931H33.7789V40.1146H34.7791V40.9259C34.8514 40.4702 35.057 40.059 35.646 40.059C36.2461 40.059 36.6517 40.548 36.6517 41.4871C36.6517 42.4262 36.2461 42.9151 35.5904 42.9151C35.0014 42.9151 34.8458 42.5095 34.7791 42.0594V43.8931ZM34.7791 41.6093C34.7791 42.0539 34.9569 42.1594 35.1681 42.1594C35.4904 42.1594 35.6349 41.8927 35.6349 41.4871C35.6349 41.0814 35.4904 40.8147 35.1681 40.8147C34.9569 40.8147 34.7791 40.9203 34.7791 41.3648V41.6093ZM38.1047 42.9151C37.3934 42.9151 37.1322 42.5095 37.1322 41.9761V40.8703H36.7433V40.1146H37.1322V39.8034L38.1324 39.3589V40.1146H38.7993V40.8703H38.1324V41.8316C38.1324 41.9761 38.2047 42.0483 38.3325 42.0483C38.4547 42.0483 38.5992 41.9594 38.6881 41.8205L38.9604 42.5706C38.8437 42.704 38.5492 42.9151 38.1047 42.9151ZM40.4083 42.9151C39.5304 42.9151 38.9803 42.3039 38.9803 41.4871C38.9803 40.6703 39.5304 40.059 40.4083 40.059C41.3307 40.059 41.8809 40.6703 41.8809 41.4871C41.8809 42.3039 41.3307 42.9151 40.4083 42.9151ZM40.4306 42.115C40.6862 42.115 40.864 41.965 40.864 41.4871C40.864 41.0092 40.6862 40.8592 40.4306 40.8592C40.175 40.8592 39.9971 41.0092 39.9971 41.4871C39.9971 41.965 40.175 42.115 40.4306 42.115Z"
        fill="#2C3034" />
</svg>