<svg width="24" height="24" viewBox="0 0 24 24" fill="none" xmlns="http://www.w3.org/2000/svg">
<path fill-rule="evenodd" clip-rule="evenodd" d="M13.7021 4C14.9712 4 16 5.02335 16 6.28571V7.30159C16 7.72238 15.6571 8.06349 15.234 8.06349C14.811 8.06349 14.4681 7.72238 14.4681 7.30159V6.28571C14.4681 5.86493 14.1252 5.52381 13.7021 5.52381H6.55319C6.13016 5.52381 5.78723 5.86493 5.78723 6.28571V17.4603C5.78723 17.8811 6.13017 18.2222 6.55319 18.2222H13.7021C14.1252 18.2222 14.4681 17.8811 14.4681 17.4603V16.4444C14.4681 16.0237 14.811 15.6825 15.234 15.6825C15.6571 15.6825 16 16.0237 16 16.4444V17.4603C16 18.2767 15.5698 18.9931 14.9225 19.3974C14.6427 19.7636 14.2002 20 13.7021 20H6.04255C5.02128 20 4 18.9841 4 17.9683V6.28571C4 5.79029 4.23769 5.35008 4.60582 5.07177C5.0123 4.42796 5.7325 4 6.55319 4H13.7021Z" fill="#2C3034"/>
<path d="M10 12H19" stroke="#2C3034" stroke-width="1.5" stroke-linecap="round"/>
<path d="M20 12C19.5962 12 17 12.24 17 14" stroke="#2C3034" stroke-width="1.5" stroke-linecap="round"/>
<path d="M20 12C19.5962 12 17 11.76 17 10" stroke="#2C3034" stroke-width="1.5" stroke-linecap="round"/>
</svg>
