<svg width="111" height="24" viewBox="0 0 111 24" fill="none" xmlns="http://www.w3.org/2000/svg">
<g clip-path="url(#clip0_9126_62927)">
<path d="M21.2695 18.9692C20.1508 20.1314 18.7849 21.0471 17.2654 21.6537C13.7671 23.0231 10.597 22.2326 9.46109 21.8813C8.4721 21.5754 6.67199 20.9958 5.09998 19.3586C3.72453 17.9258 3.23408 16.4251 3.01266 15.7207C2.18276 13.0835 2.69664 10.7909 3.02009 9.71911C3.02009 9.74311 3.00397 9.92738 2.98985 10.2295C2.94224 11.2729 2.86439 13.4793 3.97413 15.6282C4.34044 16.3378 5.14691 17.6431 6.81088 18.8075C8.02953 19.7213 9.45211 20.3491 10.966 20.641C12.4799 20.9329 14.0436 20.881 15.5331 20.4893C16.6334 20.2241 18.5462 19.6005 20.2631 18.0636C20.9627 17.4328 21.5719 16.7149 22.0747 15.929C22.4222 15.3868 22.9147 14.6061 23.2152 13.4709C23.4018 12.7659 23.6407 11.8169 23.3494 10.6894C23.2575 10.333 23.0871 9.70551 22.5444 9.13689C22.2491 8.82839 21.9613 8.65956 21.6721 8.49011C21.0361 8.11749 20.4906 7.96612 19.7935 7.77854C19.1547 7.60696 18.5047 7.47727 17.8478 7.39044L17.4238 7.34773C17.8167 7.97983 18.1173 8.66113 18.3174 9.37236C18.5385 10.1537 18.6336 10.9631 18.5992 11.7723C18.575 12.2826 18.5489 12.8428 18.2912 13.513C17.8934 14.5479 17.2023 15.1702 16.7689 15.5512C15.9531 16.258 14.976 16.7695 13.9168 17.0442C13.3888 17.1767 12.8379 17.2803 12.8379 17.2803C13.1294 17.2836 13.4207 17.2683 13.7101 17.2343C14.0121 17.2013 14.2288 17.178 14.5152 17.1218C14.8819 17.0449 15.2427 16.9444 15.5955 16.821C16.0564 16.656 17.2882 16.2032 18.1812 15.2575C18.8696 14.5278 19.1521 13.7963 19.3682 13.2122C19.3682 13.2122 20.133 11.1422 19.301 8.61944C19.6952 9.16044 20.0169 9.7472 20.2584 10.366C20.503 11.0745 20.6165 11.8189 20.5939 12.5653C20.5472 13.6091 20.2486 14.6279 19.7217 15.5408C19.157 16.4934 18.3774 17.3114 17.4405 17.9342C15.364 19.3262 13.2096 19.3094 12.6769 19.2926C11.9717 19.27 9.98972 19.1795 8.19096 17.7641C5.74675 15.8404 5.5958 13.0349 5.57968 12.5834C5.56089 12.0724 5.50653 8.61492 8.44661 6.697C10.8901 5.10311 13.6544 5.80564 14.0704 5.92075L13.2458 7.70024L13.5015 7.94479L14.6079 5.90979C14.4946 6.58768 14.381 7.26604 14.267 7.94479L14.6079 7.7818L15.0634 6.05339C15.2969 6.12905 16.5347 6.50618 17.5901 5.90979C18.1617 5.54641 18.6268 5.04746 18.9407 4.46081C18.9407 4.45629 19.0079 4.33529 19.095 4.17228C19.138 4.09338 19.1963 3.98212 19.2655 3.84888C18.9789 3.75895 18.7508 3.69299 18.5904 3.64769C18.5053 3.62378 18.406 3.5966 18.2195 3.54355L17.8343 3.43361C17.778 3.40253 17.6901 3.35272 17.5841 3.28868C16.5998 2.69615 16.5139 2.36822 15.8014 1.92446C15.3262 1.63665 14.81 1.41718 14.269 1.27308C13.8372 1.14206 13.3932 1.05254 12.9432 1.00592C12.9432 1.00592 12.707 0.977458 12.503 0.96C12.1582 0.929591 11.4678 0.933476 10.5795 0.99816C10.4619 0.666647 10.2256 0.386308 9.9133 0.207262C9.60085 0.0282211 9.23263 -0.0378419 8.87428 0.0208837C8.51603 0.0796093 8.19106 0.259295 7.95758 0.527808C7.7241 0.796326 7.59732 1.13617 7.59986 1.48654C6.28635 2.01708 5.07702 2.761 4.02448 3.68588C0.42488 6.85807 0.0619021 11.0335 0.0236591 11.5788C-0.0280037 12.311 -0.224585 16.1418 2.57724 19.5546C6.42639 24.2412 12.8842 24.4268 15.8846 23.6524C16.8665 23.3868 17.8102 23.0042 18.6938 22.5133C19.9633 21.7536 21.0631 20.7577 21.9291 19.5837C22.293 19.0604 22.6109 18.5085 22.8798 17.9342C23.1104 17.4499 23.312 16.9531 23.4837 16.4464C23.6439 15.9939 23.7734 15.5316 23.8714 15.0628C23.9396 14.7508 23.9893 14.4352 24.0204 14.1178C24.0204 14.1178 23.0703 17.1062 21.2695 18.9692Z" fill="#2C3034"/>
<path d="M39.071 18.5462C38.1102 18.5462 37.2514 18.3902 36.4948 18.0782C35.7381 17.7662 35.0956 17.3161 34.5672 16.7281C34.0387 16.1401 33.6304 15.4321 33.3421 14.6041C33.0659 13.7761 32.9277 12.8401 32.9277 11.7961C32.9277 10.7521 33.0659 9.81613 33.3421 8.98813C33.6304 8.16017 34.0387 7.45217 34.5672 6.86417C35.1076 6.27617 35.7562 5.82617 36.5128 5.51417C37.2695 5.20217 38.1222 5.04617 39.071 5.04617C40.0318 5.04617 40.8905 5.20217 41.6471 5.51417C42.4038 5.82617 43.0403 6.27617 43.5567 6.86417C44.0852 7.45217 44.4876 8.16017 44.7638 8.98813C45.04 9.81613 45.1781 10.7521 45.1781 11.7961C45.1781 12.8401 45.04 13.7761 44.7638 14.6041C44.4996 15.4321 44.1033 16.1401 43.5748 16.7281C43.0584 17.3161 42.4218 17.7662 41.6652 18.0782C40.9085 18.3902 40.0438 18.5462 39.071 18.5462ZM39.0529 16.2422C40.1819 16.2422 41.0226 15.8582 41.5751 15.0902C42.1275 14.3222 42.4038 13.2241 42.4038 11.7961C42.4038 10.3801 42.1275 9.28813 41.5751 8.52017C41.0226 7.74017 40.1819 7.35017 39.0529 7.35017C37.924 7.35017 37.0833 7.74017 36.5308 8.52017C35.9783 9.28813 35.7021 10.3801 35.7021 11.7961C35.7021 13.2241 35.9783 14.3222 36.5308 15.0902C37.0833 15.8582 37.924 16.2422 39.0529 16.2422ZM47.7772 10.7881H46.3V8.82617H47.7772V6.32417H50.2994V8.82617H52.4612V10.7881H50.2994V15.1262C50.2994 15.6182 50.4015 15.9542 50.6057 16.1342C50.8098 16.3022 51.0741 16.3862 51.3983 16.3862C51.5665 16.3862 51.7346 16.3801 51.9028 16.3681C52.0829 16.3441 52.257 16.3081 52.4252 16.2601L52.7855 18.1142C52.4372 18.2222 52.0949 18.2942 51.7586 18.3302C51.4344 18.3782 51.1221 18.4022 50.8218 18.4022C49.789 18.4022 49.0203 18.1562 48.5159 17.6641C48.0235 17.1721 47.7772 16.3441 47.7772 15.1801V10.7881ZM54.6034 10.7881H53.1261V8.82617H54.6034V6.32417H57.1255V8.82617H59.2873V10.7881H57.1255V15.1262C57.1255 15.6182 57.2275 15.9542 57.4317 16.1342C57.6359 16.3022 57.9001 16.3862 58.2244 16.3862C58.3925 16.3862 58.5607 16.3801 58.7288 16.3681C58.909 16.3441 59.0832 16.3081 59.2513 16.2601L59.6116 18.1142C59.2633 18.2222 58.921 18.2942 58.5847 18.3302C58.2604 18.3782 57.9482 18.4022 57.6479 18.4022C56.615 18.4022 55.8464 18.1562 55.3419 17.6641C54.8495 17.1721 54.6034 16.3441 54.6034 15.1801V10.7881ZM69.2883 15.2881C69.1202 16.3441 68.6938 17.1481 68.0092 17.7001C67.3367 18.2402 66.3518 18.5102 65.0547 18.5102C63.4934 18.5102 62.3164 18.0782 61.5237 17.2142C60.7431 16.3502 60.3528 15.1262 60.3528 13.5422C60.3528 12.7502 60.4668 12.0481 60.695 11.4361C60.9232 10.8121 61.2415 10.2841 61.6499 9.85213C62.0702 9.42013 62.5686 9.09613 63.1451 8.88017C63.7216 8.65217 64.3581 8.53817 65.0547 8.53817C66.4959 8.53817 67.5769 8.95213 68.2975 9.78013C69.0301 10.6081 69.3964 11.7241 69.3964 13.1281V14.1361H62.8749C62.8989 14.8921 63.0911 15.4862 63.4514 15.9182C63.8117 16.3382 64.3522 16.5481 65.0728 16.5481C66.0696 16.5481 66.6581 16.1281 66.8383 15.2881H69.2883ZM66.9643 12.4801C66.9643 11.8321 66.8022 11.3281 66.478 10.9681C66.1657 10.6081 65.6733 10.4281 65.0007 10.4281C64.6644 10.4281 64.3701 10.4822 64.1179 10.5902C63.8657 10.6982 63.6495 10.8481 63.4694 11.0401C63.3012 11.2201 63.1691 11.4361 63.073 11.6881C62.977 11.9281 62.9229 12.1921 62.9109 12.4801H66.9643ZM71.2856 8.82617H73.7357V10.1401C74.0479 9.64813 74.4263 9.28217 74.8707 9.04217C75.3151 8.79017 75.7835 8.66417 76.2759 8.66417C76.5161 8.66417 76.7142 8.67617 76.8703 8.70017C77.0265 8.71217 77.1646 8.73017 77.2847 8.75417L76.9784 11.0401C76.6902 10.9681 76.3359 10.9321 75.9156 10.9321C75.6393 10.9321 75.3751 10.9681 75.1229 11.0401C74.8707 11.1001 74.6425 11.2201 74.4383 11.4001C74.2221 11.5921 74.06 11.8081 73.9519 12.0481C73.8558 12.2881 73.8077 12.5342 73.8077 12.7862V18.2222H71.2856V8.82617ZM80.9408 14.0281C81.0009 14.8201 81.2531 15.3961 81.6975 15.7561C82.1538 16.1161 82.8204 16.2961 83.6972 16.2961C84.1175 16.2961 84.4718 16.2542 84.76 16.1702C85.0483 16.0742 85.2825 15.9542 85.4627 15.8102C85.6428 15.6542 85.7689 15.4742 85.841 15.2702C85.925 15.0662 85.9671 14.8441 85.9671 14.6041C85.9671 14.2681 85.841 13.9561 85.5888 13.6681C85.3365 13.3681 84.8742 13.1521 84.2016 13.0201L82.5261 12.7142C81.8656 12.5942 81.2831 12.4382 80.7787 12.2462C80.2743 12.0542 79.8479 11.8081 79.4996 11.5081C79.1633 11.1961 78.9051 10.8182 78.725 10.3742C78.5448 9.93017 78.4547 9.40217 78.4547 8.79017C78.4547 8.17817 78.5748 7.63817 78.815 7.17017C79.0672 6.70217 79.4096 6.31217 79.8419 6.00017C80.2863 5.68817 80.8147 5.45417 81.4273 5.29817C82.0398 5.13017 82.7124 5.04617 83.445 5.04617C84.3818 5.04617 85.1624 5.15417 85.787 5.37017C86.4115 5.58617 86.9159 5.87417 87.3002 6.23417C87.6846 6.58217 87.9668 6.99017 88.1469 7.45817C88.3391 7.92617 88.4652 8.41217 88.5253 8.91613L85.9851 9.24013C85.853 8.53217 85.5948 8.02217 85.2105 7.71017C84.8382 7.39817 84.2676 7.24217 83.499 7.24217C83.0426 7.24217 82.6643 7.28417 82.3641 7.36817C82.0758 7.44017 81.8416 7.54217 81.6614 7.67417C81.4813 7.79417 81.3552 7.93817 81.2831 8.10617C81.2111 8.27417 81.175 8.44817 81.175 8.62817C81.175 9.10813 81.3072 9.46813 81.5714 9.70813C81.8476 9.94813 82.31 10.1342 82.9585 10.2662L84.724 10.6081C86.1172 10.8841 87.1381 11.3342 87.7866 11.9582C88.4352 12.5702 88.7594 13.4582 88.7594 14.6222C88.7594 15.1862 88.6513 15.7081 88.4352 16.1881C88.231 16.6561 87.9187 17.0702 87.4984 17.4302C87.09 17.7782 86.5736 18.0481 85.9491 18.2402C85.3245 18.4442 84.5919 18.5462 83.7512 18.5462C81.9977 18.5462 80.6526 18.1742 79.7158 17.4302C78.791 16.6742 78.2926 15.5401 78.2205 14.0281H80.9408ZM99.0554 15.2881C98.8872 16.3441 98.4611 17.1481 97.7769 17.7001C97.1044 18.2402 96.1195 18.5102 94.8224 18.5102C93.2611 18.5102 92.0841 18.0782 91.2915 17.2142C90.5103 16.3502 90.1198 15.1262 90.1198 13.5422C90.1198 12.7502 90.2346 12.0481 90.4623 11.4361C90.6909 10.8121 91.0086 10.2841 91.4169 9.85213C91.8377 9.42013 92.3359 9.09613 92.9124 8.88017C93.4889 8.65217 94.1259 8.53817 94.8224 8.53817C96.2637 8.53817 97.3446 8.95213 98.0652 9.78013C98.7974 10.6081 99.1639 11.7241 99.1639 13.1281V14.1361H92.6419C92.666 14.8921 92.8581 15.4862 93.2184 15.9182C93.5787 16.3382 94.1196 16.5481 94.8402 16.5481C95.8366 16.5481 96.4256 16.1281 96.6053 15.2881H99.0554ZM96.7316 12.4801C96.7316 11.8321 96.5697 11.3281 96.245 10.9681C95.9327 10.6081 95.4408 10.4281 94.7682 10.4281C94.4319 10.4281 94.1374 10.4822 93.8857 10.5902C93.633 10.6982 93.4168 10.8481 93.2371 11.0401C93.069 11.2201 92.9364 11.4361 92.8403 11.6881C92.7442 11.9281 92.69 12.1921 92.6784 12.4801H96.7316ZM109.502 14.8201C109.406 15.9481 109.016 16.8481 108.332 17.5201C107.659 18.1802 106.644 18.5102 105.286 18.5102C104.494 18.5102 103.81 18.3902 103.233 18.1502C102.657 17.9102 102.182 17.5742 101.81 17.1422C101.449 16.7102 101.179 16.1881 100.999 15.5762C100.819 14.9641 100.729 14.2862 100.729 13.5422C100.729 12.7982 100.831 12.1201 101.035 11.5081C101.251 10.8841 101.558 10.3561 101.954 9.92413C102.351 9.48013 102.836 9.13817 103.413 8.89817C103.989 8.65817 104.65 8.53817 105.395 8.53817C106.031 8.53817 106.584 8.62217 107.052 8.79017C107.533 8.94617 107.935 9.16813 108.26 9.45613C108.583 9.74413 108.836 10.0921 109.016 10.5001C109.196 10.8961 109.317 11.3342 109.376 11.8142L106.836 12.1561C106.776 11.6761 106.638 11.2921 106.422 11.0041C106.205 10.7041 105.834 10.5542 105.305 10.5542C104.921 10.5542 104.602 10.6382 104.35 10.8062C104.098 10.9622 103.893 11.1782 103.738 11.4542C103.593 11.7302 103.491 12.0481 103.432 12.4081C103.371 12.7561 103.341 13.1222 103.341 13.5062C103.341 13.9022 103.371 14.2801 103.432 14.6401C103.491 15.0001 103.593 15.3182 103.738 15.5942C103.882 15.8702 104.08 16.0921 104.332 16.2601C104.585 16.4161 104.902 16.4942 105.286 16.4942C105.791 16.4942 106.181 16.3502 106.458 16.0622C106.734 15.7742 106.896 15.3601 106.944 14.8201H109.502Z" fill="#2C3034"/>
</g>
<defs>
<clipPath id="clip0_9126_62927">
<rect width="110.316" height="24" fill="white"/>
</clipPath>
</defs>
</svg>
