<svg width="24" height="25" viewBox="0 0 24 25" fill="none" xmlns="http://www.w3.org/2000/svg">
<g clip-path="url(#clip0_9729_27164)">
<path fill-rule="evenodd" clip-rule="evenodd" d="M8.73391 5.21607C8.52527 5.24419 8.33467 5.35062 8.19655 5.51616C8.09196 5.64152 8.02414 5.80015 8.00403 5.96651C8.00125 5.98944 7.99995 7.04158 8 9.2118C8.00007 11.9525 8.00091 12.4293 8.00572 12.4652C8.05773 12.8529 8.3566 13.1521 8.74391 13.2042C8.79332 13.2108 8.89988 13.2117 8.94801 13.2059C9.13679 13.183 9.30734 13.1023 9.4434 12.9716C9.50152 12.9158 9.53171 12.8766 9.63308 12.7255C9.68256 12.6517 10.067 12.0805 10.4874 11.4562C10.9078 10.8319 11.2572 10.3102 11.2639 10.297C11.2705 10.2838 11.278 10.2614 11.2804 10.2472C11.2932 10.1746 11.2494 10.0959 11.1761 10.0595C11.1471 10.0452 11.1451 10.0448 11.1016 10.0448C11.0572 10.0448 11.0567 10.0449 11.0263 10.0608C11.0003 10.0743 10.868 10.1873 10.1665 10.795C9.71046 11.19 9.33207 11.516 9.32562 11.5194C9.29985 11.533 9.26479 11.524 9.24721 11.4993L9.2379 11.4862V9.22922V6.97223L9.24627 6.96092C9.26694 6.93302 9.30689 6.92365 9.3323 6.94073C9.33978 6.94576 9.98369 7.71379 10.7632 8.64746C12.832 11.1254 13.2919 11.6763 13.8399 12.3331C14.1109 12.6579 14.3491 12.9405 14.3692 12.9611C14.4792 13.0735 14.611 13.1484 14.7658 13.1863C14.849 13.2067 14.8888 13.21 15.0541 13.21C15.2138 13.21 15.2548 13.2072 15.3278 13.1916C15.5819 13.1371 15.7983 12.9672 15.9136 12.7315C15.9563 12.6443 15.9853 12.5455 15.9955 12.4523C16.0015 12.3975 16.0015 6.02228 15.9955 5.96746C15.9597 5.64114 15.731 5.35748 15.42 5.25368C15.327 5.22266 15.2476 5.21001 15.1458 5.21001C14.9531 5.21001 14.7758 5.26842 14.6251 5.38152C14.5791 5.41611 14.5109 5.48218 14.4742 5.52787C14.4335 5.57866 12.7314 8.1099 12.7202 8.13637C12.6847 8.22072 12.7294 8.32065 12.8219 8.36381C12.8409 8.37263 12.853 8.37524 12.8805 8.37639C12.9215 8.3781 12.9481 8.37152 12.9785 8.35219C12.9899 8.34495 13.3703 8.0156 13.8238 7.6203C14.2773 7.22499 14.6563 6.8973 14.6659 6.89208C14.6977 6.87494 14.7328 6.88739 14.7482 6.92127C14.7554 6.93711 14.7556 7.00597 14.7557 9.18603L14.7558 11.4345L14.7468 11.4523C14.7312 11.4832 14.6898 11.4971 14.661 11.4812C14.654 11.4774 14.6332 11.4562 14.6149 11.4342L13.9514 10.6394L11.4882 7.68836C10.4799 6.48044 9.63851 5.47534 9.61842 5.4548C9.48897 5.32249 9.3218 5.23993 9.13469 5.21591C9.07228 5.2079 8.79371 5.20801 8.73391 5.21607Z" fill="#2C3034"/>
<path d="M19.5 9.20996C19.5 13.3521 16.1421 16.71 12 16.71C7.85786 16.71 4.5 13.3521 4.5 9.20996C4.5 5.06783 7.85786 1.70996 12 1.70996C16.1421 1.70996 19.5 5.06783 19.5 9.20996Z" stroke="#2C3034"/>
<path fill-rule="evenodd" clip-rule="evenodd" d="M8.25 22.21C7.83579 22.21 7.5 21.8742 7.5 21.46L7.5 18.96C7.5 18.5457 7.83579 18.21 8.25 18.21C8.66421 18.21 9 18.5457 9 18.96L9 21.46C9 21.8742 8.66421 22.21 8.25 22.21Z" fill="#2C3034"/>
<path fill-rule="evenodd" clip-rule="evenodd" d="M12.25 24.21C11.8358 24.21 11.5 23.8742 11.5 23.46L11.5 19.96C11.5 19.5457 11.8358 19.21 12.25 19.21C12.6642 19.21 13 19.5457 13 19.96L13 23.46C13 23.8742 12.6642 24.21 12.25 24.21Z" fill="#2C3034"/>
<path fill-rule="evenodd" clip-rule="evenodd" d="M16.25 22.21C15.8358 22.21 15.5 21.8742 15.5 21.46L15.5 18.96C15.5 18.5457 15.8358 18.21 16.25 18.21C16.6642 18.21 17 18.5457 17 18.96L17 21.46C17 21.8742 16.6642 22.21 16.25 22.21Z" fill="#2C3034"/>
</g>
<defs>
<clipPath id="clip0_9729_27164">
<rect width="24" height="24" fill="white" transform="translate(0 0.209961)"/>
</clipPath>
</defs>
</svg>
