<svg width="1280" height="715" viewBox="0 0 1280 715" fill="none" xmlns="http://www.w3.org/2000/svg">
<g clip-path="url(#clip0_9741_69560)">
<rect width="1280" height="715" fill="#E2D9D7"/>
<path d="M246.623 573.169H1033.32L1348 825.395H-68.0586L246.623 573.169Z" stroke="#5C5C5C" stroke-miterlimit="10"/>
<path d="M80.9844 705.934H1198.96" stroke="#5C5C5C" stroke-miterlimit="10"/>
<path d="M134.213 663.265H1145.73" stroke="#5C5C5C" stroke-miterlimit="10"/>
<path d="M178.189 628.015H1101.75" stroke="#5C5C5C" stroke-miterlimit="10"/>
<path d="M215.131 598.408H1064.81" stroke="#5C5C5C" stroke-miterlimit="10"/>
<path d="M945.914 573.169L1190.66 825.396" stroke="#5C5C5C" stroke-miterlimit="10"/>
<path d="M858.5 573.169L1033.32 825.396" stroke="#5C5C5C" stroke-miterlimit="10"/>
<path d="M771.086 573.169L875.977 825.396" stroke="#5C5C5C" stroke-miterlimit="10"/>
<path d="M683.672 573.169L718.636 825.396" stroke="#5C5C5C" stroke-miterlimit="10"/>
<path d="M596.268 573.169L561.305 825.396" stroke="#5C5C5C" stroke-miterlimit="10"/>
<path d="M508.854 573.169L403.963 825.396" stroke="#5C5C5C" stroke-miterlimit="10"/>
<path d="M421.442 573.169L246.623 825.396" stroke="#5C5C5C" stroke-miterlimit="10"/>
<path d="M334.028 573.169L89.2812 825.396" stroke="#5C5C5C" stroke-miterlimit="10"/>
<path d="M1033.32 219.401L246.623 219.401L-68.0584 -31L1348 -30.9999L1033.32 219.401Z" stroke="#5C5C5C" stroke-miterlimit="10"/>
<path d="M1264.71 35.2778L15.2269 35.2777" stroke="#5C5C5C" stroke-miterlimit="10"/>
<path d="M1198.96 87.5977L80.9862 87.5976" stroke="#5C5C5C" stroke-miterlimit="10"/>
<path d="M1145.73 129.957L134.214 129.957" stroke="#5C5C5C" stroke-miterlimit="10"/>
<path d="M1101.75 164.951L178.189 164.951" stroke="#5C5C5C" stroke-miterlimit="10"/>
<path d="M1064.81 194.344L215.131 194.344" stroke="#5C5C5C" stroke-miterlimit="10"/>
<path d="M334.029 219.401L89.2828 -30.9999" stroke="#5C5C5C" stroke-miterlimit="10"/>
<path d="M421.441 219.401L246.623 -30.9999" stroke="#5C5C5C" stroke-miterlimit="10"/>
<path d="M508.855 219.401L403.964 -30.9999" stroke="#5C5C5C" stroke-miterlimit="10"/>
<path d="M596.27 219.401L561.306 -30.9999" stroke="#5C5C5C" stroke-miterlimit="10"/>
<path d="M683.673 219.401L718.637 -30.9999" stroke="#5C5C5C" stroke-miterlimit="10"/>
<path d="M771.087 219.401L875.979 -30.9999" stroke="#5C5C5C" stroke-miterlimit="10"/>
<path d="M858.499 219.401L1033.32 -30.9999" stroke="#5C5C5C" stroke-miterlimit="10"/>
<path d="M945.912 219.401L1190.66 -30.9999" stroke="#5C5C5C" stroke-miterlimit="10"/>
<path d="M1033.39 219.401H245.656V573.169H1033.39V219.401Z" stroke="#5C5C5C" stroke-miterlimit="10"/>
<path d="M245.656 396.137H1033.39" stroke="#5C5C5C" stroke-miterlimit="10"/>
<path d="M245.656 572.873H1033.39" stroke="#5C5C5C" stroke-miterlimit="10"/>
<path d="M245.656 484.95H1033.39" stroke="#5C5C5C" stroke-miterlimit="10"/>
<path d="M245.656 308.214H1033.39" stroke="#5C5C5C" stroke-miterlimit="10"/>
<path d="M946.064 219.401V573.169" stroke="#5C5C5C" stroke-miterlimit="10"/>
<path d="M857.844 219.401V573.169" stroke="#5C5C5C" stroke-miterlimit="10"/>
<path d="M771.408 219.401V573.169" stroke="#5C5C5C" stroke-miterlimit="10"/>
<path d="M683.188 219.401V573.169" stroke="#5C5C5C" stroke-miterlimit="10"/>
<path d="M595.859 219.401V573.169" stroke="#5C5C5C" stroke-miterlimit="10"/>
<path d="M507.641 219.401V573.169" stroke="#5C5C5C" stroke-miterlimit="10"/>
<path d="M421.203 219.401V573.169" stroke="#5C5C5C" stroke-miterlimit="10"/>
<path d="M332.984 219.401V573.169" stroke="#5C5C5C" stroke-miterlimit="10"/>
<path d="M1280.7 22.4662L1032.97 219.612V572.96L1280.7 771.886V22.4662Z" fill="#DCCECB" stroke="#5C5C5C"/>
<path d="M-2 22L247 219.298V572.92L-2 773V22Z" fill="#DCCECB" stroke="#5C5C5C"/>
<rect x="1" width="1279" height="715" fill="#303030" fill-opacity="0.05"/>
</g>
<defs>
<clipPath id="clip0_9741_69560">
<rect width="1280" height="715" fill="white"/>
</clipPath>
</defs>
</svg>
