<svg width="40" height="40" viewBox="0 0 40 40" fill="none" xmlns="http://www.w3.org/2000/svg">
<circle cx="20" cy="20" r="20" fill="#44484C"/>
<path d="M33 11.6357C32.0228 12.0764 30.9895 12.3677 29.932 12.5005C31.0476 11.8078 31.8837 10.718 32.285 9.43321C31.2366 10.0819 30.089 10.5389 28.892 10.7845C28.0919 9.8826 27.0265 9.28227 25.8628 9.07763C24.699 8.87299 23.5029 9.07561 22.4619 9.65372C21.4209 10.2318 20.594 11.1527 20.1108 12.272C19.6276 13.3912 19.5155 14.6455 19.792 15.8381C17.6723 15.7267 15.5988 15.153 13.7063 14.1543C11.8137 13.1556 10.1445 11.7542 8.807 10.0413C8.33788 10.8928 8.09137 11.8571 8.092 12.8384C8.09034 13.7496 8.30548 14.6472 8.71828 15.4511C9.13108 16.255 9.72872 16.9404 10.458 17.4461C9.61037 17.4221 8.78085 17.1857 8.04 16.757V16.8245C8.04635 18.1013 8.47679 19.3366 9.25851 20.3215C10.0402 21.3064 11.1252 21.9804 12.33 22.2295C11.8662 22.3762 11.3847 22.4536 10.9 22.4593C10.5645 22.4552 10.2297 22.4236 9.899 22.3647C10.2421 23.463 10.906 24.4228 11.7984 25.1106C12.6908 25.7984 13.7672 26.18 14.878 26.2022C13.0024 27.7362 10.6866 28.5735 8.3 28.5804C7.86546 28.5819 7.43126 28.5548 7 28.4993C9.43676 30.1347 12.2765 31.0028 15.177 30.9992C17.1786 31.0208 19.1643 30.6276 21.018 29.8426C22.8718 29.0576 24.5565 27.8965 25.9738 26.4272C27.391 24.9579 28.5124 23.2097 29.2723 21.2849C30.0323 19.3601 30.4157 17.2971 30.4 15.2166C30.4 14.9868 30.4 14.7436 30.4 14.5004C31.4201 13.7097 32.2999 12.7403 33 11.6357Z" fill="white"/>
</svg>
